<?xml version="1.0" standalone="no"?>
<!DOCTYPE svg PUBLIC "-//W3C//DTD SVG 1.1//EN" "http://www.w3.org/Graphics/SVG/1.1/DTD/svg11.dtd" >
<svg>
<metadata>
Created by FontForge 20090914 at Tue Jan 24 12:56:38 2023
 By www-data
Copyright &#194;&#169; 2022 by Alit Suarnegara. All rights reserved.
</metadata>
<defs>
<font id="Chomiku3D-Regular" horiz-adv-x="540" >
  <font-face 
    font-family="Chomiku 3D"
    font-weight="400"
    font-stretch="normal"
    units-per-em="1000"
    panose-1="0 0 5 0 0 0 0 0 0 0"
    ascent="800"
    descent="-200"
    x-height="624"
    cap-height="814"
    bbox="-107.001 -460 1006 1270"
    underline-thickness="50"
    underline-position="-50"
    unicode-range="U+0020-U+25CA"
  />
<missing-glyph horiz-adv-x="865" 
d="M709 -460h-548v1730h548v-1730zM291 1154v-57h112v-64h-114v-57h287v57h-114v64h114v57h-285zM289 931v-180h287v59h-114v121h-173zM403 810h-57v62h57v-62zM289 704v-57h114v-64h-114v-57h173v121h114v57h-287zM519 600v-114h-230v-59h287v173h-57zM403 389v-96h59v39
h57v-81h-173v138h-57v-195h287v195h-173zM289 90v-195h287v195h-287zM519 -48h-173v81h173v-81zM289 -145v-57h121l-121 -82v-57h287v57h-176l121 82h55v57h-287z" />
    <glyph glyph-name=".notdef" horiz-adv-x="865" 
d="M709 -460h-548v1730h548v-1730zM291 1154v-57h112v-64h-114v-57h287v57h-114v64h114v57h-285zM289 931v-180h287v59h-114v121h-173zM403 810h-57v62h57v-62zM289 704v-57h114v-64h-114v-57h173v121h114v57h-287zM519 600v-114h-230v-59h287v173h-57zM403 389v-96h59v39
h57v-81h-173v138h-57v-195h287v195h-173zM289 90v-195h287v195h-287zM519 -48h-173v81h173v-81zM289 -145v-57h121l-121 -82v-57h287v57h-176l121 82h55v57h-287z" />
    <glyph glyph-name="space" unicode=" " horiz-adv-x="200" 
 />
    <glyph glyph-name="exclam" unicode="!" horiz-adv-x="257" 
d="M46 531c0 77.333 -5.99805 168.331 -17.998 272.998l11 10c26 -6 58.667 -9 98 -9s72 3 98 9l11 -10l39 -40l11 -10c-4.66699 -50 -11.334 -110.667 -20.001 -182c-8 -62 -13.833 -114.667 -17.5 -158s-5.5 -92.666 -5.5 -147.999c0 -35.333 1 -74.666 3 -117.999l-10 -9
c-28.667 4.66699 -55.334 7 -80.001 7c-23.333 0 -49.333 -2.33301 -78 -7l-60 60c12 144 18 254.667 18 332zM116.002 213.998c20 0 43.668 -1.99902 71.001 -5.99902c-2 40 -3 77 -3 111c0 55.333 2 105.5 6 150.5s10 96.833 18 155.5
c9.33301 67.333 15.666 123.666 18.999 168.999c-29.333 -4.66699 -59.333 -7 -90 -7c-29.333 0 -59.333 2.33301 -90 7c12 -100.667 18 -188.667 18 -264c0 -76.667 -6 -184 -18 -322c26 4 49 6 69 6zM72.0029 -101.501c-20.667 13 -36.001 29.666 -46.001 49.999
s-15 41.833 -15 64.5c0 28 9.16699 51.833 27.5 71.5s40.833 29.5 67.5 29.5c28 0 52.333 -6.83301 73 -20.5s36.334 -31 47.001 -52s16 -42.167 16 -63.5c0 -27.333 -9.16699 -50.666 -27.5 -69.999s-40.5 -29 -66.5 -29c-30 0 -55.333 6.5 -76 19.5zM151.502 -29.502
c15 15.667 22.5 34.166 22.5 55.499c0 20 -6.5 36.667 -19.5 50s-29.167 20 -48.5 20c-21.333 0 -39.5 -7.66699 -54.5 -23s-22.5 -33.666 -22.5 -54.999c0 -20.667 6.5 -37.667 19.5 -51s29.5 -20 49.5 -20c20.667 0 38.5 7.83301 53.5 23.5z" />
    <glyph glyph-name="quotedbl" unicode="&#x22;" horiz-adv-x="378" 
d="M21 552l-10.0029 10.999c6 30.667 10.833 57 14.5 79s5.5 39.667 5.5 53s-1.33301 27 -4 41s-8 36.333 -16 67l10 11c26 -2.66699 52 -4 78 -4c27.333 0 53.333 1.33301 78 4l10 -10l14 -42l-10 41l10 11c26 -2.66699 52 -4 78 -4c27.333 0 53.333 1.33301 78 4l60 -60
c-1.33301 -22.667 -4.16602 -41.5 -8.49902 -56.5s-10.166 -30.833 -17.499 -47.5s-12.666 -31.167 -15.999 -43.5s-5 -28.166 -5 -47.499c0 -13.333 1 -29 3 -47l-10 -10l-27 2l-30 1c-10.667 0 -21 -0.333008 -31 -1l-24 -2l-10 11l-40 39l-10 11l14 73
c-10 -22 -15 -47.333 -15 -76c0 -14 1 -30 3 -48l-10 -10l-27 2l-30 1c-10.667 0 -21 -0.333008 -31 -1l-24 -2l-10 11zM75.9971 572.999c14 0 29.999 -0.666016 47.999 -1.99902c-1.33301 18.667 -2 31 -2 37c0 21.333 1.83301 39 5.5 53s9.16699 29.333 16.5 46
c6.66699 15.333 11.834 29.166 15.501 41.499s6.5 27.833 8.5 46.5c-32 -2.66699 -54.667 -4 -68 -4s-36 1.33301 -68 4c11.333 -48 17 -83 17 -105c0 -17.333 -3.66699 -45.333 -11 -84l-7 -35c17.333 1.33301 32.333 2 45 2zM255.996 573
c14 0 29.999 -0.666016 47.999 -1.99902c-1.33301 18.667 -2 31 -2 37c0 21.333 1.83301 39 5.5 53s9.16699 29.333 16.5 46c6.66699 15.333 11.834 29.166 15.501 41.499s6.5 27.833 8.5 46.5c-32 -2.66699 -54.667 -4 -68 -4s-36 1.33301 -68 4c11.333 -48 17 -83 17 -105
c0 -17.333 -3.66699 -45.333 -11 -84l-7 -35c17.333 1.33301 32.333 2 45 2z" />
    <glyph glyph-name="numbersign" unicode="#" horiz-adv-x="818" 
d="M25 -25l-10.999 12l48 133l-41 29l-10 10c3.33301 30 5 57.667 5 83s-1.66699 52 -5 80l10 10c37.333 -5.33301 76.666 -9.33301 117.999 -12c5.33301 16 12 33.333 20 52l15 42c-7.33301 0 -18.333 -0.666992 -33 -2l-60 60c3.33301 30 5 57.333 5 82
c0 25.333 -1.66699 52 -5 80l10 10c46.667 -6.66699 100 -11.667 160 -15c16.667 54 33.667 113.333 51 178l10 7c36 -4.66699 62 -7 78 -7c17.333 0 44 2.33301 80 7l9 -12l41 -38l9 -12c-16.667 -42.667 -32.667 -85.667 -48 -129c18.667 0 44.667 0.666992 78 2
c22 65.333 39.667 126 53 182l10 7c36 -4.66699 62 -7 78 -7c17.333 0 44 2.33301 80 7l9 -12l41 -38l9 -12l-40 -110l58 -58c-4.66699 -34 -7 -68.667 -7 -104c0 -34 2.33301 -68.667 7 -104l-9 -10c-49.333 2.66699 -85.666 5.33398 -108.999 8.00098
c-6 0 -16.333 0.666992 -31 2l-15 -49l33 5l11 -10l39 -40l11 -10c-4.66699 -34.667 -7 -69.667 -7 -105c0 -34 2.33301 -68.667 7 -104l-9 -10c-38 2 -79.667 5 -125 9l-32 3l-9 -38c-9.33301 -42.667 -16 -74.334 -20 -95.001l-11 -7
c-26.667 6.66699 -58.334 10 -95.001 10c-36 0 -69.667 -3.33301 -101 -10l-11 12l-39 38l-11 12c8 23.333 20.667 58.333 38 105l-43 3c-15.333 -62 -27.666 -116.333 -36.999 -163l-11 -7c-26.667 6.66699 -58.334 10 -95.001 10c-36 0 -69.667 -3.33301 -101 -10l-11 12z
M253.001 157l10 6.99805c24 -1.33301 57.333 -4 100 -8c8.66699 -1.33301 21.667 -2.66602 39 -3.99902c-2 -6.66699 -7.66699 -22.334 -17 -47.001l-16 -45l-23 -64c31.333 4.66699 61.333 7 90 7c33.333 0 63.333 -2.66699 90 -8l29 132l10 7c56 -6 107 -10 153 -12
c-4 30 -6 63.667 -6 101c0 29.333 1.66699 59 5 89c-8.66699 -1.33301 -34 -4.33301 -76 -9l-26 -3l-10 11c17.333 61.333 30 104 38 128l10 6c41.333 -4 86.333 -7.33301 135 -10c-4 29.333 -6 62 -6 98c0 30.667 1.66699 61 5 91c-27.333 -4 -51 -6.66699 -71 -8l-9 12
c17.333 50.667 37.333 106 60 166c-28 -3.33301 -49.667 -5 -65 -5c-21.333 0 -46 2 -74 6c-13.333 -52.667 -31 -113.334 -53 -182.001l-9 -6c-41.333 -1.33301 -73.333 -2 -96 -2l-69 1l-8 12l64 176c-28 -3.33301 -49.667 -5 -65 -5c-21.333 0 -46 2 -74 6
c-18.667 -69.333 -36 -128.666 -52 -177.999l-9 -6c-64 3.33301 -116.333 8 -157 14c3.33301 -32 5 -56 5 -72c0 -14.667 -1.66699 -38.667 -5 -72c22 1.33301 57.333 2 106 2l8 -12c-10 -29.333 -22.667 -64.333 -38 -105l-10 -25c-4.66699 -13.333 -9 -24.666 -13 -33.999
l-9 -6l-32 3c-8.66699 0.666992 -21.5 1.83398 -38.5 3.50098s-31.5 3.5 -43.5 5.5c3.33301 -32 5 -56 5 -72c0 -14 -1.66699 -38.333 -5 -73c24 1.33301 43 2 57 2l8 -12c-25.333 -67.333 -45 -121.333 -59 -162c31.333 4.66699 61.333 7 90 7
c33.333 0 63.333 -2.66699 90 -8c14.667 68 27 122 37 162zM342.001 468.998l10.001 6c56 -4 108.333 -9 157 -15l7 -12l-57 -149l-8 -6l-75 -1l-74 1l-9 11c17.333 61.333 33.666 116.333 48.999 165zM479.002 399.998l-72 6c-12 -38 -21.667 -70 -29 -96l67 1z" />
    <glyph glyph-name="dollar" unicode="$" horiz-adv-x="521" 
d="M187 -151l-10.9971 8.99609c1.33301 38 2.66602 66.333 3.99902 85c-35.333 14.667 -69.833 35.834 -103.5 63.501s-56.834 57.834 -69.501 90.501c10 2 23.5 10.5 40.5 25.5s32.667 32.167 47 51.5s23.166 36.333 26.499 51l17 2c7.33301 -16.667 20.5 -30 39.5 -40
s40.833 -15 65.5 -15c26 0 47.167 5.83301 63.5 17.5s24.833 26.5 25.5 44.5c0 7.33301 -0.333008 12.666 -1 15.999c-20.667 10.667 -50.334 23 -89.001 37c-46 16.667 -85.167 40.167 -117.5 70.5s-56.666 64.333 -72.999 102s-24.5 75.834 -24.5 114.501
c0 56.667 17 106.834 51 150.501s82.333 71.5 145 83.5c0 40 -1 77 -3 111l10 9c35.333 -4 61.666 -6 78.999 -6c18 0 43.667 2 77 6l60 -60c-4 -37.333 -6.66699 -66 -8 -86c24.667 -11.333 45.167 -23.333 61.5 -36s34.833 -32 55.5 -58l-1 -14
c-23.333 -16.667 -45 -41.834 -65 -75.501s-31.667 -61.167 -35 -82.5l-16 -4c-12.667 18.667 -27 32.334 -43 41.001s-32 13 -48 13c-22 0 -41.5 -6.33301 -58.5 -19s-26.5 -26.667 -28.5 -42c100 -37.333 175 -80.666 225 -129.999s75 -108.333 75 -177
c0 -52 -11.167 -99 -33.5 -141s-53.833 -74.667 -94.5 -98c4.66699 -66.667 9.33398 -116.667 14.001 -150l-11 -10c-30 5.33301 -63 8 -99 8c-35.333 0 -68.333 -2.66699 -99 -8l-11 9zM286.003 -125.004c34 0 64.334 -1.99707 91.001 -5.99707
c-3.33301 25.333 -7 64.666 -11 117.999l-2 26l5 9c39.333 21.333 69.666 51.666 90.999 90.999s32 84.333 32 135c0 40 -7.83301 74 -23.5 102s-41.5 53.167 -77.5 75.5s-86 45.166 -150 68.499c-33.333 12 -50 30.667 -50 56c0 13.333 5 26.5 15 39.5
s23.167 23.667 39.5 32s33.833 12.5 52.5 12.5c35.333 0 66.333 -15.667 93 -47c7.33301 23.333 19.666 49 36.999 77s36.333 50.333 57 67c-33.333 27.333 -70.333 45.333 -111 54l-7 10c4 49.333 7.33301 87.333 10 114c-31.333 -3.33301 -54 -5 -68 -5
c-13.333 0 -36.666 1.66699 -69.999 5c1.33301 -46.667 2 -83 2 -109l-8 -9c-38.667 -6 -71.834 -20 -99.501 -42s-48.667 -48.833 -63 -80.5s-21.5 -64.834 -21.5 -99.501c0 -46.667 12.667 -89.834 38 -129.501s62.333 -68.5 111 -86.5
c42 -15.333 73.5 -28.666 94.5 -39.999s35.833 -22.666 44.5 -33.999s13 -25.666 13 -42.999c0 -24 -10 -43.667 -30 -59s-45.667 -23 -77 -23c-24 0 -45.667 4.16699 -65 12.5s-34.666 20.166 -45.999 35.499c-9.33301 -20 -23.833 -41 -43.5 -63
s-38.167 -38.333 -55.5 -49c34 -50.667 83 -82 147 -94l22 -3c-1.33301 -14.667 -2 -24.667 -2 -30c-3.33301 -34 -5.33301 -65.333 -6 -94c28 4 58.667 6 92 6z" />
    <glyph glyph-name="percent" unicode="%" horiz-adv-x="864" 
d="M214 -197c-21.333 2 -42.9971 2.99902 -64.9971 2.99902c-39.333 0 -63.666 -3 -72.999 -9l-12 14l-38 36l-12 14l282 376c-18.667 -9.33301 -38.334 -14 -59.001 -14c-38 0 -74.333 11.667 -109 35s-62.834 56.833 -84.501 100.5s-32.5 94.834 -32.5 153.501
c0 52.667 8.5 101.334 25.5 146.001s39.833 80.167 68.5 106.5s59.667 39.5 93 39.5c44 0 83 -15.667 117 -47s60.5 -71.166 79.5 -119.499s28.5 -96.5 28.5 -144.5c0 -13.333 -0.333008 -23 -1 -29c-2 -20.667 -5.66699 -42.667 -11 -66
c97.333 140.667 185.333 276.334 264 407.001l10 4c21.333 -4 45.666 -6 72.999 -6c30 0 58 2 84 6l58 -64c-97.333 -126 -191 -253.333 -281 -382c18.667 9.33301 38 14 58 14c42.667 0 81.167 -15.833 115.5 -47.5s61.166 -71.834 80.499 -120.501s29 -97 29 -145
c0 -12 -0.333008 -21 -1 -27c-4 -46 -14.667 -87.333 -32 -124s-39.333 -65.334 -66 -86.001s-55.667 -31 -87 -31c-36.667 0 -72.5 13.167 -107.5 39.5s-63.5 62.166 -85.5 107.499s-33 95 -33 149c0 30.667 4 63 12 97c-89.333 -136.667 -167 -266 -233 -388l-11 -5
c-8 2.66699 -22.667 5 -44 7zM475.003 305.499c101.333 151 217.335 311.834 348.002 482.501c-20 -2 -41 -3 -63 -3c-24.667 0 -48.667 1.66699 -72 5l-219 -354c-54.667 -85.333 -115.334 -172.833 -182.001 -262.5s-147 -189.834 -241 -300.501
c8.66699 5.33301 23.667 8 45 8c31.333 0 69.666 -5 114.999 -15c78 142 167.667 288.5 269 439.5zM265.005 319.5c24 19 43.833 45.6699 59.5 80.0029s25.5 73.166 29.5 116.499c1.33301 14.667 2 25.667 2 33c0 40 -6.33301 78.167 -19 114.5s-31 65.833 -55 88.5
s-52 34 -84 34c-30 0 -58 -12.333 -84 -37s-46.667 -57.834 -62 -99.501s-23 -86.834 -23 -135.501c0 -40.667 7.16699 -78 21.5 -112s33.5 -61 57.5 -81s50.333 -30 79 -30c28 0 54 9.5 78 28.5zM143.005 440.503c-12 17.667 -17.999 39.167 -17.999 64.5
c0 36 6 65.667 18 89s27.667 35 47 35s34.833 -10 46.5 -30s17.5 -47 17.5 -81c0 -29.333 -6.33301 -54 -19 -74s-28.334 -30 -47.001 -30c-18 0 -33 8.83301 -45 26.5zM224.506 460.503c7.66699 15.667 11.499 34.499 11.499 56.499c0 11.333 -1.33301 25.666 -4 42.999
c-11.333 -4.66699 -20.666 -16.667 -27.999 -36s-11 -42.333 -11 -69c0 -5.33301 0.666992 -12.666 2 -21.999c12 2.66699 21.833 11.834 29.5 27.501zM744.005 -107.498c24 19 43.833 45.6699 59.5 80.0029s25.5 73.166 29.5 116.499c1.33301 14.667 2 25.667 2 33
c0 40 -6.33301 78.167 -19 114.5s-31 65.833 -55 88.5s-52 34 -84 34c-30 0 -58 -12.333 -84 -37s-46.667 -57.834 -62 -99.501s-23 -86.834 -23 -135.501c0 -40.667 7.16699 -78 21.5 -112s33.5 -61 57.5 -81s50.333 -30 79 -30c28 0 54 9.5 78 28.5zM622.005 13.5049
c-12 17.667 -17.999 39.167 -17.999 64.5c0 36 6 65.667 18 89s27.667 35 47 35s34.833 -10 46.5 -30s17.5 -47 17.5 -81c0 -29.333 -6.33301 -54 -19 -74s-28.334 -30 -47.001 -30c-18 0 -33 8.83301 -45 26.5zM703.506 33.5049
c7.66699 15.667 11.499 34.499 11.499 56.499c0 11.333 -1.33301 25.666 -4 42.999c-11.333 -4.66699 -20.666 -16.667 -27.999 -36s-11 -42.333 -11 -69c0 -5.33301 0.666992 -12.666 2 -21.999c12 2.66699 21.833 11.834 29.5 27.501z" />
    <glyph glyph-name="ampersand" unicode="&#x26;" horiz-adv-x="586" 
d="M462.5 -140.5l-35.499 37.499l-5 6c-43.333 -30.667 -92 -46 -146 -46c-46.667 0 -90.5 10 -131.5 30s-73.667 48.167 -98 84.5s-36.5 77.833 -36.5 124.5c0 78 34.667 158.333 104 241c-19.333 41.333 -35.333 81 -48 119c-16 52 -24 99.667 -24 143
c0 65.333 17.333 116.833 52 154.5s83.667 56.5 147 56.5c50.667 0 95.5 -11.5 134.5 -34.5s69.167 -53.833 90.5 -92.5s32 -80.667 32 -126c0 -58 -17 -113.333 -51 -166c-22.667 -35.333 -50 -71.333 -82 -108l25 -34l16 53l13 5c46 -26 90 -39.333 132 -40l50 -50
c-18.667 -65.333 -38 -118.666 -58 -159.999l22 -26c13.333 -15.333 19.666 -22.666 18.999 -21.999l20 -21l19 -21l-1 -13c-42 -38.667 -77 -83.334 -105 -134.001l-14 -2zM553.001 11.999l-11.9971 12.9961l-40 44l-30 36c23.333 44.667 42 93.334 56 146.001
c-34.667 4 -70.334 15.667 -107.001 35c-6 -22 -13.667 -45 -23 -69l-15 -3c-32 41.333 -60.333 79.666 -85 114.999v11c34 38 62 75 84 111c36.667 58.667 55 114.334 55 167.001c0 52 -17.333 94 -52 126s-82.334 48 -143.001 48c-57.333 0 -101.833 -17.167 -133.5 -51.5
s-47.5 -81.166 -47.5 -140.499c0 -40.667 8 -86.667 24 -138c10 -35.333 26.333 -76 49 -122l-1 -10c-35.333 -42 -61.333 -81.5 -78 -118.5s-25 -74.167 -25 -111.5c0 -55.333 17.167 -98.333 51.5 -129s82.833 -46 145.5 -46c56 0 106 18 150 54l42 -45l23 -25
c-0.666992 0.666992 4.66602 -5.66602 15.999 -18.999c28 46.667 60 87.334 96 122.001zM172.004 599.995c0 20 7.99902 35.833 23.999 47.5s34.667 17.5 56 17.5c20 0 37 -5 51 -15s21 -24 21 -42c0 -28.667 -7.16699 -55 -21.5 -79s-36.166 -51.667 -65.499 -83l-15 2
c-33.333 61.333 -50 112 -50 152zM289.503 543.495c9 17 14.499 34.8311 16.499 53.498c-17.333 0.666992 -32.666 -3.16602 -45.999 -11.499s-20 -20.166 -20 -35.499c0 -16.667 3.66699 -37 11 -61c16.667 19.333 29.5 37.5 38.5 54.5zM210.002 42.9932
c-20.667 0 -37.332 5.16797 -49.999 15.501s-19 25.166 -19 44.499c0 16.667 3.66699 33.667 11 51s19 37 35 59h15c25.333 -40.667 55.666 -85 90.999 -133l-3 -13c-28 -16 -54.667 -24 -80 -24zM272.004 77.9941l-37 51.001c-14 -22.667 -22.667 -45.334 -26 -68.001
c18 0 39 5.66699 63 17z" />
    <glyph glyph-name="quotesingle" unicode="'" horiz-adv-x="198" 
d="M21 552l-10.0029 10.999c6 30.667 10.833 57 14.5 79s5.5 39.667 5.5 53s-1.33301 27 -4 41s-8 36.333 -16 67l10 11c26 -2.66699 52 -4 78 -4c27.333 0 53.333 1.33301 78 4l60 -60c-1.33301 -22.667 -4.16602 -41.5 -8.49902 -56.5s-10.166 -30.833 -17.499 -47.5
s-12.666 -31.167 -15.999 -43.5s-5 -28.166 -5 -47.499c0 -13.333 1 -29 3 -47l-10 -10l-27 2l-30 1c-10.667 0 -21 -0.333008 -31 -1l-24 -2l-10 11zM75.9971 572.999c14 0 29.999 -0.666016 47.999 -1.99902c-1.33301 18.667 -2 31 -2 37c0 21.333 1.83301 39 5.5 53
s9.16699 29.333 16.5 46c6.66699 15.333 11.834 29.166 15.501 41.499s6.5 27.833 8.5 46.5c-32 -2.66699 -54.667 -4 -68 -4s-36 1.33301 -68 4c11.333 -48 17 -83 17 -105c0 -17.333 -3.66699 -45.333 -11 -84l-7 -35c17.333 1.33301 32.333 2 45 2z" />
    <glyph glyph-name="parenleft" unicode="(" horiz-adv-x="303" 
d="M142 -209l-10.001 5c-40.667 90.667 -71 177.167 -91 259.5s-30 163.5 -30 243.5c0 80.667 10 162.167 30 244.5s50.333 169.166 91 260.499l10 5c22.667 -4.66699 46 -7 70 -7c24.667 0 47.667 2.33301 69 7l10 -13l50 -37l10 -13
c-78.667 -165.333 -118 -330.666 -118 -495.999c0 -164.667 39.333 -330 118 -496l-10 -13c-21.333 4.66699 -44.666 7 -69.999 7c-24.667 0 -47.667 -2.33301 -69 -7l-10 5zM211.999 -183c16.667 0 35 -1.66797 55 -5.00098c-74.667 163.333 -112 326 -112 488
s37.333 324.667 112 488c-20 -3.33301 -38.333 -5 -55 -5c-18 0 -40.333 2.33301 -67 7c-38.667 -88 -67.5 -172.167 -86.5 -252.5s-28.5 -159.833 -28.5 -238.5c0 -78 9.5 -157.167 28.5 -237.5s47.833 -164.166 86.5 -251.499c26.667 4.66699 49 7 67 7z" />
    <glyph glyph-name="parenright" unicode=")" horiz-adv-x="303" 
d="M22 -209l-10.001 13.002c79.333 168 119 333.333 119 496c0 164 -39.667 329.333 -119 496l10 13c22.667 -4.66699 46 -7 70 -7c24.667 0 47.667 2.33301 69 7l10 -5l50 -50c40.667 -90.667 71 -177.334 91 -260.001s30 -164.334 30 -245.001s-10 -162.167 -30 -244.5
s-50.333 -168.5 -91 -258.5l-10 -5c-21.333 4.66699 -44.666 7 -69.999 7c-24.667 0 -47.667 -2.33301 -69 -7l-10 13zM244.999 62.002c19.333 80 29 159.002 29 237.002s-9.66699 157.167 -29 237.5s-48.333 164.833 -87 253.5c-26.667 -4.66699 -49 -7 -67 -7
c-16.667 0 -35 1.66699 -55 5c75.333 -164.667 113 -327.334 113 -488.001s-37.667 -323.334 -113 -488.001c20 3.33301 38.333 5 55 5c18 0 40.333 -2.33301 67 -7c38.667 88 67.667 172 87 252z" />
    <glyph glyph-name="asterisk" unicode="*" horiz-adv-x="435" 
d="M137 401c-31.333 35.333 -71.666 70.002 -120.999 104.002l-3 14c31.333 35.333 64.666 67.666 99.999 96.999c-18.667 16 -37.667 33.667 -57 53c-17.333 16 -28.666 26 -33.999 30v14c21.333 20 36.5 35.5 45.5 46.5s20.5 27.833 34.5 50.5l15 1l98 -102
c26 28 53.667 61.667 83 101l14 1c10 -11.333 25.667 -26.333 47 -45s37 -31.334 47 -38.001l50 -50l1 -13l-84 -86l47 -31l50 -50l1 -15c-17.333 -14.667 -35.833 -34 -55.5 -58s-34.834 -46.333 -45.501 -67l-14 -3c-19.333 18 -36 34.667 -50 50
c-16 15.333 -30 29.333 -42 42c-22 -32 -42.667 -64 -62 -96h-15c-13.333 17.333 -30 34 -50 50zM209 521.002l14 1c28 -35.333 57 -67.333 87 -96c10.667 19.333 24.334 39.333 41.001 60s33 38.334 49 53.001c-46 30 -80.667 54.333 -104 73l-2 13
c20.667 22 38 39.667 52 53l41 42c-18.667 13.333 -33.167 24.5 -43.5 33.5s-22.833 21.5 -37.5 37.5c-32 -42.667 -60.333 -76.334 -85 -101.001h-12c-15.333 14.667 -48 48 -98 100c-12 -18 -22.333 -32.333 -31 -43s-21.334 -24 -38.001 -40
c42.667 -34.667 73.667 -62 93 -82v-13c-38 -32 -71.667 -64.333 -101 -97c18.667 -11.333 38 -25.5 58 -42.5s37 -33.833 51 -50.5c29.333 46 51.333 79 66 99z" />
    <glyph glyph-name="plus" unicode="+" 
d="M165 51l-11.001 8.99902c2 48.667 6 92 12 130c-27.333 0 -59 -1 -95 -3l-60 60c4 35.333 6 61.666 6 78.999c0 18.667 -2 44.334 -6 77.001l10 10c69.333 -7.33301 128.333 -12.666 177 -15.999c2 23.333 3 48 3 74c0 26.667 -1 56 -3 88l10 10
c35.333 -4 61.666 -6 78.999 -6c18.667 0 44.334 2 77.001 6l60 -60l-11 -109l64 8c7.33301 0.666992 21.333 2.33398 42 5.00098l10 -11l40 -39l10 -11c-5.33301 -30 -8 -63 -8 -99c0 -35.333 2.66699 -68.333 8 -99l-9 -11c-55.333 1.33301 -109.666 7 -162.999 17
c2 -28.667 7.66699 -78.334 17 -149.001l-11 -10c-24.667 5.33301 -57.667 8 -99 8c-40 0 -73 -2.66699 -99 -8l-11 9zM262.999 76.999c34 0 64.3311 -1.99805 90.998 -5.99805c-8 60 -13.333 109.667 -16 149l11 10c49.333 -10 102.666 -16.333 159.999 -19
c-4 28 -6 58.333 -6 91c0 34 2 64.333 6 91c-62 -8.66699 -115 -14.334 -159 -17.001l-10 10c2.66699 36 7.66699 90.667 15 164c-31.333 -3.33301 -54 -5 -68 -5c-13.333 0 -36.666 1.66699 -69.999 5c1.33301 -18 2 -43 2 -75c0 -35.333 -1.33301 -65 -4 -89l-10 -8
c-46.667 3.33301 -105 8.66602 -175 15.999c3.33301 -23.333 5 -46 5 -68c0 -21.333 -1.66699 -44.666 -5 -69.999c38.667 1.33301 65.334 2 80.001 2c26.667 0 52 -1 76 -3l8 -11c-11.333 -54.667 -18.666 -112.334 -21.999 -173.001c28 4 58.333 6 91 6z" />
    <glyph glyph-name="comma" unicode="," horiz-adv-x="231" 
d="M63 112l21.999 -1c21.333 -2 40 -3 56 -3c16.667 0 36.334 1 59.001 3c11.333 0 20 0.333008 26 1l50 -50l-104 -202c-29.333 2 -47.333 3 -54 3c-10.667 0 -30.667 -1.33301 -60 -4l-50 50zM135.999 90c-8.66699 0 -28.333 0.666992 -59 2l-45 -163
c21.333 1.33301 33 2 35 2c7.33301 0 22.333 -1 45 -3l84 164c-30.667 -1.33301 -50.667 -2 -60 -2z" />
    <glyph glyph-name="period" unicode="." horiz-adv-x="203" 
d="M142 -76c-21.333 0 -42.165 5.83301 -62.498 17.5s-37 27.334 -50 47.001s-19.5 41.5 -19.5 65.5c0 29.333 9.5 54.333 28.5 75s42.833 31 71.5 31c25.333 0 48.166 -6.33301 68.499 -19s36.166 -29.334 47.499 -50.001s17 -42 17 -64c0 -28 -9 -52 -27 -72
c-20 -20.667 -44.667 -31 -74 -31zM151.501 16.5c15 15.667 22.5 34.166 22.5 55.499c0 20 -6.5 36.667 -19.5 50s-29.167 20 -48.5 20c-21.333 0 -39.5 -7.66699 -54.5 -23s-22.5 -33.666 -22.5 -54.999c0 -20.667 6.5 -37.667 19.5 -51s29.5 -20 49.5 -20
c20.667 0 38.5 7.83301 53.5 23.5z" />
    <glyph glyph-name="slash" unicode="/" horiz-adv-x="547" 
d="M384 811c26.667 -6.66699 52.333 -10 77 -10c25.333 0 52 4 80 12l50 -50l-375 -1024c-24.667 6.66699 -51.667 10 -81 10c-38.667 0 -65.667 -5.33301 -81 -16l-50 50zM460.999 783c-22 0 -43.667 2.33301 -65 7l-362 -977c13.333 2.66699 30.333 4 51 4
c24.667 0 47.667 -2.33301 69 -7l359 978c-14.667 -3.33301 -32 -5 -52 -5z" />
    <glyph glyph-name="zero" unicode="0" horiz-adv-x="591" 
d="M176.5 -16.5c-50.333 39 -90.501 91.334 -120.501 157.001s-45 136.167 -45 211.5c0 83.333 13.333 160.333 40 231s62.5 126.834 107.5 168.501s93.833 62.5 146.5 62.5c58.667 0 112.834 -23.333 162.501 -70s89.167 -106 118.5 -178s44 -144 44 -216
c0 -10 -0.666992 -25 -2 -45c-6.66699 -72.667 -23.667 -137.834 -51 -195.501s-61.833 -102.834 -103.5 -135.501s-87.167 -49 -136.5 -49c-56.667 0 -110.167 19.5 -160.5 58.5zM414.999 39.501c39.333 31 71.667 74.167 97 129.5s41.333 118 48 188
c1.33301 11.333 2 28.666 2 51.999c0 64.667 -10.167 126.834 -30.5 186.501s-50 108 -89 145s-84.833 55.5 -137.5 55.5c-49.333 0 -95.166 -20 -137.499 -60s-76 -93.833 -101 -161.5s-37.5 -140.834 -37.5 -219.501c0 -66 11.667 -126.667 35 -182
s54.666 -99.166 93.999 -131.499s82.333 -48.5 129 -48.5c46 0 88.667 15.5 128 46.5zM221 176.501c-20.667 17.667 -36.835 41.667 -48.502 72s-17.5 63.833 -17.5 100.5c0 53.333 5.83301 100.5 17.5 141.5s27.834 73 48.501 96s44.334 34.5 71.001 34.5
c41.333 0 74.333 -21.667 99 -65s37 -102 37 -176c0 -43.333 -6 -82.5 -18 -117.5s-28.5 -62.5 -49.5 -82.5s-44.167 -30 -69.5 -30c-26 0 -49.333 8.83301 -70 26.5zM289.999 168.001c22 0 42.166 9.33398 60.499 28.001s32.833 44 43.5 76s16 67.667 16 107
c0 71.333 -11.333 127 -34 167c-9.33301 4.66699 -20.666 7 -33.999 7c-22.667 0 -43 -10.667 -61 -32s-32.167 -51.333 -42.5 -90s-15.5 -82.667 -15.5 -132c0 -47.333 10 -88 30 -122c8.66699 -4.66699 17 -7.33398 25 -8.00098c2.66699 -0.666992 6.66699 -1 12 -1z" />
    <glyph glyph-name="one" unicode="1" horiz-adv-x="244" 
d="M26 -25l-11 8.99805c0.666992 36.667 2.83398 76.167 6.50098 118.5s7.5 83.5 11.5 123.5c7.33301 68 12.666 124.333 15.999 169s5 92.334 5 143.001c0 36.667 -2.66699 63.167 -8 79.5s-14.666 25.833 -27.999 28.5l-7 11c4 19.333 6 37 6 53
c0 6.66699 -0.666992 15.334 -2 26.001l7 10c54 12.667 98 34.667 132 66l8 2c3.33301 -0.666992 12.333 -1 27 -1c16 0 26.333 0.333008 31 1l10 -9l40 -41l10 -9l-12 -239c-3.33301 -71.333 -5 -136 -5 -194c0 -126.667 6.66699 -255.667 20 -387l-11 -10
c-24.667 6 -57.334 9 -98.001 9c-39.333 0 -72 -3 -98 -9l-11 9zM124 1.99805c30.667 0 60.665 -2.33398 89.998 -7.00098c-12.667 122.667 -19 249 -19 379c0 56.667 1.66699 120.667 5 192l11 229l-21 -1c-8.66699 0 -17.667 0.666992 -27 2c-34 -30 -77 -52 -129 -66
c0.666992 -4 1 -10.667 1 -20c0 -14 -1.66699 -30.333 -5 -49c16.667 -6.66699 27.834 -20.167 33.501 -40.5s8.5 -46.5 8.5 -78.5c0 -52 -1.66699 -101 -5 -147s-8.66602 -103 -15.999 -171c-10 -93.333 -16 -169.666 -18 -228.999c30.667 4.66699 61 7 91 7z" />
    <glyph glyph-name="two" unicode="2" horiz-adv-x="518" 
d="M405 -74l-22.999 0.99707c-57.333 2.66699 -97.666 4 -120.999 4c-42.667 0 -106 -2.33301 -190 -7l-60 60c4 35.333 6 63 6 83c0 21.333 -2 48.333 -6 81l3 7c54 54 102.5 108.833 145.5 164.5s76.833 106.667 101.5 153s37.334 83.5 38.001 111.5
c-22 0.666992 -43.333 -6.16602 -64 -20.499s-34.334 -32.833 -41.001 -55.5l-18 2l-32 48l-18 2c-3.33301 21.333 -15 48.833 -35 82.5s-41.667 58.834 -65 75.501l-1 14c26 23.333 63.667 43 113 59s97.666 24 144.999 24c62.667 0 112.667 -12 150 -36
s69.333 -58.667 96 -104c18.667 -32.667 28 -65 28 -97c0 -25.333 -6 -53 -18 -83s-28.5 -62.5 -49.5 -97.5l-96.5 -153.5l-43 -66c48.667 8.66699 88.667 15.334 120 20.001l10 -11l40 -39l10 -11c-5.33301 -30 -8 -64.333 -8 -103s2.66699 -73 8 -103l-9 -11
c-44.667 2 -83.334 4 -116.001 6zM454.001 82.9971c0 36.667 1.99902 68.335 5.99902 95.002c-48 -6.66699 -95.667 -15.334 -143 -26.001c-30 -6.66699 -56.333 -11.667 -79 -15l-9 14l99 153c61.333 94.667 103.5 163.667 126.5 207s34.5 82.333 34.5 117
c0 29.333 -8.66699 59 -26 89c-15.333 26 -38.166 45.833 -68.499 59.5s-67.5 20.5 -111.5 20.5c-42.667 0 -86.5 -6.83301 -131.5 -20.5s-80.5 -30.834 -106.5 -51.501c19.333 -15.333 37.5 -36 54.5 -62s29.5 -51 37.5 -75c11.333 19.333 27 34.833 47 46.5
s40.333 17.5 61 17.5c16 0 30.333 -3.33301 43 -10c18.667 -10 28 -28 28 -54c0 -46 -26.333 -109.833 -79 -191.5s-122 -165.167 -208 -250.5c4 -32 6 -58 6 -78c0 -16.667 -1.66699 -41.667 -5 -75c77.333 4.66699 137.333 7 180 7c33.333 0 74.333 -1.66699 123 -5
l127 -7c-4 28 -6 59.667 -6 95z" />
    <glyph glyph-name="three" unicode="3" horiz-adv-x="528" 
d="M287 -88c-46.667 0 -88.999 7.16406 -126.999 21.4971s-70 32.166 -96 53.499l-50 50l1 15c26 16 50 40.833 72 74.5s35 61.5 39 83.5l16 3c15.333 -19.333 32.5 -33.666 51.5 -42.999s37.833 -14 56.5 -14c15.333 0 29.5 3 42.5 9s22.167 13.667 27.5 23
c8 13.333 12 25.666 12 36.999c0 4.66699 -0.333008 8.33398 -1 11.001c-28.667 12 -64 18.333 -106 19l-50 50v188c52.667 1.33301 92 8.83301 118 22.5s37 32.5 33 56.5c-7.33301 2 -15 3 -23 3c-19.333 0 -38.666 -5 -57.999 -15s-37 -25 -53 -45l-16 3l-34 47l-16 3
c-4 24.667 -17.667 53.5 -41 86.5s-46.666 56.833 -69.999 71.5l-1 15c25.333 21.333 57.666 39.166 96.999 53.499s83 21.5 131 21.5c64 0 120.667 -13.167 170 -39.5s87.5 -61 114.5 -104s40.5 -88.833 40.5 -137.5c0 -33.333 -7 -66.166 -21 -98.499
s-35 -62.166 -63 -89.499c26.667 -27.333 47.167 -58.166 61.5 -92.499s21.5 -69.166 21.5 -104.499c0 -40 -9.16699 -77.333 -27.5 -112s-46.333 -63.167 -84 -85.5s-83.834 -35.5 -138.501 -39.5c-6.66699 -0.666992 -16.334 -1 -29.001 -1zM383.001 9.99707
c39.333 20 68.667 46.6719 88 80.0049s29 69.666 29 108.999c0 34 -7.33301 67.833 -22 101.5s-36 63.5 -64 89.5v14c28 24.667 49.333 53.167 64 85.5s22 65.166 22 98.499c0 37.333 -9.66699 72 -29 104s-48.833 57.667 -88.5 77s-88.167 29 -145.5 29
c-38 0 -74.333 -5.5 -109 -16.5s-65.667 -26.5 -93 -46.5c22.667 -16.667 43.667 -39.334 63 -68.001s33 -54.667 41 -78c16 17.333 34.167 30.166 54.5 38.499s40.5 12.5 60.5 12.5c19.333 0 36.5 -3.66699 51.5 -11s25.167 -17.333 30.5 -30c6 -12.667 9 -25 9 -37
c0 -25.333 -13.167 -45.5 -39.5 -60.5s-63.833 -23.833 -112.5 -26.5v-152c48 -2.66699 86.333 -13.167 115 -31.5s43 -40.833 43 -67.5c0 -14.667 -5 -30 -15 -46c-7.33301 -11.333 -18.833 -20.5 -34.5 -27.5s-33.167 -10.5 -52.5 -10.5s-38.5 4 -57.5 12
s-36.5 20.333 -52.5 37c-8 -23.333 -21.667 -49.333 -41 -78s-40.333 -51.334 -63 -68.001c27.333 -20 58.333 -35.5 93 -46.5s71 -16.5 109 -16.5c58 0 106.667 10 146 30z" />
    <glyph glyph-name="four" unicode="4" horiz-adv-x="551" 
d="M296 -25l-10.998 8.99902l3 66c-60.667 0 -136.334 -2.66699 -227.001 -8l-10 10l-30 40l-10 10c4 35.333 6 63 6 83c0 21.333 -2 48.333 -6 81l3 7c53.333 54 109 133.5 167 238.5s106.333 203.833 145 296.5l9 6c37.333 -4.66699 64 -7 80 -7
c17.333 0 43.333 2.33301 78 7l10 -10l30 -40l10 -10c-12 -146.667 -18 -293 -18 -439l18 3l40 -50c-7.33301 -27.333 -11 -66.666 -11 -117.999c0 -48 3.33301 -85.333 10 -112l-48 2c2 -37.333 5 -72.333 9 -105l-11 -10c-24.667 6 -57.334 9 -98.001 9
c-39.333 0 -72 -3 -98 -9l-11 9zM394.002 1.99902c30 0 59.999 -2.33496 89.999 -7.00195c-2.66699 25.333 -6 63 -10 113l46 -2c-4 28 -6 59.667 -6 95c0 36.667 2 68.334 6 95.001l-52 -7c-0.666992 20 -1 50.333 -1 91c0 134.667 5.66699 273 17 415
c-26 -4 -49.333 -6 -70 -6s-45.334 2 -74.001 6c-47.333 -111.333 -100.166 -217.166 -158.499 -317.499s-110.166 -173.833 -155.499 -220.5c6.66699 -32.667 10 -58 10 -76c0 -14.667 -2 -38 -6 -70c84 4.66699 153 7 207 7c28.667 0 50 -0.333008 64 -1l9 -10
c-2 -22 -4.33301 -59.333 -7 -112c30.667 4.66699 61 7 91 7zM244.001 315.997l78 178l17 -4c-2.66699 -52 -8 -125.333 -16 -220l-8 -8l-75 -9l-24 -3c12 29.333 21.333 51.333 28 66z" />
    <glyph glyph-name="five" unicode="5" horiz-adv-x="539" 
d="M270 -76c-39.333 0 -76.832 6.49902 -112.499 19.499s-66.834 31.5 -93.501 55.5l-50 50l1 14c24 16.667 46 41.667 66 75s32 61.333 36 84l16 3c14 -19.333 31 -33.833 51 -43.5s40.667 -14.5 62 -14.5c28 0 51.833 8 71.5 24s29.5 38 29.5 66c0 4 -0.333008 7 -1 9
c-26 11.333 -55.333 17 -88 17c-40.667 0 -93 -10.667 -157 -32l-12 8l-38 42l-12 8c2 41.333 4 79.666 6 114.999l1 23l2 36c2 25.333 3 51 3 77l-41 39c4.66699 37.333 7 68.666 7 93.999c0 22 -2 50 -6 84l10 10c45.333 -6 90 -9 134 -9c29.333 0 56.333 1.33301 81 4
s54.667 6.66699 90 12c54 8.66699 106.333 15.334 157 20.001l10 -11l40 -39l10 -11c-5.33301 -30 -8 -62.667 -8 -98s2.66699 -68 8 -98l-10 -11c-86 12 -157 18 -213 18c-24.667 0 -43.667 -0.333008 -57 -1c-0.666992 -6.66699 -1.33398 -14.167 -2.00098 -22.5
s-1 -17.166 -1 -26.499c60.667 -2 115.334 -17.333 164.001 -46s86.5 -66.667 113.5 -114s40.5 -98.666 40.5 -153.999c0 -48.667 -12 -93 -36 -133s-57.333 -72.667 -100 -98s-91 -40 -145 -44c-6 -0.666992 -15 -1 -27 -1zM368.501 25.999
c44.333 22.667 79.002 53.6621 104.002 92.9951s37.5 83 37.5 131c0 83.333 -26.667 146.333 -80 189s-129.666 62 -228.999 58l-9 9c-0.666992 6.66699 -1 16.667 -1 30c0 20 1.66699 49 5 87l9 8c14 0.666992 34 1 60 1c53.333 0 122.666 -5.33301 207.999 -16
c-4 27.333 -6 57.333 -6 90s2 62.334 6 89.001c-42.667 -4 -91 -10.333 -145 -19c-38 -6 -68.667 -10.333 -92 -13s-49.333 -4 -78 -4c-35.333 0 -78 3 -128 9c3.33301 -23.333 5 -47.666 5 -72.999s-1.66699 -50.666 -5 -75.999l38 3c0.666992 -14 1 -32.333 1 -55
c0 -32.667 -1.66699 -73 -5 -121c-2 -35.333 -4 -76.666 -6 -123.999c58 18.667 106 28 144 28c46.667 0 85.5 -8.66699 116.5 -26s46.5 -39.666 46.5 -66.999c0 -33.333 -11.5 -59.833 -34.5 -79.5s-51.167 -29.5 -84.5 -29.5c-20.667 0 -41.334 4.5 -62.001 13.5
s-38.667 21.833 -54 38.5c-8 -24 -20.833 -50 -38.5 -78s-36.834 -50.333 -57.501 -67c24.667 -20 53 -35.5 85 -46.5s65.667 -16.5 101 -16.5c54.667 0 104.167 11.333 148.5 34z" />
    <glyph glyph-name="six" unicode="6" horiz-adv-x="500" 
d="M143 -20c-42.667 36.667 -75.3301 87.333 -97.9971 152s-34 138 -34 220c0 18.667 0.333008 33 1 43c6 126 28.333 228.167 67 306.5s108.334 115.833 209.001 112.5c35.333 -1.33301 69.166 -13.166 101.499 -35.499s60.166 -50.333 83.499 -84
s41.333 -68.167 54 -103.5l-8 -12c-19.333 -1.33301 -42.166 -9.83301 -68.499 -25.5s-46.833 -32.834 -61.5 -51.501l-16 4l-50 50l-2 7c-16.667 -4 -30.334 -18.333 -41.001 -43c5.33301 0 13.333 -0.666992 24 -2c48.667 -6.66699 90.167 -25.167 124.5 -55.5
s60.166 -67.666 77.499 -111.999s26 -90.833 26 -139.5c0 -50 -9.16699 -96.833 -27.5 -140.5s-45.333 -78.834 -81 -105.501s-78.834 -40 -129.501 -40c-58 0 -108.333 18.333 -151 55zM368.004 31.999c34.667 26 60.8291 59.6689 78.4961 101.002s26.5 85 26.5 131
c0 60 -14.833 112.5 -44.5 157.5s-71.834 71.167 -126.501 78.5c-10.667 1.33301 -18.667 2 -24 2c-24 0 -49 -4.66699 -75 -14l-12 9c14 89.333 43.667 134 89 134c26.667 0 45.334 -18.333 56.001 -55c16 16.667 35.333 31.5 58 44.5s43.334 21.167 62.001 24.5
c-18 48 -41.667 85.167 -71 111.5s-61.666 39.5 -96.999 39.5c-65.333 0 -116.333 -18.5 -153 -55.5s-62.167 -84.167 -76.5 -141.5s-23.833 -125.333 -28.5 -204c-0.666992 -10.667 -1 -26 -1 -46c0 -70.667 8.83301 -132.834 26.5 -186.501
s42.834 -95.334 75.501 -125.001s70.334 -44.5 113.001 -44.5c48 0 89.333 13 124 39zM206.499 162.501c-15.667 27 -23.5 57.833 -23.5 92.5c0 32.667 7.16699 60.5 21.5 83.5s34.833 34.5 61.5 34.5c23.333 0 41.5 -13 54.5 -39s19.5 -56.333 19.5 -91
c0 -33.333 -6.16699 -61.833 -18.5 -85.5s-29.833 -35.5 -52.5 -35.5c-26 0 -46.833 13.5 -62.5 40.5zM308.999 170.001c9.33301 20 14 44.002 14 72.002c0 23.333 -3 44.333 -9 63c-21.333 -0.666992 -37.166 -8.83398 -47.499 -24.501s-15.5 -35.834 -15.5 -60.501
c0 -25.333 5 -52 15 -80h3c17.333 0 30.666 10 39.999 30z" />
    <glyph glyph-name="seven" unicode="7" horiz-adv-x="476" 
d="M260 569c-48 -2 -115.665 -8.99805 -202.998 -20.998l-50 50c4.66699 10.667 8.33398 25.5 11.001 44.5s4 38.833 4 59.5c0 32 -3.33301 56.667 -10 74l8 12l25 -1c42 -2 79.333 -3 112 -3c53.333 0 101.166 2 143.499 6s98.5 10.667 168.5 20
c5.33301 1.33301 14 2.66602 26 3.99902l9 -12l41 -38l9 -12c-12 -32.667 -35.833 -114.834 -71.5 -246.501s-67.334 -256 -95.001 -373s-39.834 -182.5 -36.501 -196.5l-11 -11c-21.333 5.33301 -53.333 8 -96 8c-50 0 -88.333 -3.66699 -115 -11l-50 50zM197.002 2.00195
c30.667 0 59.332 -2.33398 85.999 -7.00098c2 32 16.167 103 42.5 213s55.5 224.333 87.5 343s55.333 199.667 70 243c-77.333 -10.667 -137.666 -18 -180.999 -22s-93.333 -6 -150 -6c-35.333 0 -75.333 1 -120 3c5.33301 -20 8 -43.333 8 -70
c0 -29.333 -2.66699 -55.666 -8 -78.999c79.333 10.667 146 16 200 16c29.333 0 51.666 -0.666992 66.999 -2l-194 -639c32.667 4.66699 63.334 7 92.001 7z" />
    <glyph glyph-name="eight" unicode="8" horiz-adv-x="536" 
d="M160 -40.5c-46 23 -82.667 54.168 -110 93.501s-41 82 -41 128c0 50 17 99.333 51 148c18.667 26 47 57.333 85 94c-14 14 -23.667 24.333 -29 31c-30 25.333 -51.833 49.5 -65.5 72.5s-20.5 50.5 -20.5 82.5c0 36.667 10.167 70.667 30.5 102s48 56.333 83 75
s72.833 28 113.5 28c54.667 0 104.834 -12.333 150.501 -37s81.834 -56.5 108.501 -95.5s40 -79.167 40 -120.5c0 -32 -7.83301 -62 -23.5 -90s-42.834 -61 -81.501 -99c33.333 -32.667 61.333 -67 84 -103c27.333 -44 41 -87.667 41 -131
c0 -39.333 -11.167 -75.333 -33.5 -108s-53.833 -58.334 -94.5 -77.001s-87.334 -28 -140.001 -28s-102 11.5 -148 34.5zM388.5 18.501c37.667 17 66.8311 40.3359 87.498 70.0029s31 62.834 31 99.501c0 40.667 -12.667 81 -38 121
c-23.333 39.333 -52.333 74.666 -87 105.999v13c39.333 38 66.833 70.667 82.5 98s23.5 56 23.5 86c0 33.333 -10.167 64.166 -30.5 92.499s-48.166 50.666 -83.499 66.999s-74.333 24.5 -117 24.5c-37.333 0 -72.166 -8.5 -104.499 -25.5s-57.833 -39.667 -76.5 -68
s-28 -59.166 -28 -92.499c0 -24.667 4.16699 -45.834 12.5 -63.501s20.5 -34.5 36.5 -50.5s40 -36.667 72 -62v-14c-44 -40 -75.667 -73.667 -95 -101c-30 -42.667 -45 -86.334 -45 -131.001c0 -36 9.5 -68.833 28.5 -98.5s45.833 -53.167 80.5 -70.5s74.667 -26 120 -26
c49.333 0 92.833 8.5 130.5 25.5zM212.997 562.504c-7.33301 15 -10.999 30.832 -10.999 47.499c0 19.333 6.66699 34.333 20 45s29 16 47 16c17.333 0 32.166 -4.83301 44.499 -14.5s18.5 -23.167 18.5 -40.5c0 -16 -4.5 -31.667 -13.5 -47s-25.167 -33.666 -48.5 -54.999
h-13c-22 17.333 -36.667 33.5 -44 48.5zM312.998 603.003c-12 -1.33301 -22.168 -5.66699 -30.501 -13s-12.5 -17 -12.5 -29c0 -5.33301 0.666992 -12 2 -20c24.667 25.333 38.334 46 41.001 62zM213.997 272.502c11.333 11.667 29.667 28.832 55 51.499l13 -1l58 -77
c12 -16.667 18 -32.334 18 -47.001c0 -19.333 -9.66699 -34.5 -29 -45.5s-42 -16.5 -68 -16.5c-24.667 0 -45.667 5 -63 15s-26 24.333 -26 43c0 12.667 5 27.334 15 44.001c6.66699 10.667 15.667 21.834 27 33.501zM261.998 154c20 0 37.833 4.16797 53.5 12.501
s23.5 20.166 23.5 35.499c0 10 -4.33301 21.333 -13 34l-9 12c-32 -28.667 -53.333 -51.667 -64 -69c-6 -10.667 -9.33301 -18.667 -10 -24c4 -0.666992 10.333 -1 19 -1z" />
    <glyph glyph-name="nine" unicode="9" horiz-adv-x="491" 
d="M164 -42.5c-32.667 21.667 -61.998 49.8311 -87.998 84.498s-44.667 69.667 -56 105l7 12c20 1.33301 43 9.83301 69 25.5s46.333 32.834 61 51.501l16 -4c4.66699 -18.667 11.167 -33 19.5 -43s17.5 -15 27.5 -15c18 0 33.667 14.667 47 44
c-5.33301 0 -13.333 0.666992 -24 2c-51.333 7.33301 -94.833 25.333 -130.5 54s-62.167 64 -79.5 106s-26 86.667 -26 134c0 51.333 10.167 100 30.5 146s49.666 83.167 87.999 111.5s83.833 42.5 136.5 42.5c53.333 0 100.166 -19.667 140.499 -59
s71.5 -90.833 93.5 -154.5s33 -130.5 33 -200.5c0 -19.333 -1 -38.666 -3 -57.999c-8.66699 -88 -19.667 -160 -33 -216s-38.333 -103.5 -75 -142.5s-90 -58.5 -160 -58.5c-30 0 -61.333 10.833 -94 32.5zM356.502 47.9971c34.333 36.667 57.668 81.667 70.001 135
s22.833 123.666 31.5 210.999c2.66699 24 4 50.333 4 79c0 64.667 -8.16699 121.334 -24.5 170.001s-39.5 86.334 -69.5 113.001s-65.333 40 -106 40c-48.667 0 -90.834 -13.5 -126.501 -40.5s-62.667 -61.833 -81 -104.5s-27.5 -87.334 -27.5 -134.001
c0 -58.667 14.5 -109.667 43.5 -153s70.5 -68.666 124.5 -75.999c5.33301 -0.666992 13.333 -1 24 -1c26.667 0 51.667 4.66699 75 14l12 -9c-14 -90 -43.667 -135 -89 -135c-26.667 0 -45.667 18.333 -57 55c-15.333 -16.667 -34.333 -31.5 -57 -44.5
s-43.667 -21.167 -63 -24.5c18.667 -48.667 42.5 -85.834 71.5 -111.501s61.167 -38.5 96.5 -38.5c64.667 0 114.167 18.333 148.5 55zM179.504 450.997c-12.333 24 -18.499 52.667 -18.499 86c0 34.667 6.66699 64.834 20 90.501s32 38.5 56 38.5
c21.333 0 38.666 -10.167 51.999 -30.5s22 -49.833 26 -88.5c2.66699 -44.667 -2.83301 -77.834 -16.5 -99.501s-36.167 -32.5 -67.5 -32.5c-22 0 -39.167 12 -51.5 36zM283.005 456.997c10 14.667 15 37.667 15 69c0 21.333 -3.66699 45.333 -11 72
c-18.667 0 -33 -11 -43 -33s-15 -48 -15 -78c0 -17.333 2.33301 -35.333 7 -54c21.333 1.33301 37 9.33301 47 24z" />
    <glyph glyph-name="colon" unicode=":" horiz-adv-x="203" 
d="M87 341.5c-22 10.333 -40.499 26.333 -55.499 48s-21.833 48.167 -20.5 79.5c1.33301 25.333 11.166 47 29.499 65s40.166 27 65.499 27c24 0 46.333 -7.66699 67 -23s37.334 -33.833 50.001 -55.5s19 -41.5 19 -59.5c0 -26.667 -9.33301 -49.5 -28 -68.5
s-40.667 -28.5 -66 -28.5c-18.667 0 -39 5.16699 -61 15.5zM151.501 417.5c15 15.667 22.5 34.166 22.5 55.499c0 20 -6.5 36.667 -19.5 50s-29.167 20 -48.5 20c-21.333 0 -39.5 -7.66699 -54.5 -23s-22.5 -33.666 -22.5 -54.999c0 -20.667 6.5 -37.667 19.5 -51
s29.5 -20 49.5 -20c20.667 0 38.5 7.83301 53.5 23.5zM88.001 -60.001c-21.333 10 -39.501 25.5 -54.501 46.5s-22.5 46.5 -22.5 76.5c0 26.667 9.16699 49.5 27.5 68.5s40.833 28.5 67.5 28.5c24 0 46.333 -7.66699 67 -23s37.334 -33.833 50.001 -55.5s19 -41.5 19 -59.5
c0 -26.667 -9.33301 -49.5 -28 -68.5s-40.667 -28.5 -66 -28.5c-18.667 0 -38.667 5 -60 15zM151.5 16.499c15 15.667 22.5 34.167 22.5 55.5c0 20 -6.5 36.667 -19.5 50s-29.167 20 -48.5 20c-21.333 0 -39.5 -7.5 -54.5 -22.5s-22.5 -33.5 -22.5 -55.5
c0 -20.667 6.5 -37.667 19.5 -51s29.5 -20 49.5 -20c20.667 0 38.5 7.83301 53.5 23.5z" />
    <glyph glyph-name="semicolon" unicode=";" horiz-adv-x="273" 
d="M152.5 341c-20.333 10 -37.335 25.834 -51.002 47.501s-20.5 48.5 -20.5 80.5c0 25.333 9.33301 47 28 65s41 27 67 27s49.333 -7.33301 70 -22s36.834 -32.834 48.501 -54.501s17.5 -42.167 17.5 -61.5c0 -27.333 -9.83301 -50.333 -29.5 -69s-43.167 -28 -70.5 -28
c-19.333 0 -39.166 5 -59.499 15zM221.498 417.501c15 15.667 22.5 34.166 22.5 55.499c0 20 -6.5 36.667 -19.5 50s-29.167 20 -48.5 20c-21.333 0 -39.5 -7.66699 -54.5 -23s-22.5 -33.666 -22.5 -54.999c0 -20.667 6.5 -37.667 19.5 -51s29.5 -20 49.5 -20
c20.667 0 38.5 7.83301 53.5 23.5zM62.998 112l21.999 -1c21.333 -2 40 -3 56 -3c16.667 0 36.334 1 59.001 3c11.333 0 20 0.333008 26 1l50 -50l-104 -202c-29.333 2 -47.333 3 -54 3c-10.667 0 -30.667 -1.33301 -60 -4l-50 50zM135.997 90
c-8.66699 0 -28.333 0.666992 -59 2l-45 -163c21.333 1.33301 33 2 35 2c7.33301 0 22.333 -1 45 -3l84 164c-30.667 -1.33301 -50.667 -2 -60 -2z" />
    <glyph glyph-name="equal" unicode="=" 
d="M472 25.5c-26 3.66699 -61.334 9.49902 -106.001 17.499c-41.333 7.33301 -76.333 12.833 -105 16.5s-63.334 5.5 -104.001 5.5c-25.333 0 -54 -1 -86 -3l-60 60c4 35.333 6 60 6 74c0 15.333 -2 39.333 -6 72l10 10c71.333 -8 126.333 -13.5 165 -16.5
s73.334 -4.5 104.001 -4.5c42.667 0 95.334 4 158.001 12c-20 2.66699 -47.333 7.33398 -82 14.001c-41.333 7.33301 -76.333 12.833 -105 16.5s-63.334 5.5 -104.001 5.5c-25.333 0 -54 -1 -86 -3l-60 60c4 35.333 6 60 6 74c0 15.333 -2 39.333 -6 72l10 10
c74.667 -7.33301 130.667 -12.5 168 -15.5s71.333 -4.5 102 -4.5s61.834 1.5 93.501 4.5s76.5 8.16699 134.5 15.5l10 -11l40 -39l10 -11c-5.33301 -30 -8 -61.333 -8 -94s2.66699 -64 8 -94l-9 -11l-42 2l41 -32l10 -11c-5.33301 -30 -8 -61.333 -8 -94s2.66699 -64 8 -94
l-9 -11c-39.333 1.33301 -72 3.83301 -98 7.5zM502.999 411.999c0 31.333 2.00195 60.001 6.00195 86.001c-55.333 -7.33301 -98 -12.333 -128 -15s-59.667 -4 -89 -4c-30 0 -63.5 1.5 -100.5 4.5s-90.833 8.16699 -161.5 15.5c3.33301 -22.667 5 -43.667 5 -63
s-1.66699 -41 -5 -65c19.333 1.33301 45.333 2 78 2c41.333 0 77.166 -1.83301 107.499 -5.5s65.166 -9.5 104.499 -17.5c34.667 -6.66699 65.667 -11.834 93 -15.501s59.333 -6.5 96 -8.5c-4 27.333 -6 56 -6 86zM503.001 172c0 31.333 2.00195 60.001 6.00195 86.001
c-55.333 -7.33301 -98 -12.333 -128 -15s-59.667 -4 -89 -4c-30 0 -63.5 1.5 -100.5 4.5s-90.833 8.16699 -161.5 15.5c3.33301 -22.667 5 -43.667 5 -63s-1.66699 -41 -5 -65c19.333 1.33301 45.333 2 78 2c41.333 0 77.166 -1.83301 107.499 -5.5
s65.166 -9.5 104.499 -17.5c34.667 -6.66699 65.667 -11.834 93 -15.501s59.333 -6.5 96 -8.5c-4 27.333 -6 56 -6 86z" />
    <glyph glyph-name="question" unicode="?" horiz-adv-x="510" 
d="M165 349l115.999 180.999c16 22.667 24.667 43.334 26 62.001c-14.667 -2.66699 -28 -11.167 -40 -25.5s-20 -33.5 -24 -57.5l-13 -7c-6.66699 4 -32 6 -76 6s-70.667 -2 -80 -6l-13 9l-37 41l-13 9c4 54.667 20.833 101.167 50.5 139.5s64.834 66.833 105.501 85.5
s80 28 118 28c50 0 94.833 -10.667 134.5 -32s70.334 -50 92.001 -86s32.5 -75 32.5 -117c0 -41.333 -10.667 -81.333 -32 -120l-130 -200l13 -111c-32.667 9.33301 -65.334 14 -98.001 14c-31.333 0 -63 -4.66699 -95 -14l-50 50zM247.999 229.999
c27.333 0 53.001 -2.66797 77.001 -8.00098l-11 91l132 206c23.333 42.667 35 82.334 35 119.001c0 48 -18.667 86.333 -56 115s-84 43 -140 43c-34.667 0 -70.667 -8.16699 -108 -24.5s-69.666 -41.333 -96.999 -75s-44 -75.167 -50 -124.5c15.333 2.66699 39.333 4 72 4
c36 0 61 -1.66699 75 -5c6 28 17.667 49.667 35 65s35.666 23 54.999 23c16.667 0 30.667 -5.33301 42 -16s17 -25 17 -43c0 -23.333 -10.333 -50 -31 -80l-112 -177l-11 -121c23.333 5.33301 48.666 8 75.999 8zM227.5 -74.502c-21 11 -38.167 26.666 -51.5 46.999
s-20 43.833 -20 70.5c0 28 9.16699 51.833 27.5 71.5s40.833 29.5 67.5 29.5c30 0 55.167 -7.33301 75.5 -22s35.5 -32.5 45.5 -53.5s15 -41.167 15 -60.5c0 -27.333 -9.16699 -50.666 -27.5 -69.999s-40.5 -29 -66.5 -29c-22.667 0 -44.5 5.5 -65.5 16.5zM296.5 0.49707
c15 15.667 22.5 34.166 22.5 55.499c0 20 -6.5 36.667 -19.5 50s-29.167 20 -48.5 20c-21.333 0 -39.5 -7.66699 -54.5 -23s-22.5 -33.666 -22.5 -54.999c0 -20.667 6.5 -37.667 19.5 -51s29.5 -20 49.5 -20c20.667 0 38.5 7.83301 53.5 23.5z" />
    <glyph glyph-name="at" unicode="@" horiz-adv-x="919" 
d="M426 -255c-83.333 0 -156.171 16.999 -218.504 50.999s-110.666 83.167 -144.999 147.5s-51.5 140.833 -51.5 229.5c0 102.667 24.5 203.167 73.5 301.5s115 178.666 198 240.999s172.833 93.5 269.5 93.5c62 0 118.667 -12.167 170 -36.5s94.333 -57.333 129 -99
s60.334 -88.834 77.001 -141.501c20 -62 30 -133 30 -213c0 -62 -6.66699 -121.667 -20 -179s-33.666 -107 -60.999 -149c-24.667 -38.667 -54 -66.5 -88 -83.5s-74.667 -24.167 -122 -21.5c-24 2 -50.833 12.667 -80.5 32s-51.5 44.333 -65.5 75
c-28 -8 -55.667 -12 -83 -12c-36 0 -69.333 6.66699 -100 20s-55 32.5 -73 57.5s-27 53.833 -27 86.5c0 20.667 3.33301 41.334 10 62.001c18.667 56.667 49.334 98.334 92.001 125.001l-44 16l-12 11c16 67.333 43 120.5 81 159.5s84.667 61.833 140 68.5
c13.333 1.33301 22.666 2 27.999 2c52.667 0 95.834 -16.5 129.501 -49.5s55.834 -72.833 66.501 -119.5c2 -8 3 -19 3 -33c0 -29.333 -6 -86.666 -18 -171.999l-4 -29l-10 -77c1.33301 4 3.33301 8.83301 6 14.5s5.66699 12.834 9 21.501
c11.333 33.333 20.166 72.666 26.499 117.999s9.5 90 9.5 134c0 31.333 -1.33301 57.333 -4 78c-6 50 -17.333 89.333 -34 118c-28 16 -67.667 24 -119 24c-98 -0.666992 -179 -35.5 -243 -104.5s-108 -164.5 -132 -286.5c-7.33301 -38 -11 -71.333 -11 -100
c0 -54.667 11.333 -100 34 -136c32.667 -20 71.334 -30 116.001 -30c29.333 0 62.666 4.66699 99.999 14l11 -7l50 -50c4.66699 -26 11.834 -51.667 21.501 -77s20.167 -47.333 31.5 -66l-6 -14c-48.667 -10 -95.334 -15 -140.001 -15zM452.995 -46.001
c-34 -8 -65.666 -12 -94.999 -12c-69.333 0 -123 20.333 -161 61s-57 98.334 -57 173.001c0 30.667 3.66699 65.334 11 104.001c15.333 81.333 41.833 152.5 79.5 213.5s83.5 108.167 137.5 141.5s112.667 50 176 50c70 0.666992 121.833 -15 155.5 -47
s55.5 -85.667 65.5 -161c2.66699 -21.333 4 -47.666 4 -78.999c0 -46 -3.16699 -92.167 -9.5 -138.5s-15.833 -86.5 -28.5 -120.5c-11.333 -31.333 -22.833 -53.333 -34.5 -66s-26.167 -19.334 -43.5 -20.001c-10.667 0 -18 2.33301 -22 7s-6 13 -6 25
c0 5.33301 1.33301 23.333 4 54c2 16.667 6.33301 50 13 100l5 36c11.333 76.667 17 130 17 160c0 12.667 -1 23 -3 31c-8.66699 35.333 -23.334 61.5 -44.001 78.5s-48.667 25.5 -84 25.5c-56 0 -103.5 -17.167 -142.5 -51.5s-67.167 -83.833 -84.5 -148.5
c25.333 7.33301 50 11 74 11c16 0 29.667 -1.33301 41 -4c6 19.333 16 34 30 44s29 15 45 15c16.667 0 30.834 -5.66699 42.501 -17s18.167 -27.333 19.5 -48l-9 -9c-84 -2.66699 -148.333 -16.834 -193 -42.501s-74.667 -65.167 -90 -118.5c-5.33301 -16.667 -8 -34 -8 -52
c0 -33.333 11.667 -58.666 35 -75.999s53.666 -26 90.999 -26s75 8 113 24l12 -7c3.33301 -22.667 11.333 -42.167 24 -58.5s27 -28.833 43 -37.5s30.333 -13.334 43 -14.001c43.333 -2.66699 80.5 3.83301 111.5 19.5s57.833 41.5 80.5 77.5
c26 40.667 45.667 88.667 59 144s20 113 20 173c0 78 -10 147.333 -30 208c-20.667 69.333 -57.667 122.5 -111 159.5s-119 55.5 -197 55.5c-92 0 -177.5 -28.833 -256.5 -86.5s-142.5 -132.5 -190.5 -224.5s-73.333 -187 -76 -285c-4 -124.667 22.667 -219.834 80 -285.501
s142 -98.5 254 -98.5c45.333 0 91 4.66699 137 14c-21.333 38 -37 81 -47 129zM420.496 232.999c24.333 14.667 51.166 21.999 80.499 21.999c13.333 0 26 -2 38 -6l-12 -54c-6 -15.333 -17.667 -27.333 -35 -36s-35.333 -13 -54 -13c-15.333 0 -28.166 3.33301 -38.499 10
s-15.5 15.667 -15.5 27c0 18.667 12.167 35.334 36.5 50.001z" />
    <glyph glyph-name="A" unicode="A" horiz-adv-x="626" 
d="M428 -25l-11.002 6.99805c-12 42.667 -24 91.667 -36 147l-30 1c-9.33301 0 -26.666 -0.666992 -51.999 -2c-10.667 -51.333 -24 -105.666 -40 -162.999l-11 -7c-22.667 6 -53 9 -91 9c-40 0 -75 -3 -105 -9l-10 13l-40 37l-10 13c30.667 72.667 63.667 163.167 99 271.5
s65.666 211 90.999 308s39.333 165.5 42 205.5l10 8c35.333 -4.66699 61 -7 77 -7c16.667 0 43.667 2.33301 81 7l10 -8l40 -42l10 -8c2 -30 10.333 -77.667 25 -143s33.334 -138.666 56.001 -219.999l51 12l50 -50c-2.66699 -14 -4 -34 -4 -60c0 -32 2.16699 -65 6.5 -99
s9.83301 -60.667 16.5 -80l-35 -2c20.667 -60 42.667 -118.667 66 -176l-10 -13c-30 6 -65 9 -105 9c-37.333 0 -67.666 -3 -90.999 -9l-11 7zM519.998 2.99805c29.333 0 59.6689 -2.33398 91.002 -7.00098c-23.333 56 -45.666 117.333 -66.999 184l36 2
c-5.33301 22.667 -9.66602 48.834 -12.999 78.501s-5 58.167 -5 85.5c0 16 0.333008 27.667 1 35l-76 -18c-26.667 92 -49.5 177.5 -68.5 256.5s-30.167 137.5 -33.5 175.5c-28 -4 -52.667 -6 -74 -6c-20.667 0 -44 2 -70 6c-4 -44 -18.333 -112.5 -43 -205.5
s-53.834 -191.333 -87.501 -295s-65.5 -192.167 -95.5 -265.5c31.333 4.66699 61.666 7 90.999 7c33.333 0 62.666 -2.66699 87.999 -8c18 67.333 31 121 39 161l8 7c26.667 1.33301 45 2 55 2c27.333 0 55 -1.66699 83 -5l8 -7c14.667 -74 29.667 -137.667 45 -191
c25.333 5.33301 54.666 8 87.999 8zM285.001 431.997c3.33301 18.667 9 46 17 82h18c6 -27.333 16.333 -77.333 31 -150l4 -22c-14.667 -1.33301 -41 -2 -79 -2l-9 11z" />
    <glyph glyph-name="B" unicode="B" horiz-adv-x="547" 
d="M43 270l3.00195 32c9.33301 115.333 15.333 207 18 275l-54 49c4.66699 38 7 71 7 99c0 27.333 -2.33301 59.333 -7 96l303 7c46 0 87.667 -12 125 -36s66.666 -55.667 87.999 -95s32 -81 32 -125c0 -50.667 -13.667 -96.667 -41 -138
c22.667 -22.667 39.667 -50.667 51 -84s17 -69 17 -107c0 -50.667 -9.5 -99.667 -28.5 -147s-46.5 -86 -82.5 -116s-78.333 -45 -127 -45h-273l-50 50c1.33301 64.667 7.66602 159.667 18.999 285zM415.502 44.5c33.667 27.667 59.334 63.667 77.001 108
s26.5 90.166 26.5 137.499c0 38 -5.83301 73.333 -17.5 106s-29.167 59.334 -52.5 80.001l-1 12c15.333 22.667 27.166 46.667 35.499 72s12.5 50.333 12.5 75c0 50 -15.667 91.667 -47 125s-76.666 50 -135.999 50l-283 -7c3.33301 -24 5 -49.667 5 -77
c0 -26 -1.66699 -52 -5 -78l54 7c-0.666992 -57.333 -2.83398 -113.833 -6.50098 -169.5s-9.16699 -128.167 -16.5 -217.5l-2 -25c-9.33301 -116.667 -15 -196.667 -17 -240h255c45.333 0 84.833 13.833 118.5 41.5zM212.002 621l1.99902 46.001l8 9
c37.333 5.33301 63 8 77 8c18.667 0 33.834 -6.33301 45.501 -19s17.5 -29 17.5 -49c0 -30.667 -8.5 -53.334 -25.5 -68.001s-43.833 -23 -80.5 -25l-38 -3l-10 9zM327.001 565.001c10 10.667 15.667 26.333 17 47v4c-11.333 0 -32 -2.33301 -62 -7
c-1.33301 -17.333 -2 -30.333 -2 -39l-1 -26c22 3.33301 38 10.333 48 21zM206.001 383c24.667 0 40.667 0.333008 48 1h60c22.667 0 40 -9.5 52 -28.5s18 -42.5 18 -70.5c0 -32.667 -8 -62.667 -24 -90s-37.333 -43 -64 -47l-75 -4l-9 8c-4 74 -6 151 -6 231zM346.501 207
c13 24 19.5 50.333 19.5 79c0 10 -1 20 -3 30h-59c-4.66699 -0.666992 -14.667 -1 -30 -1c0 -52 1 -102 3 -150l17 1c22 3.33301 39.5 17 52.5 41z" />
    <glyph glyph-name="C" unicode="C" horiz-adv-x="574" 
d="M502 -45c-40 -20 -81.6709 -30.0029 -125.004 -30.0029c-63.333 0 -124 19.667 -182 59s-104 92.833 -138 160.5s-49 141.5 -45 221.5c4.66699 84.667 24.334 161 59.001 229s78.5 121.167 131.5 159.5s108.167 57.5 165.5 57.5c68 0 129.667 -27.333 185 -82l50 -50
l-2 -14c-10 -5.33301 -22.5 -18.666 -37.5 -39.999s-28.167 -43.666 -39.5 -66.999s-17 -41 -17 -53l-15 -7c-23.333 20.667 -50.666 31 -81.999 31c-27.333 0 -53.166 -8.5 -77.499 -25.5s-44.666 -42.667 -60.999 -77s-25.5 -76.166 -27.5 -125.499
c-2 -46 6.66699 -85.667 26 -119c16 -8.66699 32.667 -13 50 -13c18 0 36 4.83301 54 14.5s34.667 24.167 50 43.5l15 -2c22.667 -24.667 46.5 -49 71.5 -73s41.167 -38.333 48.5 -43l50 -50l2 -14c-32.667 -40.667 -69 -71 -109 -91zM471.996 149.997
c-16.667 15.333 -30.999 34.001 -42.999 56.001c-33.333 -36 -69.666 -54 -108.999 -54c-26.667 0 -51.334 8.33301 -74.001 25s-40.334 40.167 -53.001 70.5s-18.334 65.166 -17.001 104.499c2.66699 52 13.167 96.333 31.5 133s41.333 64.334 69 83.001s56.5 28 86.5 28
c29.333 0 55.333 -8 78 -24c5.33301 23.333 17.833 51.166 37.5 83.499s37.834 55.5 54.501 69.5c-50 46 -105 69 -165 69c-54.667 0 -107.167 -18.333 -157.5 -55s-92 -87.667 -125 -153s-51.5 -138.666 -55.5 -219.999l-1 -26c0 -68.667 13.667 -129.834 41 -183.501
s63.333 -95.167 108 -124.5s92.667 -44 144 -44c38.667 0 77 9.33301 115 28s72.667 46.667 104 84c-29.333 18 -52.333 34.667 -69 50z" />
    <glyph glyph-name="D" unicode="D" horiz-adv-x="530" 
d="M30 258l5.00098 63c11.333 146 17 229.667 17 251l-40 43c4.66699 37.333 7 70.333 7 99s-2.33301 60.334 -7 95.001l308 5c50 0.666992 94 -18.333 132 -57s67 -89.667 87 -153s30 -130 30 -200c0 -72 -6.16699 -143.667 -18.5 -215s-33.5 -132.5 -63.5 -183.5
s-70 -77.833 -120 -80.5h-306l-50 50c1.33301 61.333 7.66602 155.666 18.999 282.999zM426.001 69.5c27.333 48.333 46.6689 107 58.002 176s17 138.5 17 208.5c0 110.667 -15.5 195.5 -46.5 254.5s-75.833 88.167 -134.5 87.5l-288 -5
c3.33301 -23.333 5 -48.666 5 -75.999s-1.66699 -54 -5 -80l39 4c-0.666992 -56.667 -2.83398 -112.834 -6.50098 -168.501s-9.16699 -127.167 -16.5 -214.5l-2 -26c-9.33301 -114.667 -15 -193.667 -17 -237h288c45.333 2.66699 81.666 28.167 108.999 76.5zM193.004 370
c0 96 2.33398 186.333 7.00098 271l9 9c40.667 0.666992 73 -5.5 97 -18.5s41.5 -34.667 52.5 -65s16.5 -71.833 16.5 -124.5c0 -32 -1.33301 -63 -4 -93c-5.33301 -64.667 -22.333 -115.667 -51 -153s-66.334 -57.333 -113.001 -60l-9 9c-3.33301 78.667 -5 153.667 -5 225
zM324.505 237c15.667 31.333 25.167 69.333 28.5 114c2.66699 31.333 4 62.333 4 93c0 46.667 -6.33301 81.167 -19 103.5s-36 33.833 -70 34.5c-4.66699 -79.333 -7 -166 -7 -260c0 -35.333 0.666992 -86.333 2 -153c25.333 14 45.833 36.667 61.5 68z" />
    <glyph glyph-name="E" unicode="E" horiz-adv-x="535" 
d="M456.5 -66.5c-30.333 4.33301 -63.8311 10.168 -100.498 17.501c-34 7.33301 -62.833 12.666 -86.5 15.999s-50.834 5 -81.501 5c-19.333 0 -41 -1 -65 -3c-16 -2.66699 -33 -5.66699 -51 -9l-11 9l-39 41l-11 9c2 46 7.66699 126.667 17 242l2 21
c1.33301 10.667 2 19 2 25c10.667 122.667 17.667 213.667 21 273l-37 48c4 33.333 6 63 6 89s-2 55 -6 87l11 10c44.667 -9.33301 116 -14 214 -14c111.333 0 202.333 4.66699 273 14l10 -11l40 -39l10 -11c-5.33301 -28.667 -8 -63 -8 -103s2.66699 -74.333 8 -103l-9 -11
c-38.667 1.33301 -73.334 3.83301 -104.001 7.5s-64.667 8.83398 -102 15.501c-42 6.66699 -72.667 11.334 -92 14.001l-4 -94c14 0.666992 43 3.66699 87 9l64 8l10 -11l40 -39l10 -11c-5.33301 -28.667 -8 -63 -8 -103s2.66699 -74.333 8 -103l-9 -11
c-39.333 1.33301 -70.5 4.16602 -93.5 8.49902s-41.333 8.5 -55 12.5s-22.5 6.66699 -26.5 8c-16 4.66699 -25.333 7.33398 -28 8.00098c0 -14.667 0.666992 -38 2 -70c35.333 -0.666992 70.833 0.166016 106.5 2.49902s83.5 7.5 143.5 15.5l10 -11l40 -39l10 -11
c-5.33301 -28.667 -8 -63 -8 -103s2.66699 -74.333 8 -103l-9 -11c-42 1.33301 -78.167 4.16602 -108.5 8.49902zM498.002 88.002c0 37.333 2 69.335 6 96.002c-51.333 -6 -91.833 -10.333 -121.5 -13s-58.167 -4 -85.5 -4c-30.667 0 -60.667 1.33301 -90 4l-8 8
c-3.33301 53.333 -5 103 -5 149c14.667 -2.66699 31.667 -7.33398 51 -14.001c22.667 -7.33301 44.834 -13.333 66.501 -18s52.5 -8 92.5 -10c-4 27.333 -6 59 -6 95c0 37.333 2 69.333 6 96l-57 -7c-46 -6.66699 -79.333 -10 -100 -10c-13.333 0 -28.333 1 -45 3l-8 9
c1.33301 54.667 3.33301 108.334 6 161.001l10 9c19.333 -2 43.666 -5.66699 72.999 -11l29 -4c36.667 -6.66699 69 -11.834 97 -15.501s59.667 -6.16699 95 -7.5c-4 27.333 -6 59 -6 95c0 37.333 2 69.333 6 96c-74 -8.66699 -161.667 -13 -263 -13
c-92.667 0 -161.334 4 -206.001 12c3.33301 -22.667 5 -46.667 5 -72c0 -26 -1.66699 -51 -5 -75l28 2l9 -9c-1.33301 -86.667 -9.33301 -206.334 -24 -359.001l-2 -24c-9.33301 -109.333 -15 -185 -17 -227l42 7c15.333 1.33301 36.666 2 63.999 2
c32 0 59.833 -1.66699 83.5 -5s53.834 -8.33301 90.501 -15c34 -7.33301 65.333 -13 94 -17s62.334 -7 101.001 -9c-4 27.333 -6 59 -6 95z" />
    <glyph glyph-name="F" unicode="F" horiz-adv-x="535" 
d="M22 -25l-10.999 8.99707c2 45.333 7.66699 127.666 17 246.999l2 23l3 31c10.667 136.667 17.334 242.334 20.001 317.001l-29 26l-10 10c4 33.333 6 61.333 6 84s-2 50 -6 82l11 10c48 -8.66699 122.667 -13 224 -13c105.333 0 193.666 4.33301 264.999 13l10 -11
l40 -39l10 -11c-5.33301 -28.667 -8 -63 -8 -103s2.66699 -74.333 8 -103l-9 -11c-38.667 1.33301 -73.334 3.83301 -104.001 7.5s-64.667 8.83398 -102 15.501c-42 6.66699 -72.667 11.334 -92 14.001l-4 -94c14 0.666992 43 3.66699 87 9l64 8l10 -11l40 -39l10 -11
c-5.33301 -28.667 -8 -63 -8 -103s2.66699 -74.333 8 -103l-9 -11c-39.333 1.33301 -70.5 4.16602 -93.5 8.49902s-41.333 8.5 -55 12.5s-22.5 6.66699 -26.5 8c-14.667 4.66699 -24.334 7.33398 -29.001 8.00098c2 -107.333 8 -210.666 18 -309.999l-11 -10
c-13.333 3.33301 -32.333 5 -57 5c-22.667 0 -46.667 -1.5 -72 -4.5s-47.666 -6.5 -66.999 -10.5l-11 9zM160.001 7.99707c18.667 0 35.333 -1 50 -3c-9.33301 85.333 -15 193 -17 323c10 -2 27.667 -6.66699 53 -14c21.333 -7.33301 43 -13.333 65 -18s53 -8 93 -10
c-4 27.333 -6 59 -6 95c0 37.333 2 69.333 6 96l-57 -7c-46 -6.66699 -79.333 -10 -100 -10c-13.333 0 -28.333 1 -45 3l-8 9c1.33301 54.667 3.33301 108.334 6 161.001l10 9c19.333 -2 43.666 -5.66699 72.999 -11l29 -4c36.667 -6.66699 69 -11.834 97 -15.501
s59.667 -6.16699 95 -7.5c-4 27.333 -6 59 -6 95c0 37.333 2 69.333 6 96c-66 -8 -151 -12 -255 -12c-96 0 -168 3.66699 -216 11c3.33301 -22.667 5 -46.667 5 -72c0 -26 -1.66699 -51 -5 -75h5l25 2l9 -9c-1.33301 -92 -8.33301 -207.333 -21 -346l-3 -41
c-1.33301 -12 -2 -21 -2 -27c-9.33301 -114 -15 -191 -17 -231c44.667 8.66699 88.334 13 131.001 13z" />
    <glyph glyph-name="G" unicode="G" horiz-adv-x="640" 
d="M188 -9.5c-56 43.667 -100.168 99.999 -132.501 168.999s-46.833 138.833 -43.5 209.5c4 84.667 23.333 160.834 58 228.501s78.5 120.667 131.5 159s108.167 57.5 165.5 57.5c32.667 0 64.834 -6.83301 96.501 -20.5s61.5 -34.5 89.5 -62.5l50 -50v-13
c-19.333 -18.667 -36.833 -41.167 -52.5 -67.5s-30.5 -58.5 -44.5 -96.5l-14 -4c-23.333 20.667 -50.666 31 -81.999 31c-28 0 -54.667 -9 -80 -27s-46 -45 -62 -81s-24 -79.333 -24 -130c0 -40.667 8.66699 -76.334 26 -107.001c14.667 -7.33301 29.667 -11 45 -11
c29.333 0 52.666 5.66699 69.999 17l-34 -2l-60 60c4 35.333 6 65 6 89s-2 53 -6 87l10 10c35.333 -5.33301 66 -9.66602 92 -12.999s48.333 -5 67 -5c32 0 85 6 159 18l10 -11l40 -39l10 -11c-5.33301 -26 -8 -62.333 -8 -109c0 -54.667 3.66699 -95.667 11 -123l-29 6
c-21.333 -71.333 -56.833 -126.5 -106.5 -165.5s-109.5 -58.5 -179.5 -58.5c-63.333 0 -123 21.833 -179 65.5zM491.499 52.499c47.667 39.667 80.8301 95.8359 99.4971 168.503l18 -4c-4 29.333 -6 62.666 -6 99.999c0 38 2 71 6 99c-37.333 -6 -66 -10.167 -86 -12.5
s-39 -3.5 -57 -3.5s-39.833 1.33301 -65.5 4s-55.834 6.66699 -90.501 12c3.33301 -24 5 -49.667 5 -77s-1.66699 -54 -5 -80c50.667 4 90.667 5.33301 120 4l9 -11c-11.333 -63.333 -52.666 -95 -123.999 -95c-27.333 0 -52 8.66699 -74 26s-38.667 41.166 -50 71.499
s-16.333 63.833 -15 100.5c2 51.333 12.333 95.333 31 132s41.834 64.167 69.501 82.5s56.834 27.5 87.501 27.5c30 0 56.667 -8.33301 80 -25c24.667 66.667 54.667 117.667 90 153c-49.333 47.333 -105 71 -167 71c-54.667 0 -107 -18.333 -157 -55
s-91.5 -87.5 -124.5 -152.5s-51.5 -138.167 -55.5 -219.5l-1 -25c0 -65.333 12.667 -124.833 38 -178.5s60 -95.834 104 -126.501s92.667 -46 146 -46c68.667 0 126.834 19.833 174.501 59.5z" />
    <glyph glyph-name="H" unicode="H" horiz-adv-x="615" 
d="M352 -25l-10.999 9c2 49.333 7.66699 132 17 248c-31.333 4.66699 -63.333 7.33398 -96 8.00098c2 -92 7.66699 -182.667 17 -272l-11 -10c-24.667 6 -57.334 9 -98.001 9c-39.333 0 -72 -3 -98 -9l-11 9l-39 41l-11 9c2 54.667 8.33301 146.667 19 276
c8 83.333 14 155.833 18 217.5s6 123.167 6 184.5c0 36.667 -1 73.334 -3 110.001l10 9c37.333 -4.66699 64 -7 80 -7c17.333 0 43.333 2.33301 78 7l60 -60c-8.66699 -96.667 -14 -193.334 -16 -290.001c38.667 -2.66699 76.667 -3.66699 114 -3
c4.66699 77.333 7 144.666 7 201.999c0 36 -1 72.333 -3 109l10 9c37.333 -4.66699 64 -7 80 -7c17.333 0 43.333 2.33301 78 7l60 -60c-4.66699 -79.333 -8.66699 -159.333 -12 -240l9 1l50 -50c-6.66699 -26.667 -10 -66.334 -10 -119.001
c0 -53.333 3.33301 -93.666 10 -120.999l-31 2c-7.33301 0 -17.666 0.666992 -30.999 2c2 -104.667 7 -191.667 15 -261l-11 -10c-24.667 6 -57.334 9 -98.001 9c-39.333 0 -72 -3 -98 -9l-11 9zM450.001 2c30.667 0 60.6709 -2.33398 90.0039 -7.00098
c-6.66699 64 -11.334 154.333 -14.001 271c14 -1.33301 33.333 -2.66602 58 -3.99902c-4 28 -6 61.333 -6 100s2 72 6 100l-56 -7c2 100 6 202.333 12 307c-25.333 -4 -48.333 -6 -69 -6s-44.334 2 -71.001 6c1.33301 -22 2 -54.333 2 -97c0 -68 -2.66699 -139.333 -8 -214
l-9 -8c-58.667 -1.33301 -119.667 1.33398 -183 8.00098l-8 9c1.33301 110 6.66602 221.667 15.999 335c-26 -4 -49 -6 -69 -6c-20.667 0 -44.334 2 -71.001 6c1.33301 -22 2 -55.333 2 -100c0 -62 -2 -124.167 -6 -186.5s-10 -134.833 -18 -217.5
c-10.667 -124.667 -17 -212.334 -19 -263.001c24 4.66699 54.333 7 91 7s66.667 -2.33301 90 -7c-8.66699 80 -14 170.333 -16 271l9 9c53.333 -0.666992 110 -6.66699 170 -18l7 -10c-10.667 -122 -17.667 -217 -21 -285c30.667 4.66699 61 7 91 7z" />
    <glyph glyph-name="I" unicode="I" horiz-adv-x="240" 
d="M22 -25l-10.998 9c2 54 8.33301 147.667 19 281c7.33301 86.667 13.166 163 17.499 229s6.5 130.667 6.5 194c0 39.333 -1 78.333 -3 117l10 9c37.333 -4.66699 64 -7 80 -7c17.333 0 43.333 2.33301 78 7l60 -60c-12 -144 -18 -288.333 -18 -433
c0 -144 6 -272.667 18 -386l-11 -10c-24.667 6 -57.334 9 -98.001 9c-39.333 0 -72 -3 -98 -9l-11 9zM120.002 2c30.667 0 60.668 -2.33203 90.001 -6.99902c-11.333 115.333 -17 241.666 -17 378.999c0 136.667 5.66699 277 17 421c-26 -4 -49 -6 -69 -6
c-20.667 0 -44.334 2 -71.001 6c1.33301 -44 2 -77 2 -99c0 -58 -1.66699 -115.167 -5 -171.5s-8.66602 -129.833 -15.999 -220.5l-3 -40c-1.33301 -13.333 -2 -23 -2 -29c-8.66699 -91.333 -14.334 -171.333 -17.001 -240c30.667 4.66699 61 7 91 7z" />
    <glyph glyph-name="J" unicode="J" horiz-adv-x="482" 
d="M133.5 -37.5c-43 27.667 -77.5 64.166 -103.5 109.499s-39 92.333 -39 141c0 11.333 0.333008 19.666 1 24.999l11 8c7.33301 -2 16.333 -3 27 -3c20.667 0 44.834 2.5 72.501 7.5s47.167 10.167 58.5 15.5l13 -9l37 -41l13 -9
c-1.33301 -20 -1.66602 -35.333 -0.999023 -46c24 6.66699 42.5 47.334 55.5 122.001s19.5 177.334 19.5 308.001c0 55.333 -1.66699 125.333 -5 210l10 9c30 -4.66699 56.667 -7 80 -7c24 0 50 2.33301 78 7l60 -60c-12.667 -120 -20.334 -250 -23.001 -390
c-0.666992 -45.333 -2.33398 -92.333 -5.00098 -141c-5.33301 -103.333 -26 -178.833 -62 -226.5s-90.333 -71.5 -163 -71.5c-46.667 0 -91.5 13.833 -134.5 41.5zM367.5 54.999c32.333 44 51.499 116.002 57.499 216.002c2.66699 46.667 4.33398 93 5.00098 139l1 27
c3.33301 83.333 6.16602 150.166 8.49902 200.499s6.5 101.166 12.5 152.499c-28.667 -3.33301 -51.667 -5 -69 -5c-16.667 0 -40.667 1.66699 -72 5c3.33301 -84.667 5 -154.667 5 -210c0 -292 -33.667 -438 -101 -438c-27.333 0 -44.666 9.83301 -51.999 29.5
s-10 44.167 -8 73.5c-18.667 -6 -43.167 -11.167 -73.5 -15.5s-54.5 -5.5 -72.5 -3.5c-2.66699 -46 4.33301 -87 21 -123s41.334 -64 74.001 -84s70.667 -30 114 -30c67.333 0 117.166 22 149.499 66z" />
    <glyph glyph-name="K" unicode="K" horiz-adv-x="635" 
d="M392 -19c-15.333 40 -27.667 75.668 -37 107.001s-19 66.666 -29 105.999c-6 25.333 -14 55 -24 89l-40 -37c2 -90.667 7.66699 -181 17 -271l-11 -10c-24.667 6 -57.334 9 -98.001 9c-39.333 0 -72 -3 -98 -9l-11 9l-39 41l-11 9c2 54.667 8.33301 146.667 19 276
c8 84 14 157 18 219s6 124 6 186c0 36.667 -1 73.334 -3 110.001l10 9c37.333 -4.66699 64 -7 80 -7c17.333 0 43.333 2.33301 78 7l60 -60c-4.66699 -61.333 -8.66699 -125.333 -12 -192c36.667 33.333 71.334 67 104.001 101s69 74.333 109 121l15 -2l176 -215v-14
c-50 -42.667 -107 -86 -171 -130l-34 -24c24.667 -72.667 48.667 -134 72 -184s57 -114.333 101 -193l-6 -13c-25.333 -6.66699 -55.833 -19.334 -91.5 -38.001s-64.167 -36.667 -85.5 -54l-14 4zM483.499 47.501c31 16.333 59.168 28.5 84.501 36.5
c-42 74.667 -74.667 137.334 -98 188.001s-47.666 113 -72.999 187l3 10l32 23c64.667 44.667 121 87.334 169 128.001c-18.667 17.333 -39 40.666 -61 69.999s-40.333 56.666 -55 81.999c-48.667 -56.667 -93.334 -105.167 -134.001 -145.5s-87.667 -82.833 -141 -127.5
l-15 7c2 82.667 7 182.334 15 299.001c-26 -4 -49 -6 -69 -6c-20.667 0 -44.334 2 -71.001 6c1.33301 -22 2 -55.333 2 -100c0 -62.667 -2 -125.334 -6 -188.001s-10 -135.334 -18 -218.001c-10.667 -124 -17 -212 -19 -264c24 4.66699 54.333 7 91 7s66.667 -2.33301 90 -7
c-8.66699 82 -14 170.333 -16 265l3 7l79 70l14 -4c11.333 -29.333 20.5 -56.166 27.5 -80.499s15.5 -55.833 25.5 -94.5l28 -102.5c8 -28.333 19 -60.5 33 -96.5c22 16 48.5 32.167 79.5 48.5z" />
    <glyph glyph-name="L" unicode="L" 
d="M465.5 -67c-29.667 4 -62.167 9.66699 -97.5 17c-40 7.33301 -74.333 12.833 -103 16.5s-62.667 5.5 -102 5.5c-26 0 -56.667 -1 -92 -3l-60 60c4 36 6 66 6 90c0 28 -2.33301 59.667 -7 95l37 -3c2 29.333 4.66699 59 8 89c8 81.333 14 152.166 18 212.499
s6 121.166 6 182.499c0 36.667 -1 73.334 -3 110.001l10 9c37.333 -4.66699 64 -7 80 -7c16.667 0 42.667 2.33301 78 7l60 -60c-12 -146.667 -18 -285 -18 -415c0 -49.333 1 -97.666 3 -144.999c32 -0.666992 64.833 0.5 98.5 3.5s77.5 8.16699 131.5 15.5l10 -11l40 -39
l10 -11c-5.33301 -30 -8 -66 -8 -108s2.66699 -78 8 -108l-9 -11c-40 1.33301 -74.833 4 -104.5 8zM503 94c0 38.667 2.00293 72.001 6.00293 100.001c-88.667 -12 -162 -18 -220 -18c-24.667 0 -43.667 0.333008 -57 1l-9 9c-3.33301 68.667 -5 134 -5 196
c0 124.667 5.66699 262.334 17 413.001c-26 -4 -49 -6 -69 -6c-20.667 0 -44.334 2 -71.001 6c1.33301 -40 2 -70.333 2 -91c0 -62.667 -2 -124.834 -6 -186.501s-10 -134.834 -18 -219.501c-2.66699 -22 -6 -57.667 -10 -107l-33 3c3.33301 -24 5 -49.667 5 -77
c0 -26.667 -1.66699 -53 -5 -79c19.333 1.33301 45.666 2 78.999 2c41.333 0 76.666 -1.83301 105.999 -5.5s65 -9.16699 107 -16.5c37.333 -7.33301 69 -12.833 95 -16.5s56.667 -6.5 92 -8.5c-4 29.333 -6 63 -6 101z" />
    <glyph glyph-name="M" unicode="M" horiz-adv-x="799" 
d="M581 -25l-10.998 10.001c5.33301 46.667 9.66602 102 12.999 166l-30 -99l-12 -6c-28 8.66699 -58.667 13 -92 13c-35.333 0 -69 -5 -101 -15l-50 50l-20 66l-16 54c2.66699 -82 8.33398 -164 17.001 -246l-11 -10c-24.667 6 -57.334 9 -98.001 9
c-39.333 0 -72 -3 -98 -9l-11 9l-39 41l-11 9c2 54.667 8.33301 146.667 19 276c8 83.333 14 155.833 18 217.5s6 123.167 6 184.5c0 36.667 -1 73.334 -3 110.001l10 9c37.333 -4.66699 64 -7 80 -7c17.333 0 43.333 2.33301 78 7l9 -6l50 -50
c25.333 -72.667 70.666 -176.667 135.999 -312c32.667 55.333 63.334 113.666 92.001 174.999s50.334 112.666 65.001 153.999l9 6c36 -4.66699 62 -7 78 -7c17.333 0 44 2.33301 80 7l10 -9l40 -41l10 -9c-2 -36 -3 -71.333 -3 -106c0 -55.333 1.66699 -109.5 5 -162.5
s8.66602 -121.5 15.999 -205.5l3 -38c10.667 -129.333 17 -221.333 19 -276l-11 -9c-24.667 6 -57.334 9 -98.001 9c-39.333 0 -72 -3 -98 -9l-11 10zM680.002 2.00098c30.667 0 60.6699 -2.33105 90.0029 -6.99805c-2 50.667 -8.33301 138.334 -19 263.001
c-8 82.667 -14 155.167 -18 217.5s-6 124.5 -6 186.5c0 44.667 0.666992 78 2 100c-28 -4 -52.333 -6 -73 -6s-44.334 2 -71.001 6c-17.333 -48.667 -42.5 -107.167 -75.5 -175.5s-67.167 -130.833 -102.5 -187.5l-16 1c-38.667 77.333 -74 151.666 -106 222.999
s-55.667 128.666 -71 171.999c-27.333 -4 -51 -6 -71 -6c-20.667 0 -45 2 -73 6c1.33301 -22 2 -55.333 2 -100c0 -62 -2 -124.167 -6 -186.5s-10 -134.833 -18 -217.5c-10.667 -124.667 -17 -212.334 -19 -263.001c24 4.66699 54.333 7 91 7c36 0 66 -2.33301 90 -7
c-11.333 113.333 -17 233.333 -17 360v56l18 3c19.333 -60 47.666 -153.667 84.999 -281l14 -50c26.667 7.33301 56.667 11 90 11s62.666 -3.66699 87.999 -11l99 316l18 -3c0.666992 -18.667 1 -46.667 1 -84c0 -121.333 -5.66699 -238 -17 -350c30.667 4.66699 61 7 91 7z
" />
    <glyph glyph-name="N" unicode="N" horiz-adv-x="604" 
d="M386 -25l-9.99805 5.00098c-17.333 36 -34.5 75.833 -51.5 119.5l-63.5 167.5c2 -108.667 8 -208.334 18 -299.001l-11 -10c-24.667 6 -57.334 9 -98.001 9c-39.333 0 -72 -3 -98 -9l-11 9l-39 41l-11 9c2 54.667 8.33301 146.667 19 276c8 83.333 14 155.833 18 217.5
s6 123.167 6 184.5c0 36.667 -1 73.334 -3 110.001l10 9c36 -4.66699 62.333 -7 79 -7s43 2.33301 79 7l10 -9l40 -41l10 -9c0 -6 13.667 -42.5 41 -109.5l89 -210.5c6 87.333 9 161.666 9 222.999c0 38 -1 76 -3 114l10 9c37.333 -4.66699 64 -7 80 -7
c17.333 0 43.333 2.33301 78 7l60 -60c-12 -144 -18 -283 -18 -417c0 -132.667 6 -255.667 18 -369l-11 -10c-24.667 6 -57.334 9 -98.001 9c-39.333 0 -72 -3 -98 -9l-10 5zM486.002 2.00098c35.333 0 64.667 -2.33301 88 -7c-11.333 114.667 -17 235.334 -17 362.001
s5.66699 261.667 17 405c-26 -4 -49 -6 -69 -6s-43.667 2 -71 6c1.33301 -22.667 2 -57 2 -103c0 -89.333 -5.33301 -194 -16 -314l-17 -3l-109 250.5c-45.333 107 -72.333 174.5 -81 202.5c-27.333 -4 -51 -6 -71 -6s-44 2 -72 6c1.33301 -22 2 -55.333 2 -100
c0 -62 -2 -124 -6 -186s-10 -134.667 -18 -218c-10.667 -124.667 -17 -212.334 -19 -263.001c24 4.66699 54.333 7 91 7c36 0 66 -2.33301 90 -7c-11.333 115.333 -17 238 -17 368v57l17 3l52 -138l70 -188c19.333 -50 38.333 -95.333 57 -136c28.667 5.33301 61 8 97 8z
" />
    <glyph glyph-name="O" unicode="O" horiz-adv-x="666" 
d="M194 -13c-56 41.333 -100.664 96.165 -133.997 164.498s-49.666 140.833 -48.999 217.5c0.666992 80.667 16.167 155.167 46.5 223.5s70.666 122.333 120.999 162s105.166 59.5 164.499 59.5c65.333 0 125.666 -22.333 180.999 -67s99.166 -102.5 131.499 -173.5
s48.5 -143.833 48.5 -218.5c0 -22 -1.33301 -42 -4 -60c-9.33301 -71.333 -29.5 -135.166 -60.5 -191.499s-69.833 -100.166 -116.5 -131.499s-97 -47 -151 -47c-62.667 0 -122 20.667 -178 62zM464.503 37.999c43.667 30 80.168 71.8301 109.501 125.497
s48.666 114.834 57.999 183.501c3.33301 26.667 5 50.334 5 71.001c0 66.667 -12 128.834 -36 186.501s-58.333 104 -103 139s-96.334 52.5 -155.001 52.5c-56 0 -108.167 -19.5 -156.5 -58.5s-86.666 -92 -114.999 -159s-42.5 -139.833 -42.5 -218.5
c0 -67.333 13 -129 39 -185s61.5 -100.333 106.5 -133s94.167 -49 147.5 -49c51.333 0 98.833 15 142.5 45zM246.004 179.996c-23.333 18 -41.5 42.3311 -54.5 72.998s-19.5 64.334 -19.5 101.001c0 48 7 90.667 21 128s33 66.333 57 87s51.333 31 82 31
c45.333 0 81.666 -19.167 108.999 -57.5s41 -88.166 41 -149.499c0 -14 -0.333008 -24.667 -1 -32c-4.66699 -62 -21.5 -112.167 -50.5 -150.5s-64.167 -57.5 -105.5 -57.5c-29.333 0 -55.666 9 -78.999 27zM396.004 198.994c21.333 18.667 37.998 44.8311 49.998 78.498
s18 71.834 18 114.501c0 50 -10 92.333 -30 127c-14.667 8.66699 -32 13 -52 13c-27.333 0 -51.666 -9.66699 -72.999 -29s-38.166 -46.166 -50.499 -80.499s-18.5 -73.833 -18.5 -118.5s10 -84 30 -118c18.667 -10 37 -15 55 -15c26 0 49.667 9.33301 71 28z" />
    <glyph glyph-name="P" unicode="P" horiz-adv-x="504" 
d="M22 -25l-11 9.00098c2 92 9.66699 210.667 23 356l5 63c4.66699 53.333 8.66699 107 12 161l-39 49c4.66699 38 7 71.333 7 100c0 29.333 -2.33301 61.666 -7 96.999l288 4c49.333 0 92.333 -16.5 129 -49.5s64.834 -76.833 84.501 -131.5s29.5 -113.667 29.5 -177
c0 -142 -76 -219 -228 -231c-8 -0.666992 -25.333 -1 -52 -1c2 -80.667 7.33301 -177 16 -289l-11 -10c-24.667 6 -57.334 9 -98.001 9c-39.333 0 -72 -3 -98 -9l-11 9zM120 2.00098c30.667 0 60.667 -2.33398 90 -7.00098c-8 90.667 -13 189.667 -15 297
c35.333 0 58 0.333008 68 1c141.333 8 212 79 212 213c0 98 -14.333 170.833 -43 218.5s-72.667 71.5 -132 71.5l-268 -4c3.33301 -24 5 -50 5 -78s-1.66699 -55 -5 -81l39 3c-1.33301 -65.333 -6.33301 -148.666 -15 -249.999l-4 -48c-12 -128.667 -19.667 -243 -23 -343
c30.667 4.66699 61 7 91 7zM200 637l8.00195 8c33.333 2 57.666 3 72.999 3c22.667 0 40 -8.83301 52 -26.5s18 -39.167 18 -64.5c0 -30 -8 -57.5 -24 -82.5s-37.333 -39.5 -64 -43.5c-8.66699 -2 -25 -3 -49 -3c-2.66699 -0.666992 -6.66699 -1 -12 -1l-9 9
c1.33301 72.667 3.66602 139.667 6.99902 201zM314.002 487c12.667 22 19 46 19 72c0 4.66699 -0.666992 11.667 -2 21l-63 -2c-3.33301 -44.667 -5.33301 -87.667 -6 -129c22 3.33301 39.333 16 52 38z" />
    <glyph glyph-name="Q" unicode="Q" horiz-adv-x="666" 
d="M441 -116l-14.9971 0.998047c-2.66699 4 -10.334 18 -23.001 42c-12 -1.33301 -22.333 -2 -31 -2c-60.667 0 -119 21.667 -175 65s-101 99 -135 167s-51 136.333 -51 205c0 82 15 157.667 45 227s70.5 124.166 121.5 164.499s106.167 60.5 165.5 60.5
c65.333 0 125.666 -22.333 180.999 -67s99.166 -102.5 131.499 -173.5s48.5 -143.833 48.5 -218.5c0 -22 -1.33301 -42 -4 -60c-6.66699 -48.667 -18.667 -94.667 -36 -138s-39 -81.666 -65 -114.999l64 -80c-26 -11.333 -56.833 -30.166 -92.5 -56.499
s-62.167 -50.166 -79.5 -71.499l-15 1zM505.003 -34.502c28.667 21.667 55.333 39.1631 80 52.4961l-60 74c27.333 32 50.333 69.833 69 113.5s31.334 90.834 38.001 141.501c3.33301 26.667 5 50.334 5 71.001c0 66.667 -12 128.834 -36 186.501s-58.333 104 -103 139
s-96.334 52.5 -155.001 52.5c-56 0 -108.167 -19.5 -156.5 -58.5s-86.666 -92 -114.999 -159s-42.5 -139.833 -42.5 -218.5c0 -67.333 13 -129 39 -185s61.5 -100.333 106.5 -133s94.167 -49 147.5 -49c22.667 0 42 2.33301 58 7l10 -5c13.333 -30 28.666 -60 45.999 -90
c17.333 18.667 40.333 38.834 69 60.501zM207.002 222.994c-24 36.667 -35.665 80.3311 -34.998 130.998c0 48 7 90.667 21 128s33 66.333 57 87s51.333 31 82 31c45.333 0 81.666 -19.167 108.999 -57.5s41 -88.166 41 -149.499c0 -14 -0.333008 -24.667 -1 -32
c-4 -50 -16.333 -93 -37 -129h-16c-10.667 18.667 -24.334 44.667 -41.001 78c-4 9.33301 -7.33301 16.333 -10 21c-20 -18.667 -38.667 -34.167 -56 -46.5s-38.333 -25.5 -63 -39.5c25.333 -34.667 43 -60 53 -76l-10 -14c-38.667 8.66699 -70 31.334 -94 68.001z
M312.004 300.491c18 13 38.667 30.4971 62 52.4971l14 -3l50 -50l9 -18c8.66699 27.333 14 54.333 16 81c0.666992 6.66699 1 16.334 1 29.001c0 50 -10 92.333 -30 127c-14.667 8.66699 -32 13 -52 13c-27.333 0 -51.5 -9.66699 -72.5 -29s-37.667 -46.166 -50 -80.499
s-18.833 -73.833 -19.5 -118.5c0 -17.333 1.33301 -32.666 4 -45.999c27.333 15.333 50 29.5 68 42.5zM254.004 219.988c4.66699 -10 8.66797 -17.5 12.001 -22.5s8.66602 -10.833 15.999 -17.5z" />
    <glyph glyph-name="R" unicode="R" horiz-adv-x="531" 
d="M336 -23l-14.001 4c-21.333 55.333 -41 125 -59 209c2.66699 -64.667 8 -138.667 16 -222l-11 -10c-24.667 6 -57.334 9 -98.001 9c-39.333 0 -72 -3 -98 -9l-11 9l-39 41l-11 9c2 54 8.33301 144.333 19 271l3 30c9.33301 104 15.333 185.667 18 245l-39 53
c4.66699 36.667 7 69.334 7 98.001s-2.33301 60.667 -7 96l288 4c49.333 0 92.333 -14.833 129 -44.5s64.834 -69.834 84.501 -120.501s29.5 -106.334 29.5 -167.001c0 -38 -7 -72.5 -21 -103.5s-34.667 -57.167 -62 -78.5l15 -44c32.667 -97.333 64 -172.666 94 -225.999
l-6 -13c-26 -6 -56.667 -18 -92 -36s-63.666 -36 -84.999 -54l-14 4zM413.499 47c31 16 59.1689 27.665 84.502 34.998c-16.667 30.667 -31.834 63.167 -45.501 97.5s-28.5 74.833 -44.5 121.5c-10 28 -15.667 44.333 -17 49l3 10c54 40.667 81 98 81 172
c0 92 -14 159 -42 201s-72.333 63 -133 63l-268 -4c3.33301 -24 5 -49.667 5 -77s-1.66699 -53.666 -5 -78.999l39 3c-0.666992 -53.333 -2.83398 -105.166 -6.50098 -155.499s-9.16699 -116.166 -16.5 -197.499c-10.667 -119.333 -17 -205.333 -19 -258
c24 4.66699 54.333 7 91 7s66.667 -2.33301 90 -7c-8.66699 84 -14 177.667 -16 281c25.333 0 43.666 0.333008 54.999 1l10 -7l16 -77c8.66699 -44.667 17.334 -84.834 26.001 -120.501s19.667 -71.167 33 -106.5c22 16 48.5 32 79.5 48zM200.001 638.998l8.00195 8
c33.333 2 57.666 3 72.999 3c22.667 0 40 -8.16699 52 -24.5s18 -36.5 18 -60.5c0 -28 -8 -53.667 -24 -77s-37.333 -37 -64 -41c-8.66699 -2 -25 -3 -49 -3c-2.66699 -0.666992 -6.66699 -1 -12 -1l-9 9c1.33301 68 3.66602 130.333 6.99902 187zM313.003 499.998
c12.667 20 19.001 41.667 19.001 65c0 8 -0.333008 13.667 -1 17c-14 0 -35.333 -1 -64 -3c-2.66699 -50.667 -4.33398 -88.667 -5.00098 -114c21.333 3.33301 38.333 15 51 35z" />
    <glyph glyph-name="S" unicode="S" horiz-adv-x="521" 
d="M482 375c55.333 -54.667 81.333 -117.666 78 -188.999c-2.66699 -52 -15.834 -97.833 -39.501 -137.5s-55.667 -70.334 -96 -92.001s-85.5 -32.5 -135.5 -32.5c-20 0 -40.667 2 -62 6c-38.667 7.33301 -77.167 25.5 -115.5 54.5s-70.5 61.833 -96.5 98.5l6 21
c17.333 7.33301 37 23.5 59 48.5s35.667 49.833 41 74.5l17 2c7.33301 -16.667 20.5 -30 39.5 -40s40.833 -15 65.5 -15c26 0 47.167 5.83301 63.5 17.5s24.833 26.5 25.5 44.5c0 7.33301 -0.333008 12.666 -1 15.999c-20.667 10.667 -50.334 23 -89.001 37
c-70 25.333 -123.5 64.5 -160.5 117.5s-55.5 109.5 -55.5 169.5c0 40.667 8.83301 78.5 26.5 113.5s43.834 63.833 78.501 86.5s76.334 35.334 125.001 38.001c6.66699 0.666992 16 1 28 1c50 0 93.333 -7 130 -21s67 -32 91 -54l24 -24.5
c15.333 -15.667 24 -24.167 26 -25.5l-1 -14c-23.333 -16.667 -45 -41.834 -65 -75.501s-31.667 -61.167 -35 -82.5l-16 -4c-12.667 18.667 -27 32.334 -43 41.001s-32 13 -48 13c-22 0 -41.5 -6.33301 -58.5 -19s-26.5 -26.667 -28.5 -42
c92.667 -33.333 166.667 -77.333 222 -132zM468.5 352.001c-15.667 28 -41.499 53.168 -77.499 75.501s-86 45.166 -150 68.499c-33.333 12 -50 30.667 -50 56c0 13.333 5 26.5 15 39.5s23.167 23.667 39.5 32s33.833 12.5 52.5 12.5c35.333 0 66.333 -15.667 93 -47
c7.33301 23.333 19.666 49 36.999 77s36.333 50.333 57 67c-57.333 47.333 -133 68.333 -227 63c-43.333 -2.66699 -80.833 -14.834 -112.5 -36.501s-55.834 -49.334 -72.501 -83.001s-25 -69.167 -25 -106.5c0 -46.667 12.833 -89.667 38.5 -129s62.834 -68 111.501 -86
c42 -15.333 73.5 -28.666 94.5 -39.999s35.833 -22.666 44.5 -33.999s13 -25.666 13 -42.999c0 -24 -10 -43.667 -30 -59s-45.667 -23 -77 -23c-24 0 -45.667 4.16699 -65 12.5s-34.666 20.166 -45.999 35.499c-9.33301 -20 -23.833 -41 -43.5 -63
s-38.167 -38.333 -55.5 -49c34 -50.667 83.333 -82 148 -94c21.333 -4 41.333 -6 60 -6c48 0 91.167 10.833 129.5 32.5s68.166 52 89.499 91s32 83.833 32 134.5c0 40 -7.83301 74 -23.5 102zM505.001 740.002z" />
    <glyph glyph-name="T" unicode="T" horiz-adv-x="580" 
d="M167 -25l-10.999 9c2 52.667 8.33301 143 19 271c12 133.333 19.333 239 22 317c-8.66699 0.666992 -22.334 1 -41.001 1c-25.333 0 -53.666 -1 -84.999 -3l-60 60c4 35.333 6 64.666 6 87.999c0 24.667 -2 53.334 -6 86.001l10 10
c68.667 -7.33301 125 -12.666 169 -15.999s84.333 -5 121 -5s73.667 1.66699 111 5s83 8.66602 137 15.999l10 -11l40 -39l10 -11c-5.33301 -30 -8 -66 -8 -108c0 -41.333 2.66699 -77.333 8 -108l-9 -11c-56.667 2 -122.667 9 -198 21c-4 -82 -6 -162.333 -6 -241
c0 -137.333 6 -261 18 -371l-11 -10c-24.667 6 -57.334 9 -98.001 9c-39.333 0 -72 -3 -98 -9l-11 9zM265.001 2c30.667 0 60.668 -2.33398 90.001 -7.00098c-11.333 114.667 -17 238.334 -17 371.001c0 79.333 2 160 6 242l10 9
c73.333 -12.667 138.333 -20.334 195 -23.001c-4 29.333 -6 62.666 -6 99.999c0 38.667 2 72 6 100c-93.333 -12.667 -172.333 -19 -237 -19c-68.667 0 -162.667 6.66699 -282 20c3.33301 -24 5 -49.667 5 -77s-1.66699 -53.666 -5 -78.999c18 1.33301 43.333 2 76 2
c26.667 0 60.667 -1.33301 102 -4l8 -9c-0.666992 -56 -2.83398 -111.167 -6.50098 -165.5s-9.16699 -124.166 -16.5 -209.499l-2 -24c-9.33301 -112 -15 -190 -17 -234c30.667 4.66699 61 7 91 7z" />
    <glyph glyph-name="U" unicode="U" horiz-adv-x="528" 
d="M192.5 -13.5c-37.667 15 -70.5 36.499 -98.5 64.499s-47.667 59 -59 93c-7.33301 24 -12.166 67 -14.499 129s-3.83301 148.333 -4.5 259c0 122 -1.66699 212.667 -5 272l10 10c36 -4.66699 62 -7 78 -7c17.333 0 44 2.33301 80 7l60 -60
c-1.33301 -12.667 -2.66602 -55.334 -3.99902 -128.001s-2 -142.667 -2 -210c0 -113.333 2.33301 -182.666 7 -207.999l2 -7c18 -2 34.333 4 49 18s23 33.667 25 59c8.66699 190.667 13 337.334 13 440.001v53l11 9c27.333 -4.66699 54.666 -7 81.999 -7
c28 0 52.667 2.33301 74 7l11 -9l39 -41l11 -9c-4 -80.667 -6 -185.667 -6 -315c0 -212 5.33301 -369 16 -471l-11 -10c-26 6 -58.667 9 -98 9c-47.333 0 -84 -4 -110 -12l-41 46c-38.667 -2.66699 -76.834 3.5 -114.501 18.5zM408 1.99902
c30.667 0 60.6689 -2.33398 90.002 -7.00098c-10.667 104.667 -16 259.334 -16 464.001c0 122 2 222.333 6 301c-20.667 -4 -42.334 -6 -65.001 -6c-24.667 0 -50 2 -76 6v-53c0 -102 -4.33301 -245 -13 -429c-2 -29.333 -11.5 -52.5 -28.5 -69.5s-36.5 -25.5 -58.5 -25.5
c-17.333 0 -33.166 6.16699 -47.499 18.5s-23.5 29.833 -27.5 52.5c-4.66699 26 -7 97.333 -7 214c0 66.667 0.5 129.167 1.5 187.5s2.16699 104.833 3.5 139.5c-26.667 -4 -50.334 -6 -71.001 -6c-20 0 -43 2 -69 6c2.66699 -63.333 4 -151 4 -263
c0.666992 -110 2.16699 -195.5 4.5 -256.5s7.16602 -102.833 14.499 -125.5c11.333 -38 31.833 -66.833 61.5 -86.5s66.5 -29.5 110.5 -29.5c6.66699 0 16.667 0.666992 30 2c22 2 44.333 8.33301 67 19l-4 -60c30.667 4.66699 60.667 7 90 7z" />
    <glyph glyph-name="V" unicode="V" horiz-adv-x="593" 
d="M211 -15l-10.998 7.00098c-20 69.333 -46.333 178.333 -79 327c-26 115.333 -48.5 211.166 -67.5 287.499s-39.5 144.833 -61.5 205.5l9 12c38.667 -4.66699 68.667 -7 90 -7c26.667 0 57 2.66699 91 8l50 -50c7.33301 -41.333 20 -99.5 38 -174.5
s38.333 -152.833 61 -233.5c50.667 170.667 85 309.667 103 417l10 7c35.333 -4.66699 64.333 -7 87 -7c23.333 0 53.666 2.33301 90.999 7l9 -12l41 -38l9 -12c-26.667 -72.667 -50.834 -149.167 -72.501 -229.5s-45.167 -173.833 -70.5 -280.5
c-26.667 -114.667 -50 -207 -70 -277l-11 -7c-26 6 -58.667 9 -98 9s-72 -3 -98 -9l-11 7zM309.002 12.001c34 0 65.335 -2.66895 94.002 -8.00195c15.333 54.667 38 144.334 68 269.001c25.333 106.667 48.333 198.5 69 275.5s43.667 151.167 69 222.5
c-28.667 -3.33301 -54 -5 -76 -5c-27.333 0 -55 2 -83 6c-10.667 -63.333 -27.5 -139.5 -50.5 -228.5s-49.167 -179.5 -78.5 -271.5h-18c-28.667 96 -55.667 194.333 -81 295s-43.333 180 -54 238c-28 -4 -55 -6 -81 -6c-20.667 0 -45.334 1.66699 -74.001 5
c21.333 -60.667 41.666 -129.167 60.999 -205.5s40.666 -168.166 63.999 -275.499c34.667 -152 60.334 -258.333 77.001 -319c28.667 5.33301 60 8 94 8z" />
    <glyph glyph-name="W" unicode="W" horiz-adv-x="968" 
d="M678 -65c-39.333 0 -71.999 -3.00098 -97.999 -9.00098l-11 7l-39 43l-11 7c-9.33301 46.667 -15.666 83.667 -18.999 111c-5.33301 -33.333 -13 -76 -23 -128l-11 -7c-26 6 -58.667 9 -98 9c-40 0 -72.667 -3 -98 -9l-11 7l-39 43l-11 7
c-10.667 38.667 -22.167 84.167 -34.5 136.5l-35.5 155.5l-6 28c-24 108 -44.833 197.667 -62.5 269s-37.167 137 -58.5 197l9 12c38.667 -4.66699 68.334 -7 89.001 -7c22 0 50 2.33301 84 7l10 -7l40 -43l10 -7c17.333 -91.333 41.666 -196.666 72.999 -315.999
c28.667 126 47.667 237 57 333l10 8c37.333 -4.66699 63.666 -7 78.999 -7s41.666 2.33301 78.999 7l10 -8l40 -42l10 -8c8 -84 24.667 -189.333 50 -316c46.667 161.333 79 294 97 398l10 8c34.667 -4.66699 63.667 -7 87 -7s53.666 2.33301 90.999 7l9 -12l41 -38l9 -12
c-24 -64.667 -45.5 -132.5 -64.5 -203.5s-42.5 -164.167 -70.5 -279.5l-11 -46l-12 -51l-25 -103c-13.333 -54.667 -26.333 -103 -39 -145c-25.333 7.33301 -60.666 11 -105.999 11zM792.001 276.999c28 118 52.335 216.165 73.002 294.498s43.667 152.5 69 222.5
c-28.667 -3.33301 -54 -5 -76 -5c-27.333 0 -55 2 -83 6c-10.667 -63.333 -27.5 -139.666 -50.5 -228.999s-48.5 -180 -76.5 -272l-18 1c-20.667 85.333 -38.5 169.5 -53.5 252.5s-25.5 154.833 -31.5 215.5c-28 -4 -52 -6 -72 -6s-44 2 -72 6
c-12 -120.667 -39 -264.667 -81 -432l-18 -1c-24 84.667 -46.333 169.5 -67 254.5s-36.334 155.167 -47.001 210.5c-28 -4 -55 -6 -81 -6c-20.667 0 -45.334 1.66699 -74.001 5c21.333 -59.333 40.666 -124.5 57.999 -195.5s37 -157.167 59 -258.5
c30.667 -140.667 55.334 -244.667 74.001 -312c28 5.33301 59.333 8 94 8c30.667 0 61.667 -2.33301 93 -7c8.66699 42 16.667 88.333 24 139s12 82.334 14 95.001l6 37c1.33301 14.667 4 34 8 58h18l11 -80c16 -123.333 30.333 -217.333 43 -282
c31.333 4.66699 62.333 7 93 7c34.667 0 66 -2.66699 94 -8c16.667 60.667 40 154.667 70 282z" />
    <glyph glyph-name="X" unicode="X" horiz-adv-x="612" 
d="M169 -36.5c-38 11.667 -71.333 18.5029 -100 20.5029l-50 50l-6 14c59.333 81.333 126.666 191.666 201.999 330.999c-35.333 96 -66.833 177.667 -94.5 245s-55.167 126.333 -82.5 177l7 13c35.333 2 65.333 5.16699 90 9.5s50.334 11.166 77.001 20.499l12 -5l50 -50
c10.667 -33.333 32 -90.333 64 -171c43.333 90.667 70 154 80 190l13 5c28.667 -13.333 55.334 -23.833 80.001 -31.5s52 -13.834 82 -18.501l50 -50l6 -14c-30.667 -46 -61.167 -99.167 -91.5 -159.5s-63.5 -131.166 -99.5 -212.499
c67.333 -152.667 125.666 -268.667 174.999 -348l-8 -14c-28 0.666992 -61.5 -2.83301 -100.5 -10.5s-69.833 -17.167 -92.5 -28.5l-12 4l-38 46l-12 4l-34 78c-19.333 -42.667 -41 -85.334 -65 -128.001l-13 -4c-21.333 13.333 -51 25.833 -89 37.5zM295 170.003
l16 -0.99707l71 -173c23.333 10 51.833 18.5 85.5 25.5s64.167 10.833 91.5 11.5c-48.667 80 -105 193.333 -169 340v8c34.667 78 67 147 97 207s60 113 90 159c-26.667 4.66699 -51.167 10.5 -73.5 17.5s-46.166 16.5 -71.499 28.5c-18 -54.667 -52.667 -133 -104 -235
l-16 1c-48.667 121.333 -83 209.666 -103 264.999c-24 -8 -47.167 -14 -69.5 -18s-48.5 -7 -78.5 -9c26.667 -50.667 53 -108.334 79 -173.001l93 -243v-7c-76 -140 -141.667 -248 -197 -324c27.333 -2.66699 57.5 -9.33398 90.5 -20.001s60.833 -22 83.5 -34
c29.333 53.333 57.666 111.333 84.999 174z" />
    <glyph glyph-name="Y" unicode="Y" horiz-adv-x="603" 
d="M169 -36.5c-38 11.667 -71.3359 18.5 -100.003 20.5l-6 14l-44 36l-6 14c25.333 36 62.333 101 111 195c40 76.667 68 128.334 84 155.001c-55.333 144 -117 278.333 -185 403l7 13c36 2 66.5 5.16699 91.5 9.5s50.833 11.166 77.5 20.499l12 -5l50 -50
c14 -42 37.333 -101.333 70 -178c52.667 96 85.667 165.333 99 208l13 5c26.667 -12.667 52 -22.667 76 -30s52.667 -13.666 86 -18.999l50 -50l6 -14c-91.333 -138.667 -161.666 -261.334 -210.999 -368.001c-23.333 -50 -48.666 -109.667 -75.999 -179l-57 -139.5
c-15.333 -35.667 -30.666 -67.167 -45.999 -94.5l-13 -4c-21.333 13.333 -51 25.833 -89 37.5zM307.997 220c34.667 88 59.999 148.334 75.999 181.001c52 110 120 229.333 204 358c-29.333 5.33301 -54.833 11.5 -76.5 18.5s-44.167 15.833 -67.5 26.5
c-18 -51.333 -58.667 -133 -122 -245h-16c-49.333 109.333 -86 197.666 -110 264.999c-23.333 -8 -46.5 -14 -69.5 -18s-49.833 -7 -80.5 -9c64 -118.667 124 -251 180 -397v-8c-20.667 -34 -46 -80.333 -76 -139c-2.66699 -4 -6 -10 -10 -18l-55 -103
c-18.667 -34 -35 -61.333 -49 -82c27.333 -2.66699 57.5 -9.33398 90.5 -20.001s60.833 -22 83.5 -34c22.667 42.667 55.334 117.334 98.001 224.001z" />
    <glyph glyph-name="Z" unicode="Z" horiz-adv-x="580" 
d="M398 -51c-44.667 8 -83.833 13.835 -117.5 17.502s-71.834 5.5 -114.501 5.5c-28 0 -59.667 -1 -95 -3l-60 60c4 35.333 6 64.666 6 87.999c0 24.667 -2 53.334 -6 86.001l2 7c51.333 54 102.5 113.167 153.5 177.5s92.833 123.833 125.5 178.5
c-44.667 4.66699 -87 7 -127 7c-28.667 0 -60 -1 -94 -3l-60 60c4 35.333 6 64.666 6 87.999c0 24.667 -2 53.334 -6 86.001l10 10c68.667 -7.33301 125 -12.666 169 -15.999s84.333 -5 121 -5s73.667 1.66699 111 5s83 8.66602 137 15.999l10 -11l40 -39l10 -11
c-5.33301 -24.667 -8 -61 -8 -109c0 -52 3.33301 -91.667 10 -119l-48 3c-34.667 -32.667 -73 -79.334 -115 -140.001s-82 -125.334 -120 -194.001c58.667 0.666992 132.334 7 221.001 19l10 -11l40 -39l10 -11c-5.33301 -30 -8 -66 -8 -108s2.66699 -78 8 -108l-9 -11
c-65.333 2 -136 10 -212 24zM543.001 93.002c0 38.667 1.99902 72.002 5.99902 100.002c-96.667 -12 -177.334 -18 -242.001 -18c-25.333 0 -45 0.333008 -59 1l-8 13c40 79.333 85.833 157.5 137.5 234.5s98.167 134.5 139.5 172.5l32 -1c-4 28 -6 61.333 -6 100
c0 38 2 71 6 99c-93.333 -12.667 -172.333 -19 -237 -19c-68.667 0 -162.667 6.66699 -282 20c3.33301 -24 5 -49.667 5 -77s-1.66699 -53.666 -5 -78.999c38.667 1.33301 65.334 2 80.001 2c69.333 0 142.333 -6.66699 219 -20l7 -13
c-29.333 -57.333 -72.666 -123.5 -129.999 -198.5s-116.333 -144.5 -177 -208.5c4 -32 6 -59.667 6 -83c0 -18.667 -1.66699 -45.334 -5 -80.001c19.333 1.33301 46.333 2 81 2c44.667 0 84.5 -2 119.5 -6s75.167 -9.66699 120.5 -17
c38.667 -6.66699 72.5 -11.834 101.5 -15.501s61.167 -6.5 96.5 -8.5c-4 29.333 -6 62.666 -6 99.999z" />
    <glyph glyph-name="bracketleft" unicode="[" horiz-adv-x="359" 
d="M29 276c0 204.667 -6 379 -18 523l10 10c59.333 -8 101.166 -13.333 125.499 -16s48.166 -4 71.499 -4c30.667 0 70.667 2.33301 120 7l10 -11l40 -39l10 -11c-4.66699 -21.333 -7 -44.333 -7 -69c0 -23.333 2.33301 -45.333 7 -66l-10 -11
c-20.667 2 -36.334 3 -47.001 3c-12 0 -25.333 -1.66699 -40 -5c-24.667 -6 -56.334 -10 -95.001 -12c-0.666992 -15.333 -1 -38 -1 -68c0 -66 1.83301 -133.333 5.5 -202s8.83398 -153.667 15.501 -255l6 -83l19 -4c14.667 -3.33301 28 -5 40 -5
c10.667 0 26.334 1 47.001 3l10 -11l40 -39l10 -11c-4.66699 -20.667 -7 -42.667 -7 -66c0 -24.667 2.33301 -47.667 7 -69l-10 -11c-49.333 4.66699 -89.333 7 -120 7c-23.333 0 -47.166 -1.33301 -71.499 -4s-66.166 -8 -125.499 -16l-60 60c12 112 18 270.333 18 475z
M148.5 -175c23 2.66699 46.499 4.00293 70.499 4.00293c26 0 62.333 -2 109 -6c-3.33301 23.333 -5 43.666 -5 60.999s1.66699 36.666 5 57.999c-20 -1.33301 -32.333 -2 -37 -2c-14 0 -28.667 1.66699 -44 5c-24 4.66699 -48 8 -72 10l-8 8l-9 136
c-6.66699 102 -11.834 188.667 -15.501 260s-5.5 141 -5.5 209c0 29.333 0.333008 51.333 1 66l9 9c33.333 2 57.833 4.16699 73.5 6.5s24.834 3.83301 27.501 4.5c15.333 3.33301 30 5 44 5s26 -0.333008 36 -1c-3.33301 21.333 -5 40.666 -5 57.999
s1.66699 37.666 5 60.999c-47.333 -4 -83.666 -6 -108.999 -6c-24 0 -47.5 1.33301 -70.5 4s-62.5 7.66699 -118.5 15c11.333 -134 17 -304.333 17 -511c0 -205.333 -5.66699 -361.666 -17 -468.999c56 7.33301 95.5 12.333 118.5 15z" />
    <glyph glyph-name="backslash" unicode="\" horiz-adv-x="547" 
d="M512 -251c-29.333 0 -56.334 -3.33301 -81.001 -10l-50 50l-375 1024c28 -8 54.667 -12 80 -12c24.667 0 50.334 3.33301 77.001 10l50 -50l380 -1028c-15.333 10.667 -42.333 16 -81 16zM461.999 -183c20.667 0 37.667 -1.33301 51 -4l-362 977
c-21.333 -4.66699 -43 -7 -65 -7c-20 0 -37.333 1.66699 -52 5l359 -978c21.333 4.66699 44.333 7 69 7z" />
    <glyph glyph-name="bracketright" unicode="]" horiz-adv-x="359" 
d="M272.5 -253c-24.333 2.66699 -48.167 4.00098 -71.5 4.00098c-30.667 0 -70.667 -2.33301 -120 -7l-10 11l-50 49l-10 11c5.33301 24.667 8 47.667 8 69c0 20.667 -2.66699 42.667 -8 66l10 11c21.333 -2 37 -3 47 -3c12 0 25.333 1.66699 40 5
c22 4.66699 44 7.66699 66 9l9 128c6.66699 105.333 11.834 193.166 15.501 263.499s5.5 139.5 5.5 207.5c-14 2 -26 4 -36 6c-15.333 3.33301 -29.666 5 -42.999 5c-10.667 0 -25.334 -1 -44.001 -3l-10 11l-50 49l-10 11c5.33301 23.333 8 45.333 8 66
c0 21.333 -2.66699 44.333 -8 69l10 11c49.333 -4.66699 89.333 -7 120 -7c23.333 0 47.166 1.33301 71.499 4s66.166 8 125.499 16l70 -70c-12 -144 -18 -318.333 -18 -523s6 -363 18 -475l-10 -10c-59.333 8 -101.166 13.333 -125.499 16zM311.999 279.001
c0 194.667 5.66602 364.999 16.999 510.999c-56 -7.33301 -95.5 -12.333 -118.5 -15s-46.5 -4 -70.5 -4c-25.333 0 -61.666 2 -108.999 6c3.33301 -17.333 5 -37.666 5 -60.999c0 -22.667 -1.66699 -42 -5 -58c10 0.666992 22 1 36 1s28.667 -1.66699 44 -5
c2.66699 -0.666992 11.834 -2.16699 27.501 -4.5s40.167 -4.5 73.5 -6.5l9 -9c0.666992 -14.667 1 -36.667 1 -66c0 -68 -1.83301 -137.667 -5.5 -209s-8.83398 -158 -15.501 -260l-9 -136l-8 -8c-24 -2 -48 -5.33301 -72 -10c-15.333 -3.33301 -30 -5 -44 -5
c-4.66699 0 -17 0.666992 -37 2c3.33301 -16 5 -35.333 5 -58c0 -23.333 -1.66699 -43.666 -5 -60.999c46.667 4 83 6 109 6c24 0 47.5 -1.33301 70.5 -4s62.5 -7.66699 118.5 -15c-11.333 117.333 -17 273.666 -17 468.999z" />
    <glyph glyph-name="a" unicode="a" horiz-adv-x="508" 
d="M255 -65c-43.333 0 -83.667 9.99805 -121 29.998s-67.166 47 -89.499 81s-33.5 71 -33.5 111c0 5.33301 0.666992 14 2 26c7.33301 54.667 27.666 97.334 60.999 128.001l-38 39l-12 9c5.33301 84.667 28.333 149.834 69 195.501s96.667 68.5 168 68.5
c56.667 0 105.5 -17.167 146.5 -51.5s72.833 -78.833 95.5 -133.5c9.33301 -22 15.5 -49.167 18.5 -81.5s4.83301 -74.833 5.5 -127.5c1.33301 -111.333 8 -209.333 20 -294l-10 -10c-28 4.66699 -61 7 -99 7c-37.333 0 -71 -2.33301 -101 -7l-20 17
c-19.333 -4.66699 -40 -7 -62 -7zM387.999 -0.00195312c29.333 0 59.0039 -1.66797 89.0039 -5.00098c-10.667 83.333 -16.667 178 -18 284c-2 60.667 -4.16699 104.667 -6.5 132s-7.5 51 -15.5 71c-33.333 82.667 -90 124 -170 124c-66.667 0 -118.834 -20 -156.501 -60
s-60.167 -98.333 -67.5 -175c31.333 8.66699 61 13 89 13c17.333 0 32.666 -1.33301 45.999 -4c3.33301 22 12 39 26 51s30 18 48 18c18.667 0 35.667 -6.33301 51 -19s25.666 -30.667 30.999 -54l-9 -11c-95.333 -2.66699 -166.333 -18.667 -213 -48
s-73.667 -74.666 -81 -135.999c-1.33301 -13.333 -2 -23 -2 -29c0 -49.333 16.167 -87 48.5 -113s73.166 -39 122.499 -39c30 0 58.333 4.33301 85 13l11 -18c33.333 3.33301 64 5 92 5zM211.503 216.497c25 15 53.499 22.5 85.499 22.5c11.333 0 22.333 -1 33 -3l-7 -61
c-4 -18 -14.833 -32.167 -32.5 -42.5s-36.5 -15.5 -56.5 -15.5c-17.333 0 -31.666 4 -42.999 12s-17 19.333 -17 34c0 20.667 12.5 38.5 37.5 53.5zM297.002 163.997c-20.667 -8 -35.333 -17 -44 -27c20 4.66699 34.667 13.667 44 27z" />
    <glyph glyph-name="b" unicode="b" horiz-adv-x="504" 
d="M171 -66c-40 0 -73.002 -2.99902 -99.002 -8.99902l-11 9l-39 41l-11 9c2 66.667 7.33301 151 16 253c0 7.33301 0.666992 17.666 2 30.999c8 102.667 14.167 188.667 18.5 258s6.5 137 6.5 203c0 40 -1 78.333 -3 115l10 9c37.333 -4.66699 64 -7 80 -7
c17.333 0 43.333 2.33301 78 7l60 -60c-5.33301 -55.333 -9.66602 -124.333 -12.999 -207c55.333 -6 104 -26.333 146 -61s74.5 -79.334 97.5 -134.001s34.5 -114.334 34.5 -179.001c0 -51.333 -8.16699 -97.166 -24.5 -137.499s-39.166 -71.666 -68.499 -93.999
s-63 -33.5 -101 -33.5h-72l2 -25c-24.667 8 -61 12 -109 12zM119.998 2.00098c30.667 0 60.667 -2.33398 90 -7.00098l-2 20h92c36 0 67.667 11.5 95 34.5s48 54.833 62 95.5s20 87.334 18 140.001c-4.66699 102.667 -28.334 176.5 -71.001 221.5s-109 66.167 -199 63.5
l-9 9c2.66699 88.667 7.33398 173.334 14.001 254.001c-28 -3.33301 -50.333 -5 -67 -5c-20.667 0 -45 2 -73 6c1.33301 -44 2 -77.333 2 -100c0 -67.333 -2.16699 -136.333 -6.5 -207s-10.5 -157.334 -18.5 -260.001l-6 -77c-6.66699 -96 -10.667 -161 -12 -195
c30.667 4.66699 61 7 91 7zM192.998 427c6.66699 0 18 0.667969 34 2.00098c14.667 1.33301 25 2 31 2c28 0 49.5 -13.333 64.5 -40s22.5 -58.667 22.5 -96c0 -32 -5.33301 -61 -16 -87s-25.667 -42.667 -45 -50c-16.667 -7.33301 -42.667 -10 -78 -8l-8 9
c-3.33301 91.333 -5 180.666 -5 267.999zM277.998 174.001c18 6.66699 32.168 20.499 42.501 41.499s15.5 43.167 15.5 66.5c0 22.667 -4.83301 41.5 -14.5 56.5s-23.834 22.5 -42.501 22.5l-18 -1c0 -65.333 1 -128.666 3 -189.999z" />
    <glyph glyph-name="c" unicode="c" horiz-adv-x="523" 
d="M430 -45c-33.333 -15.333 -68.334 -23.002 -105.001 -23.002c-52 0 -102.333 14.833 -151 44.5s-88 70.167 -118 121.5s-45 107.666 -45 168.999c0 60.667 13.5 117.334 40.5 170.001s63.167 94.5 108.5 125.5s93.666 46.5 144.999 46.5c40.667 0 78.334 -9 113.001 -27
s64 -41.5 88 -70.5s42.333 -59.5 55 -91.5l-4 -11c-18.667 -8.66699 -40.834 -21.667 -66.501 -39s-45.167 -35.333 -58.5 -54l-13 -2c-26 21.333 -53.667 32 -83 32c-30.667 0 -56.5 -11.5 -77.5 -34.5s-31.5 -54.167 -31.5 -93.5c0 -19.333 3 -36.666 9 -51.999
c10 -4 20.333 -6 31 -6c30.667 0 59.334 13.667 86.001 41l15 -2c9.33301 -17.333 20.333 -34.333 33 -51l70 -72c14.667 -14.667 30.667 -27 48 -37l2 -14c-27.333 -31.333 -57.666 -54.666 -90.999 -69.999zM357.999 179.998
c-27.333 -25.333 -56.665 -38.001 -87.998 -38.001c-21.333 0 -40.666 5.66699 -57.999 17s-30.833 27.333 -40.5 48s-13.834 44.334 -12.501 71.001c2.66699 41.333 16.167 74.5 40.5 99.5s53.166 37.5 86.499 37.5c30.667 0 59.667 -10.333 87 -31
c14 16.667 32.5 33 55.5 49s43.833 28.667 62.5 38c-16 38 -40 67.5 -72 88.5s-69.667 31.5 -113 31.5c-48 0 -93.333 -14.833 -136 -44.5s-76.834 -69.5 -102.501 -119.5s-38.5 -104.333 -38.5 -163c0 -52.667 11.167 -99.5 33.5 -140.5s52 -72.667 89 -95
s76.5 -33.5 118.5 -33.5c32 0 63.5 7 94.5 21s59.5 35 85.5 63c-37.333 24 -68 57.667 -92 101z" />
    <glyph glyph-name="d" unicode="d" horiz-adv-x="508" 
d="M258 -53c-42.667 0 -82.833 12.666 -120.5 37.999s-68 59.833 -91 103.5s-34.5 91.5 -34.5 143.5c0 15.333 1 31 3 47c14.667 104.667 47.5 183.167 98.5 235.5s119.167 76.833 204.5 73.5c2.66699 69.333 4 120 4 152c0 35.333 -1 70 -3 104l10 10
c37.333 -4.66699 64 -7 80 -7c17.333 0 43.333 2.33301 78 7l60 -60c-12 -144 -18 -295 -18 -453c0 -157.333 6 -292.666 18 -405.999l-11 -10c-26 6 -58.667 9 -98 9c-47.333 0 -84 -4 -110 -12l2 25h-72zM388.001 1.99902c30.667 0 60.668 -2.33105 90.001 -6.99805
c-11.333 115.333 -17 248.333 -17 399c0 150 5.66699 297 17 441c-26 -4 -49 -6 -69 -6c-20.667 0 -44.334 2 -71.001 6c1.33301 -20.667 2 -52.667 2 -96c0 -34.667 -1.33301 -88 -4 -160l-10 -9l-23 1c-150.667 0 -240.667 -98 -270 -294c-2 -16 -3 -31.667 -3 -47
c0 -40.667 7.5 -77.334 22.5 -110.001s36 -58.334 63 -77.001s57.833 -28 92.5 -28h90v-20c30.667 4.66699 60.667 7 90 7zM279.002 151.001c-21.333 0 -39.6689 3.00195 -55.002 9.00195c-18 6.66699 -31.667 20.167 -41 40.5s-14 43.833 -14 70.5
c0 39.333 8.83301 75.166 26.5 107.499s40.834 49.5 69.501 51.5c11.333 0.666992 22.833 0.166992 34.5 -1.5s21.167 -3.83398 28.5 -6.50098c-1.33301 -11.333 -2.66602 -27 -3.99902 -47l-17 -215l-8 -8zM295.999 246.003c1.33301 13.333 2.50195 29.501 3.50195 48.501
s2.83301 40.833 5.5 65.5c-20.667 -6.66699 -37.334 -24.334 -50.001 -53.001s-19 -59 -19 -91c0 -18 1.66699 -32.333 5 -43c17.333 -3.33301 33.666 -4.33301 48.999 -3z" />
    <glyph glyph-name="e" unicode="e" horiz-adv-x="544" 
d="M155 -13c-44 36 -79 81.5 -105 136.5s-39 111.5 -39 169.5c0 62 11.833 118.167 35.5 168.5s56 90 97 119s86.5 43.5 136.5 43.5c55.333 0 106.333 -17.833 153 -53.5s83.334 -82.5 110.001 -140.5s40 -118.667 40 -182l-171 -56c3.33301 -12.667 9.66602 -24 18.999 -34
s19.666 -15.333 30.999 -16c12 -50.667 40 -94 84 -130v-14c-26 -22 -58.667 -39.5 -98 -52.5s-79.666 -19.5 -120.999 -19.5c-13.333 0 -23.333 0.333008 -30 1c-50.667 4 -98 24 -142 60zM277 -6c37.333 0 73.665 5.50195 108.998 16.502s65.333 25.833 90 44.5
c-38 34 -64 73.667 -78 119c-13.333 -10 -30.666 -18.5 -51.999 -25.5s-41.666 -10.5 -60.999 -10.5c-11.333 0 -21 1.33301 -29 4c-30 10 -54.667 30 -74 60l333 109c-0.666992 60 -10.667 112.167 -30 156.5s-46.5 78.5 -81.5 102.5s-76.167 36 -123.5 36
s-90 -13.667 -128 -41s-68 -64.833 -90 -112.5s-33 -100.834 -33 -159.501c0 -56 9 -105.833 27 -149.5s43.667 -78.334 77 -104.001s72 -40.5 116 -44.5c6 -0.666992 15.333 -1 28 -1zM196.999 407.502c22 25.667 46.332 38.5 72.999 38.5
c16.667 0 32.334 -5.66699 47.001 -17s26.667 -28.333 36 -51l-195 -72c4 42 17 75.833 39 101.5zM372.998 179.002l-67 -21c22 2.66699 44.333 9.66699 67 21z" />
    <glyph glyph-name="f" unicode="f" horiz-adv-x="345" 
d="M67 398l-14.002 -0.00292969l-46 50c6 14.667 11 33.834 15 57.501s6 45.834 6 66.501c0 20 -1.66699 33 -5 39h53c8 89.333 29.833 154.5 65.5 195.5s87.834 61.5 156.501 61.5c44.667 0 81.667 -8.33301 111 -25c16 -23.333 32.667 -40 50 -50
c-16 -18.667 -32 -41.5 -48 -68.5s-24.333 -52.833 -25 -77.5l-12 -8c-3.33301 1.33301 -7.66602 2 -12.999 2c-15.333 0 -28.666 -10 -39.999 -30l33 -52c-14.667 -45.333 -22 -87.333 -22 -126c0 -17.333 1.33301 -31.333 4 -42l-56 1
c-0.666992 -15.333 -1 -38.666 -1 -69.999c0 -63.333 2.83301 -129.333 8.5 -198s13.5 -131.334 23.5 -188.001l-10 -11c-28.667 4.66699 -62 7 -100 7c-36.667 0 -69.334 -2.33301 -98.001 -7l-60 60c10.667 88.667 18.667 226.334 24 413.001zM150.998 -0.00292969
c28 0 58.002 -1.66309 90.002 -4.99609c-9.33301 59.333 -16.833 123 -22.5 191s-8.5 133 -8.5 195c0 19.333 0.666992 45.666 2 78.999l53 -1c-0.666992 5.33301 -1 13.333 -1 24c0 32.667 5.33301 68.667 16 108h-52c9.33301 42 21.666 73 36.999 93s33.333 28 54 24
c2.66699 21.333 10 43.5 22 66.5s25.333 43.5 40 61.5c-24.667 9.33301 -52.334 14 -83.001 14c-66 0 -115 -20.167 -147 -60.5s-51.667 -105.833 -59 -196.5h-47c0.666992 -4.66699 1 -12.334 1 -23.001c0 -37.333 -4.66699 -72 -14 -104l54 -2l-1 -45
c-2.66699 -94.667 -5.66699 -175.334 -9 -242.001s-8 -127.334 -14 -182.001c31.333 3.33301 61 5 89 5z" />
    <glyph glyph-name="g" unicode="g" horiz-adv-x="525" 
d="M35.5 -250c11.667 20 22 42 31 66s13.833 45.333 14.5 64l13 8c44.667 -23.333 81.667 -35 111 -35c13.333 0 25 2 35 6c18.667 8 36.667 30.333 54 67c-58 2 -107.833 19.5 -149.5 52.5s-73.334 75.667 -95.001 128s-32.5 107.5 -32.5 165.5
c0 52.667 9 102.834 27 150.501s45 88.5 81 122.5s80 56.667 132 68c16.667 3.33301 31.334 5 44.001 5l35 37c41.333 -6.66699 71.666 -10 90.999 -10s45 2.66699 77 8l60 -60c-9.33301 -90.667 -16.333 -236.334 -21 -437.001c-2.66699 -98 -5 -159 -7 -183
c-11.333 -117.333 -41.666 -207 -90.999 -269s-114.333 -93 -195 -93c-58.667 0 -123 16.333 -193 49l-50 50c7.33301 6.66699 16.833 20 28.5 40zM201 -322c75.333 0 135.996 29.499 181.996 88.499s74.333 145.167 85 258.5c2.66699 24 5 84.333 7 181
c4.66699 192.667 11.334 335 20.001 427c-28.667 -3.33301 -51.667 -5 -69 -5c-16.667 0 -40.667 1.66699 -72 5l1 -39c-16 4 -31.667 6 -47 6c-13.333 0 -29 -1.66699 -47 -5c-49.333 -10 -91.5 -31.833 -126.5 -65.5s-61.333 -73.667 -79 -120
s-26.5 -94.166 -26.5 -143.499c0 -48.667 8.5 -93.667 25.5 -135s42.667 -74.5 77 -99.5s75.5 -37.5 123.5 -37.5c22.667 0 45.334 2.66699 68.001 8l11 -11c-10 -40 -22.667 -73 -38 -99s-32 -42.333 -50 -49c-12 -4.66699 -26 -7 -42 -7c-30.667 0 -66 10 -106 30
c-3.33301 -23.333 -11.166 -49 -23.499 -77s-25.166 -52 -38.499 -72c60 -26 115 -39 165 -39zM183.996 171.999c-19.333 28.667 -29.002 62.3311 -29.002 100.998c0 40 10 75.167 30 105.5s48 47.5 84 51.5c4 0.666992 10 1 18 1c24.667 0 47.334 -5 68.001 -15l5 -8v-59
c0 -72 -1.33301 -134.333 -4 -187c0 -17.333 -8.5 -27.666 -25.5 -30.999s-38.5 -4.66602 -64.5 -3.99902c-35.333 1.33301 -62.666 16.333 -81.999 45zM318.494 146.496c13 1.66699 19.5 6.83496 19.5 15.502c2.66699 65.333 4 119.666 4 162.999v38
c-9.33301 0 -16.333 -0.333008 -21 -1c-30.667 -4 -54.667 -19.667 -72 -47s-26 -58.333 -26 -93c0 -26.667 5 -50.334 15 -71.001c8 -4 17.333 -6 28 -6c22 -0.666992 39.5 -0.166992 52.5 1.5z" />
    <glyph glyph-name="h" unicode="h" horiz-adv-x="550" 
d="M321 10c10.667 124 16.001 215.996 16.001 275.996c0 30 -1.33301 51.333 -4 64l-1 6c-16.667 1.33301 -32 -4.16699 -46 -16.5s-22.333 -30.166 -25 -53.499c2 -104 8 -210 18 -318l-11 -10c-24.667 6 -57.334 9 -98.001 9c-39.333 0 -72 -3 -98 -9l-11 10l-39 40
l-11 10c1.33301 24.667 3.33301 53.667 6 87l6 76l6 71c8.66699 102 15.167 185.833 19.5 251.5s6.5 132.167 6.5 199.5c0 50.667 -1.33301 96.334 -4 137.001l10 9c37.333 -4.66699 64 -7 80 -7c17.333 0 43.333 2.33301 78 7l60 -60c-6.66699 -89.333 -11 -157 -13 -203
c33.333 1.33301 67 -5.66699 101 -21s64.333 -36.666 91 -63.999s47 -56.666 61 -87.999c10 -22.667 17.667 -50.5 23 -83.5s11 -79.5 17 -139.5l3 -24l4 -41c8 -76 15.667 -139.333 23 -190l-10 -10c-34.667 4.66699 -67.667 7 -99 7c-30 0 -63.667 -2.33301 -101 -7
l-60 60zM433.001 -0.00390625c27.333 0 56.002 -1.66797 86.002 -5.00098c-6.66699 47.333 -13 101 -19 161l-6 58c-6.66699 68 -12.667 119.333 -18 154s-13 63.667 -23 87c-32.667 76 -89.667 114 -171 114c-6 0 -15.667 -0.666992 -29 -2c-17.333 -2 -33 -5 -47 -9l-11 9
c2.66699 82.667 7.66699 170.334 15 263.001c-26 -4 -49 -6 -69 -6c-20.667 0 -44.334 2 -71.001 6c2 -40 3 -79.333 3 -118c0 -69.333 -2.16699 -137.666 -6.5 -204.999s-10.833 -153 -19.5 -257c-8 -94.667 -13.667 -168.667 -17 -222c24 4.66699 54 7 90 7
c36.667 0 66.667 -2.33301 90 -7c-9.33301 109.333 -15 212 -17 308v1c2.66699 27.333 12.167 48.666 28.5 63.999s34.5 23 54.5 23c17.333 0 33.166 -6 47.499 -18s23.5 -29.333 27.5 -52c2.66699 -13.333 4 -35 4 -65c0 -60.667 -5.66699 -159 -17 -295
c30 4 61.667 6 95 6z" />
    <glyph glyph-name="i" unicode="i" horiz-adv-x="256" 
d="M132.5 628c-21 12 -37.667 28.5 -50 49.5s-18.5 44.167 -18.5 69.5c0 27.333 9.16699 50.5 27.5 69.5s40.833 28.5 67.5 28.5c24.667 0 47.5 -7.66699 68.5 -23s37.5 -33.833 49.5 -55.5s18 -41.5 18 -59.5c0 -26.667 -9.33301 -49.5 -28 -68.5s-40.667 -28.5 -66 -28.5
c-24.667 0 -47.5 6 -68.5 18zM204.5 701.5c15 15.667 22.5 34.166 22.5 55.499c0 20 -6.5 36.667 -19.5 50s-29.167 20 -48.5 20c-21.333 0 -39.5 -7.66699 -54.5 -23s-22.5 -33.666 -22.5 -54.999c0 -20.667 6.5 -37.667 19.5 -51s29.5 -20 49.5 -20
c20.667 0 38.5 7.83301 53.5 23.5zM22 -25.001l-11 9.99902l6 70c8.66699 103.333 14.834 190.333 18.501 261s5.5 162.334 5.5 275.001l10 9c37.333 -4.66699 65.666 -7 84.999 -7c20.667 0 48.334 2.33301 83.001 7l60 -60c-12 -144 -18 -254.667 -18 -332
c0 -76.667 6 -167.667 18 -273l-11 -10c-24.667 6 -57.334 9 -98.001 9c-39.333 0 -72 -3 -98 -9l-11 10zM120 1.99805c30.667 0 60.667 -2.33203 90 -6.99902c-12 100.667 -18 188.667 -18 264c0 76.667 6 184 18 322c-26 -4 -50.667 -6 -74 -6s-49 2 -77 6
c0 -106.667 -1.66699 -194.334 -5 -263.001s-9.33301 -153.667 -18 -255l-6 -68c30.667 4.66699 60.667 7 90 7z" />
    <glyph glyph-name="j" unicode="j" horiz-adv-x="270" 
d="M142.5 606.5c-21 13.667 -37 30.999 -48 51.999s-16.5 42.5 -16.5 64.5c0 27.333 9.16699 50.5 27.5 69.5s40.833 28.5 67.5 28.5c24 0 46.5 -6.83301 67.5 -20.5s37.667 -31.167 50 -52.5s18.5 -42.666 18.5 -63.999c0 -27.333 -9.16699 -50.5 -27.5 -69.5
s-40.5 -28.5 -66.5 -28.5c-27.333 0 -51.5 6.83301 -72.5 20.5zM218.5 677.499c15 15.667 22.5 34.166 22.5 55.499c0 20 -6.5 36.667 -19.5 50s-29.167 20 -48.5 20c-21.333 0 -39.5 -7.66699 -54.5 -23s-22.5 -33.666 -22.5 -54.999c0 -20.667 6.5 -37.667 19.5 -51
s29.5 -20 49.5 -20c20.667 0 38.5 7.83301 53.5 23.5zM-54 -335.002l-50.001 49.998l-3 14c12.667 14 26.667 38 42 72s23.333 62 24 84l13 8c8 -3.33301 14.667 -5 20 -5c14.667 0 27.5 9.5 38.5 28.5s20.167 48.167 27.5 87.5c12.667 61.333 19 170 19 326
c0 98 -1.66699 179.667 -5 245l10 9c37.333 -4.66699 64 -7 80 -7c17.333 0 43.333 2.33301 78 7l60 -60c-6 -45.333 -10.167 -97.666 -12.5 -156.999s-5.16602 -140.666 -8.49902 -243.999l-1 -37c-2 -80 -4 -136.333 -6 -169c-4.66699 -94 -25.167 -162.667 -61.5 -206
s-90.833 -65 -163.5 -65c-39.333 0 -73 6.33301 -101 19zM146.999 -226.004c32.667 40 51.6689 105.001 57.002 195.001c2 30.667 4 86.667 6 168c4.66699 199.333 11.667 341.666 21 426.999c-28 -3.33301 -50.333 -5 -67 -5c-21.333 0 -46 2 -74 6
c3.33301 -66.667 5 -145.667 5 -237c0 -152 -6.33301 -261.333 -19 -328c-16.667 -86 -44.334 -129 -83.001 -129c-7.33301 0 -13 0.666992 -17 2c-3.33301 -22 -11.333 -47.333 -24 -76s-25 -52 -37 -70c23.333 -8.66699 50.666 -13 81.999 -13c67.333 0 117.333 20 150 60
z" />
    <glyph glyph-name="k" unicode="k" horiz-adv-x="527" 
d="M331 -23l-14.9951 5.00391c-4 17.333 -7.33301 30.333 -10 39l-22 91l-11 49l-7 -5c3.33301 -68.667 7.66602 -131.334 12.999 -188.001l-11 -10c-24.667 6 -57.334 9 -98.001 9c-39.333 0 -72 -3 -98 -9l-11 10l-39 40l-11 10l13 149l3 32
c9.33301 112 16.333 205 21 279s7 148.333 7 223c0 31.333 -1.33301 77.666 -4 138.999l10 9c37.333 -4.66699 64 -7 80 -7c17.333 0 43.333 2.33301 78 7l60 -60c-8.66699 -112.667 -14.334 -213.667 -17.001 -303c41.333 44 78 84.667 110 122l15 -2
c5.33301 -10 11.5 -19 18.5 -27s17.5 -15.667 31.5 -23c13.333 -25.333 32.5 -54.666 57.5 -87.999s47.833 -59.333 68.5 -78v-14c-44.667 -36.667 -81.334 -65.334 -110.001 -86.001c9.33301 -32.667 22.166 -67.834 38.499 -105.501s40.5 -88.5 72.5 -152.5l-6 -13
c-25.333 -6.66699 -55.833 -19.334 -91.5 -38.001s-64.167 -36.667 -85.5 -54l-15 5zM408.505 48.0039c31 16 59.166 28.0029 84.499 36.0029c-30 60.667 -53.167 110.167 -69.5 148.5s-29.5 74.833 -39.5 109.5l4 9c40.667 29.333 75.667 56.666 105 81.999
c-19.333 19.333 -40.166 43.666 -62.499 72.999s-40.166 56 -53.499 80c-62 -72 -118.333 -132 -169 -180l-15 6c-0.666992 118 5 257.333 17 418c-26 -4 -49 -6 -69 -6c-20.667 0 -44.334 2 -71.001 6c2 -40 3 -80.333 3 -121c0 -76.667 -2.33301 -152.834 -7 -228.501
s-11.667 -170.5 -21 -284.5l-3 -31c-4.66699 -46.667 -8.66699 -92.334 -12 -137.001c24 4.66699 54 7 90 7c36.667 0 66.667 -2.33301 90 -7c-4 41.333 -8 103.333 -12 186l34 26c14 10.667 21.667 16.334 23 17.001l14 -5l33 -135l28 -117c21.333 16 47.5 32 78.5 48z" />
    <glyph glyph-name="l" unicode="l" horiz-adv-x="240" 
d="M22 -25l-10.998 9.99805l4 52c11.333 128.667 20.666 248 27.999 358s11 213.667 11 311c0 48 -1 92.333 -3 133l10 10c32 -4 58.667 -6 80 -6c22 0 48 2 78 6l60 -60c-12.667 -127.333 -19 -277.666 -19 -450.999c0 -169.333 6.33301 -303.666 19 -402.999l-11 -10
c-26.667 5.33301 -59.334 8 -98.001 8c-37.333 0 -70 -2.66699 -98 -8l-11 10zM120.002 0.998047c35.333 0 65.334 -2.00293 90.001 -6.00293c-12 102 -18 233.333 -18 394c0 165.333 6 312.333 18 441c-28.667 -3.33301 -51.667 -5 -69 -5s-41 1.66699 -71 5
c2 -38 3 -78.333 3 -121c0 -93.333 -3.5 -193.166 -10.5 -299.499s-16.167 -223.166 -27.5 -350.499c-0.666992 -17.333 -2.33398 -38.666 -5.00098 -63.999c26 4 56 6 90 6z" />
    <glyph glyph-name="m" unicode="m" horiz-adv-x="848" 
d="M619 7c0.666992 11.333 3.49805 51.833 8.49805 121.5s7.5 130.834 7.5 183.501c0 32.667 -1.33301 55.334 -4 68.001l-2 7c-17.333 1.33301 -33 -5 -47 -19s-21.667 -33.667 -23 -59c-0.666992 -6 -1 -23 -1 -51c0 -18.667 0.333008 -30.334 1 -35.001l5 -43l3 -34
l22 -200l-10 -10c-34.667 4.66699 -67.667 7 -99 7c-30 0 -63.667 -2.33301 -101 -7l-60 60l2 28c10.667 132 16 228.333 16 289c0 32 -1.33301 54.333 -4 67l-2 7c-15.333 2 -29.5 -2.5 -42.5 -13.5s-21.5 -27.167 -25.5 -48.5c0.666992 -108.667 6 -227.334 16 -356.001
l-11 -10c-24.667 6 -57.334 9 -98.001 9c-39.333 0 -72 -3 -98 -9l-11 10l-39 40l-11 10c10 124 17.667 229.833 23 317.5s8 172.5 8 254.5l-1 53l11 9c30.667 -5.33301 58.334 -8 83.001 -8c26.667 0 55 3.33301 85 10l31 -35c6.66699 0.666992 16.334 1 29.001 1
c60 0 107.333 -18 142 -54c40 36 92 54 156 54c60 0 109 -15.833 147 -47.5s68.667 -74.5 92 -128.5c11.333 -26 19.833 -58.667 25.5 -98s11.834 -95 18.501 -167c7.33301 -84 16 -165.667 26 -245l-10 -10c-34.667 4.66699 -67.667 7 -99 7
c-30 0 -63.667 -2.33301 -101 -7l-60 60zM727.998 0c32 0 62.001 -2.00098 90.001 -6.00098c-8 59.333 -16.333 137.666 -25 234.999c-7.33301 75.333 -13.666 131.333 -18.999 168s-13 66.667 -23 90c-33.333 78 -90.333 117 -171 117c-64 0 -114.667 -18.667 -152 -56h-13
c-32.667 36.667 -77.334 55 -134.001 55c-12 0 -21.333 -0.333008 -28 -1c-3.33301 -0.666992 -11 -1.83398 -23 -3.50098s-22.667 -4.5 -32 -8.5l2 43c-21.333 -4 -43 -6 -65 -6c-24.667 0 -50 2 -76 6v-44c0 -130.667 -9.66699 -317.334 -29 -560.001
c24 4.66699 54 7 90 7c36.667 0 66.667 -2.33301 90 -7c-9.33301 128.667 -14.333 244.334 -15 347.001v1c4 24.667 13.667 43.834 29 57.501s32.333 20.5 51 20.5c18 0 34.167 -6.16699 48.5 -18.5s23.5 -29.833 27.5 -52.5c2.66699 -13.333 4 -36 4 -68
c0 -65.333 -5.66699 -169 -17 -311c30 4 60.667 6 92 6c32 0 62 -2 90 -6c-2.66699 22 -5.5 47.167 -8.5 75.5s-5.5 50.5 -7.5 66.5l-5 47l-3 32l-5 45c-0.666992 5.33301 -1 17.666 -1 36.999c0 28.667 0.333008 46.334 1 53.001c2 29.333 11.167 52.5 27.5 69.5
s35.166 25.5 56.499 25.5c17.333 0 33 -6.16699 47 -18.5s23 -30.166 27 -53.499c2.66699 -13.333 4 -36.666 4 -69.999c0 -71.333 -5.66699 -178 -17 -320c30 4 60.667 6 92 6z" />
    <glyph glyph-name="n" unicode="n" horiz-adv-x="550" 
d="M321 7c0.666992 11.333 3.49902 51.833 8.49902 121.5s7.5 130.834 7.5 183.501c0 32.667 -1.33301 55.334 -4 68.001l-2 7c-15.333 2 -29.5 -2.5 -42.5 -13.5s-21.5 -27.167 -25.5 -48.5c0.666992 -108.667 6 -227.334 16 -356.001l-11 -10
c-24.667 6 -57.334 9 -98.001 9c-39.333 0 -72 -3 -98 -9l-11 10l-39 40l-11 10c3.33301 57.333 8 127.666 14 210.999c6 84.667 10.333 152.667 13 204s4 103 4 155l-1 55l11 9c30.667 -5.33301 58.334 -8 83.001 -8c26.667 0 55 3.33301 85 10l31 -35
c5.33301 0.666992 13 1 23 1c112 0 193.667 -58.667 245 -176c11.333 -26 19.833 -58.667 25.5 -98s11.834 -95 18.501 -167c7.33301 -84 16 -165.667 26 -245l-10 -10c-34.667 4.66699 -67.667 7 -99 7c-30 0 -63.667 -2.33301 -101 -7l-60 60zM429.999 0
c32 0 61.999 -2.00098 89.999 -6.00098c-8 59.333 -16.333 137.666 -25 234.999c-7.33301 75.333 -13.666 131.333 -18.999 168s-13 66.667 -23 90c-32.667 78 -89.667 117 -171 117c-6 0 -15.667 -0.666992 -29 -2c-3.33301 -0.666992 -11 -1.83398 -23 -3.50098
s-22.667 -4.5 -32 -8.5l2 43c-21.333 -4 -43 -6 -65 -6c-24.667 0 -50 2 -76 6v-42c0 -87.333 -5.33301 -208 -16 -362c-4 -50 -8.33301 -116.667 -13 -200c24 4.66699 54 7 90 7c36.667 0 66.667 -2.33301 90 -7c-9.33301 128.667 -14.333 244.334 -15 347.001v1
c4 24.667 13.667 43.834 29 57.501s32.333 20.5 51 20.5c18 0 34.167 -6.16699 48.5 -18.5s23.5 -29.833 27.5 -52.5c2.66699 -13.333 4 -36.666 4 -69.999c0 -71.333 -5.66699 -178 -17 -320c30 4 60.667 6 92 6z" />
    <glyph glyph-name="o" unicode="o" horiz-adv-x="549" 
d="M144.5 -19c-45 37.333 -79.167 84.668 -102.5 142.001s-33.333 114.333 -30 171c4 62.667 18.667 119.167 44 169.5s58.5 89.666 99.5 117.999s86.167 42.5 135.5 42.5c54 0 103.5 -19.833 148.5 -59.5s80.5 -90.5 106.5 -152.5s39 -124.667 39 -188
c0 -38 -5.33301 -74 -16 -108s-26.667 -64 -48 -90c-29.333 -34.667 -63 -60.167 -101 -76.5s-78.667 -24.5 -122 -24.5c-57.333 0 -108.5 18.667 -153.5 56zM369.5 17.002c32.333 16.667 61.499 40.332 87.499 70.999c20.667 24.667 36.5 55 47.5 91s16.5 73.667 16.5 113
c0 52.667 -9 103.167 -27 151.5s-44.5 87.5 -79.5 117.5s-76.167 45 -123.5 45c-46.667 0 -89.167 -13.5 -127.5 -40.5s-69.333 -64.333 -93 -112s-37.167 -101.5 -40.5 -161.5l-1 -22c0 -52 10.333 -99.167 31 -141.5s49.334 -75.666 86.001 -99.999
s77.667 -36.5 123 -36.5c34.667 0 68.167 8.33301 100.5 25zM186.499 181.5c-21 27 -30.167 60.834 -27.5 101.501c3.33301 43.333 15.833 77.333 37.5 102s50.5 37 86.5 37c33.333 0 59.333 -13.333 78 -40s28 -58.334 28 -95.001c0 -39.333 -10.5 -73.5 -31.5 -102.5
s-50.167 -43.5 -87.5 -43.5c-34.667 0 -62.5 13.5 -83.5 40.5zM341.999 194.001c19.333 26 28.9971 57.001 28.9971 93.001c0 23.333 -4 44.333 -12 63c-7.33301 2.66699 -16 4 -26 4c-31.333 0 -56.166 -10.833 -74.499 -32.5s-28.833 -51.834 -31.5 -90.501
c-1.33301 -26.667 2.33398 -49 11.001 -67c4.66699 -2 12.334 -3.66699 23.001 -5c34.667 -2.66699 61.667 9 81 35z" />
    <glyph glyph-name="p" unicode="p" horiz-adv-x="504" 
d="M22 -266l-11.001 9c2 67.333 8 165.666 18 294.999c8 104.667 14.167 192.5 18.5 263.5s6.5 140.833 6.5 209.5c0 40.667 -1 80.334 -3 119.001l10 9c37.333 -4.66699 64 -7 80 -7c23.333 0 53 3 89 9l40 -30h30c49.333 0 92.5 -17 129.5 -51s65.167 -79 84.5 -135
s29 -116.667 29 -182c0 -61.333 -11.5 -116.5 -34.5 -165.5s-52.167 -87.667 -87.5 -116s-70.666 -44.166 -105.999 -47.499c-14.667 -1.33301 -31.667 -2 -51 -2c3.33301 -82.667 8.33301 -155.334 15 -218.001l-11 -10c-25.333 6 -58 9 -98 9c-39.333 0 -72 -3 -98 -9
l-11 9zM119.999 -239c30.667 0 60.668 -2.33105 90.001 -6.99805c-6 55.333 -10.667 130.666 -14 225.999c24.667 0 47 0.666992 67 2c34 4 67.333 19.167 100 45.5s59.5 62.5 80.5 108.5s31.5 98.333 31.5 157c0 101.333 -14.5 176.666 -43.5 225.999s-72.833 74 -131.5 74
l-92 -2l2 29c-24.667 -4 -47.667 -6 -69 -6c-20.667 0 -44.334 2 -71.001 6c1.33301 -45.333 2 -80 2 -104c0 -69.333 -2.16699 -140.5 -6.5 -213.5s-10.5 -161.5 -18.5 -265.5l-6 -80c-6.66699 -100 -10.667 -167.667 -12 -203c30 4.66699 60.333 7 91 7zM199 424.002l8 9
c36 4 60.667 6 74 6c22 0 39.167 -13 51.5 -39s18.5 -57.667 18.5 -95c0 -44 -8 -84 -24 -120s-37.333 -56 -64 -60c-3.33301 -0.666992 -12.333 -1.5 -27 -2.5s-26 -1.5 -34 -1.5l-9 9c0 117.333 2 215.333 6 294zM313.5 198.502c13 34.333 19.5 71.832 19.5 112.499
c0 19.333 -2.33301 39.333 -7 60c-16 0 -35.667 -1.66699 -59 -5c-2.66699 -49.333 -4.66699 -123.666 -6 -222.999c22 2.66699 39.5 21.167 52.5 55.5z" />
    <glyph glyph-name="q" unicode="q" horiz-adv-x="504" 
d="M286 -258l-11 9c1.33301 31.333 4.66602 88.333 9.99902 171c-51.333 0.666992 -97.666 11.667 -138.999 33s-74.166 53.5 -98.499 96.5s-36.5 95.833 -36.5 158.5c0 100.667 10.833 180 32.5 238s56.834 100 105.501 126s115.667 39 201 39l32 -1h112l50 -50
c-12.667 -147.333 -19 -300.333 -19 -459c0 -151.333 6 -285 18 -401l-11 -10c-28.667 6.66699 -61.334 10 -98.001 10s-69.334 -3.33301 -98.001 -10l-11 9zM383 -231c36.667 0 67 -2.33496 91 -7.00195c-11.333 118.667 -17 250.334 -17 395.001
c0 142.667 5.66699 288.334 17 437.001h-92h-30c-82 0 -146.167 -12.167 -192.5 -36.5s-79.666 -64 -99.999 -119s-30.5 -131.167 -30.5 -228.5c0 -138.667 70.667 -212 212 -220c4 -0.666992 13.333 -1 28 -1l29 -1l9 -10c-6.66699 -84.667 -11.334 -156.667 -14.001 -216
c24 4.66699 54 7 90 7zM320.5 128.498c-3 -0.333008 -6.83301 -0.498047 -11.5 -0.498047c-11.333 0 -24.166 0.5 -38.499 1.5s-24.5 2.16699 -30.5 3.5c-26.667 5.33301 -47.5 22 -62.5 50s-22.5 60.333 -22.5 97c0 33.333 6.5 64.166 19.5 92.499s31.5 48.166 55.5 59.499
c21.333 10 44.333 15 69 15c5.33301 0 14.666 -0.666992 27.999 -2l8 -9c-0.666992 -70.667 -5.66699 -172.667 -15 -306c3.33301 -0.666992 3.5 -1.16699 0.5 -1.5zM316 375c-9.33301 -2 -18.667 -5.00098 -28 -9.00098c-21.333 -9.33301 -37.5 -26.166 -48.5 -50.499
s-16.5 -51.5 -16.5 -81.5s5.66699 -57.333 17 -82l4 -1c6 -2 25.667 -3.66699 59 -5c6.66699 100.667 11 177 13 229z" />
    <glyph glyph-name="r" unicode="r" horiz-adv-x="375" 
d="M22 -25l-10.999 9.99609c20.667 260.667 31 462.334 31 605.001l-1 54l11 9c30.667 -5.33301 58.334 -8 83.001 -8c26.667 0 55 3.33301 85 10l31 -35c14.667 1.33301 24.667 2 30 2c41.333 0 78 -10 110 -30s64.667 -51.333 98 -94
c-13.333 -5.33301 -31.333 -21.666 -54 -48.999s-40.334 -54.666 -53.001 -81.999l-15 -2c-13.333 16 -29.333 24 -48 24c-15.333 0 -28.5 -5.66699 -39.5 -17s-16.5 -26.666 -16.5 -45.999c0 -158 5.33301 -288.333 16 -391l-11 -10c-24.667 6 -57.334 9 -98.001 9
c-39.333 0 -72 -3 -98 -9l-11 10zM120.001 1.99609c30.667 0 60.666 -2.33203 89.999 -6.99902c-10 105.333 -15 232.333 -15 381c0.666992 24 8.33398 43.5 23.001 58.5s32 22.5 52 22.5c18.667 0 36 -7 52 -21c11.333 22 25.5 44 42.5 66s32.833 38.667 47.5 50
c-32.667 34.667 -76 52 -130 52c-6 0 -15.667 -0.666992 -29 -2c-3.33301 -0.666992 -11 -1.83398 -23 -3.50098s-22.667 -4.5 -32 -8.5l2 43c-21.333 -4 -43 -6 -65 -6c-24.667 0 -50 2 -76 6v-44c0 -152 -9.66699 -350 -29 -594c30.667 4.66699 60.667 7 90 7z" />
    <glyph glyph-name="s" unicode="s" horiz-adv-x="451" 
d="M15 47c16 10.667 34.1641 28.001 54.4971 52.001s36.833 47.333 49.5 70l13 4c20.667 -14 39.667 -21 57 -21c8 0 14.333 1.66699 19 5s7 8 7 14c0 4 -1 8 -3 12c-2.66699 10 -8.83398 19 -18.501 27s-23.834 18 -42.501 30c-31.333 20 -55.666 39.167 -72.999 57.5
s-27.666 42.833 -30.999 73.5c-0.666992 5.33301 -1 13.666 -1 24.999c0 38 7.83301 74.333 23.5 109s39.334 63.167 71.001 85.5s70.5 33.5 116.5 33.5c38 0 68 -3.33301 90 -10s41.833 -17.167 59.5 -31.5s44.834 -39.833 81.501 -76.5l-2 -13
c-17.333 -12.667 -35.666 -33.167 -54.999 -61.5s-32 -53.166 -38 -74.499l-15 -4c-16 16 -33.667 24 -53 24c-12.667 0 -23 -3.5 -31 -10.5s-12.333 -16.833 -13 -29.5l27 -17c49.333 -33.333 88.833 -69.5 118.5 -108.5s44.5 -78.5 44.5 -118.5
c0 -36 -10.5 -66.833 -31.5 -92.5s-48.5 -45 -82.5 -58s-70.667 -19.5 -110 -19.5c-34 0 -67 5.16699 -99 15.5s-60 25.166 -84 44.499l-50 50zM111.997 2.00098c28.667 -8.66699 57.999 -12.9932 87.999 -12.9932c36 0 69.333 6 100 18s55.5 29.667 74.5 53
s28.5 51 28.5 83c0 37.333 -8.83301 67.833 -26.5 91.5s-43.834 47.5 -78.501 71.5l-32 19c-18 9.33301 -31.333 18.166 -40 26.499s-13 19.166 -13 32.499c0 18.667 6 33.5 18 44.5s26.667 16.5 44 16.5c19.333 0 37.666 -6.66699 54.999 -20
c8 21.333 20.5 44.166 37.5 68.499s33.833 43.5 50.5 57.5c-20.667 20 -43.334 34.167 -68.001 42.5s-55.667 12.5 -93 12.5c-42 0 -77.667 -10 -107 -30s-51.166 -45.667 -65.499 -77s-21.5 -64.333 -21.5 -99c0 -6 0.666992 -15 2 -27
c2.66699 -27.333 11.5 -48.833 26.5 -64.5s30.833 -28.667 47.5 -39l33 -20.5c20.667 -14 35.834 -27.667 45.501 -41s14.5 -26 14.5 -38c0 -10.667 -4 -19.334 -12 -26.001s-18.667 -10 -32 -10c-19.333 0 -38.666 6 -57.999 18c-12 -20.667 -26.833 -41.334 -44.5 -62.001
s-34.5 -37.334 -50.5 -50.001c22.667 -16.667 48.334 -29.334 77.001 -38.001z" />
    <glyph glyph-name="t" unicode="t" horiz-adv-x="338" 
d="M185 -38c-43.333 26 -73.5029 66.1689 -90.5029 120.502s-25.5 127.166 -25.5 218.499c0 34.667 1 72 3 112h-15l-50 50c6 14.667 11 33.667 15 57s6 45.333 6 66c0 20 -1.66699 33 -5 39h54v33c0 33.333 -1 67 -3 101l10 10c34.667 -3.33301 60.667 -5 78 -5
c18.667 0 45.334 1.66699 80.001 5l60 -60l-10 -75l62 -61c-14.667 -45.333 -22 -87.333 -22 -126c0 -16.667 1.33301 -30.334 4 -41.001l-47 1c-1.33301 -56 -2 -91.667 -2 -107c0 -47.333 1.66699 -81 5 -101l10 -1c2.66699 0 7.33398 0.666992 14.001 2l11 -10l39 -40
l11 -10c-5.33301 -32 -8 -68.333 -8 -109c0 -37.333 2.66699 -69 8 -95l-8 -11c-79.333 -1.33301 -140.666 11 -183.999 37zM300.997 80.002c0 38 2.00195 71.335 6.00195 100.002c-20 -1.33301 -38 4.66699 -54 18s-26 31 -30 53c-2.66699 15.333 -4 48 -4 98
c0 20 0.666992 62 2 126l44 -1c-0.666992 4.66699 -1 12.667 -1 24c0 32 5.33301 67.667 16 107h-55c1.33301 16 2.66602 40.333 3.99902 73l4 72c-24 -2.66699 -47.667 -4 -71 -4c-22.667 0 -45.667 1.33301 -69 4c1.33301 -46.667 2 -81.667 2 -105v-38h-50
c0.666992 -4.66699 1 -12.334 1 -23.001c0 -36.667 -4.66699 -71 -14 -103l60 -2l-2 -53c-0.666992 -16 -1.33398 -34.333 -2.00098 -55s-1 -43.667 -1 -69c0 -72.667 5.66699 -131.667 17 -177s33 -79.833 65 -103.5s78 -33.5 138 -29.5c-4 21.333 -6 50.666 -6 87.999z
" />
    <glyph glyph-name="u" unicode="u" horiz-adv-x="507" 
d="M282 -68c-50.667 0 -98.166 15.5 -142.499 46.5s-78.166 73.833 -101.499 128.5c-10 24 -16.5 67.667 -19.5 131s-4.83301 145.666 -5.5 246.999c0 70.667 -0.666992 115.334 -2 134.001l10 10c36 -4.66699 62 -7 78 -7c17.333 0 44 2.33301 80 7l60 -60
c-10.667 -154.667 -16 -263 -16 -325c0 -34.667 1.33301 -58.667 4 -72l2 -7c15.333 -2 29.666 2 42.999 12s22 25.333 26 46c6.66699 120 10 227.333 10 322v54l11 9c27.333 -4.66699 54.666 -7 81.999 -7c28 0 52.667 2.33301 74 7l11 -9l39 -41l11 -9
c-4 -70.667 -6 -152.667 -6 -246c0 -158 5.33301 -284 16 -378l-11 -10c-26 6 -58 9 -96 9s-70 -3 -96 -9l-31 19c-13.333 -1.33301 -23.333 -2 -30 -2zM389.001 -8c29.333 0 58.6719 -2.33301 88.0049 -7c-10 90 -15 206.667 -15 350c0 80 1.66699 164.333 5 253
c-20.667 -4 -42.334 -6 -65.001 -6c-24.667 0 -50 2 -76 6v-52c0 -94 -3.33301 -198.667 -10 -314v-2c-4.66699 -23.333 -14.5 -41.333 -29.5 -54s-31.5 -19 -49.5 -19c-18.667 0 -35.334 6.16699 -50.001 18.5s-24 29.833 -28 52.5c-2.66699 14 -4 39.667 -4 77
c0 45.333 1.66699 99.333 5 162s6.66602 113.667 9.99902 153c-26.667 -4 -50.334 -6 -71.001 -6c-20 0 -43 2 -69 6c0.666992 -16.667 1 -55 1 -115c0 -99.333 1.33301 -181.5 4 -246.5s9 -109.5 19 -133.5c33.333 -78 90.333 -117 171 -117c6 0 15.667 0.666992 29 2
s25.333 4 36 8l11 -23c29.333 4.66699 58.666 7 87.999 7z" />
    <glyph glyph-name="v" unicode="v" horiz-adv-x="606" 
d="M198 -25l-10.999 7l-37 152c-27.333 113.333 -50.666 206 -69.999 278s-42.333 148.667 -69 230l10 12c38.667 -4.66699 65.667 -7 81 -7c17.333 0 43 2.33301 77 7l10 -8l40 -42l10 -8c10 -68.667 36 -165 78 -289c22.667 58.667 41.167 112.667 55.5 162
s24.833 98.333 31.5 147l10 8c35.333 -4.66699 63.333 -7 84 -7s49.667 2.33301 87 7l10 -12l40 -38l10 -12c-4.66699 -13.333 -7.33398 -22 -8.00098 -26c-47.333 -141.333 -82.833 -250.833 -106.5 -328.5s-48.834 -169.5 -75.501 -275.5l-11 -7c-26 6 -58.667 9 -98 9
s-72 -3 -98 -9l-11 7zM296.001 2c34 0 65.001 -2.66895 93.001 -8.00195c25.333 98.667 49.166 184.834 71.499 258.501s55.166 176.5 98.499 308.5c1.33301 4.66699 6 19 14 43c-28.667 -3.33301 -52.667 -5 -72 -5c-25.333 0 -52 2 -80 6
c-8 -57.333 -21.333 -114.666 -40 -171.999s-43 -123.333 -73 -198h-16c-65.333 175.333 -105.333 308.666 -120 399.999c-26.667 -4 -50.667 -6 -72 -6c-16 0 -38.333 1.66699 -67 5c24.667 -75.333 45.834 -146.666 63.501 -213.999l65.5 -261l5 -20l36 -145
c28 5.33301 59 8 93 8z" />
    <glyph glyph-name="w" unicode="w" horiz-adv-x="899" 
d="M653 -66c-39.333 0 -71.998 -3 -97.998 -9l-11 8l-39 42l-11 8l-15 87l-24 -137l-11 -8c-26 6 -58.667 9 -98 9c-40.667 0 -73.334 -3 -98.001 -9l-11 7l-39 43l-11 7l-37 152c-27.333 113.333 -50.666 206 -69.999 278s-42.333 148.667 -69 230l10 12
c38.667 -4.66699 65.667 -7 81 -7c17.333 0 43 2.33301 77 7l10 -8l40 -42l10 -8c9.33301 -63.333 31.333 -146 66 -248c29.333 100 45.666 189 48.999 267l10 9c35.333 -4 63.666 -6 84.999 -6c22 0 50.667 2 86 6l10 -9l40 -41l10 -9c2.66699 -66.667 15 -140.667 37 -222
c43.333 121.333 69.333 212.333 78 273l10 8c35.333 -4.66699 61 -7 77 -7c16.667 0 43.667 2.33301 81 7l10 -12l40 -38l10 -12c-35.333 -108.667 -65 -206.667 -89 -294s-53.667 -202.333 -89 -345c-26 7.33301 -61.667 11 -107 11zM296.002 2
c30.667 0 61.666 -2.33398 92.999 -7.00098c12 76.667 29 165.667 51 267h18c21.333 -93.333 38.666 -182.333 51.999 -267c31.333 4.66699 62.333 7 93 7c32 0 63 -2.33301 93 -7l85 326c23.333 85.333 51.666 179.666 84.999 282.999c-28.667 -3.33301 -51 -5 -67 -5
c-20.667 0 -44.667 2 -72 6c-7.33301 -43.333 -19.833 -92.833 -37.5 -148.5s-40.834 -121.167 -69.501 -196.5h-17c-22 65.333 -39.333 125.5 -52 180.5s-20.667 109.833 -24 164.5c-30 -4 -56 -6 -78 -6c-20 0 -45.667 2 -77 6
c-3.33301 -54 -11.166 -108.167 -23.499 -162.5s-29.166 -113.166 -50.499 -176.499h-17c-59.333 166 -95.666 289 -108.999 369c-26.667 -4 -50.667 -6 -72 -6c-16 0 -38.333 1.66699 -67 5c24.667 -75.333 45.834 -146.666 63.501 -213.999l65.5 -261l5 -20l36 -144
c30.667 4.66699 61.667 7 93 7z" />
    <glyph glyph-name="x" unicode="x" horiz-adv-x="601" 
d="M370 -19c-6 15.333 -16.332 38.999 -30.999 70.999c-28 -47.333 -50.667 -88 -68 -122l-13 -3c-20 14 -48.833 27.5 -86.5 40.5s-71.834 20.833 -102.501 23.5l-50 50l-6 14c42.667 62.667 107 149 193 259l-34 62c-56.667 103.333 -98 181.666 -124 234.999l7 13
c34.667 2.66699 62.667 6.16699 84 10.5s45.666 11.833 72.999 22.5l12 -5l50 -50c10.667 -34.667 29.334 -77 56.001 -127c44 60.667 73.667 108.334 89 143.001l12 5c30.667 -16 56.167 -27.667 76.5 -35s45.5 -13.666 75.5 -18.999l6 -14l44 -36l6 -14
c-18 -30 -48.333 -76 -91 -138l-57 -86l-22 -32l18 -28c67.333 -105.333 116 -185 146 -239l-8 -13c-29.333 0.666992 -63.333 -3.33301 -102 -12s-69 -19 -91 -31l-12 5zM466.501 23.499c33.667 7.66699 64.833 12.1689 93.5 13.502c-30.667 54 -77 129 -139 225l-24 37
l29 42c58.667 84 105.667 154.667 141 212c-26 5.33301 -48.667 11.666 -68 18.999s-41.666 17.666 -66.999 30.999c-16.667 -37.333 -52.667 -92.333 -108 -165h-15c-48.667 82 -82 148.333 -100 199c-23.333 -9.33301 -45 -16 -65 -20s-44.667 -7.33301 -74 -10
c28 -56 67.333 -130 118 -222l37 -68l-1 -10c-83.333 -106 -146 -189.333 -188 -250c29.333 -4.66699 60.5 -12.667 93.5 -24s59.833 -23.333 80.5 -36c25.333 49.333 54.333 100.666 87 153.999l16 -1c31.333 -66 54.666 -117.333 69.999 -154
c22 10.667 49.833 19.834 83.5 27.501z" />
    <glyph glyph-name="y" unicode="y" horiz-adv-x="630" 
d="M20 -303l-6.99805 15.0029c6.66699 8 12.167 23.833 16.5 47.5s6.5 49.167 6.5 76.5c0 24.667 -2 46.667 -6 66l8 11c40 4 71.333 9.83301 94 17.5s43.167 25 61.5 52s33.166 68.833 44.499 125.5c-14 36 -30.333 81.667 -49 137l-85 230.5
c-22 57 -43.667 103.167 -65 138.5l8 14c35.333 1.33301 65.666 4.5 90.999 9.5s52.333 12.5 81 22.5l50 -50c10 -24.667 23 -61.334 39 -110.001l13 -38c4 -10.667 8.66699 -24.5 14 -41.5s12.333 -37.167 21 -60.5c20 50 38.167 98.667 54.5 146s28.5 84.666 36.5 111.999
l13 5c30.667 -14 56 -24.333 76 -31s45 -12.334 75 -17.001l11 -7l39 -43l6 -14c-16.667 -26 -33.167 -59 -49.5 -99s-37.166 -94.667 -62.499 -164l-39.5 -106c-13.667 -35.333 -25.834 -64.333 -36.501 -87c-47.333 -116 -87 -200.5 -119 -253.5s-69.167 -91 -111.5 -114
s-101.833 -36.5 -178.5 -40.5l-7 15zM196.502 -243.497c38.333 22.333 72.3291 58.998 101.996 109.998s67.834 133.167 114.501 246.5c16 34.667 41 98.667 75 192c22 60.667 41.167 111.334 57.5 152.001s32.833 74.667 49.5 102
c-25.333 4.66699 -47.5 10.334 -66.5 17.001s-41.167 15.667 -66.5 27c-39.333 -120 -77.666 -224.333 -114.999 -313l-16 1c-21.333 54 -51.333 138.333 -90 253l-32 94c-24 -8 -47.167 -14.167 -69.5 -18.5s-48.166 -7.16602 -77.499 -8.49902
c19.333 -35.333 39.333 -79.5 60 -132.5s45.667 -120.833 75 -203.5l9 -24c22.667 -66 39 -112.333 49 -139l1 -5c-11.333 -58.667 -27.166 -102.834 -47.499 -132.501s-42.5 -49.167 -66.5 -58.5s-54.667 -16 -92 -20c2 -17.333 3 -36.666 3 -57.999
c0 -54.667 -5.66699 -95.334 -17 -122.001c68.667 4.66699 122.167 18.167 160.5 40.5z" />
    <glyph glyph-name="z" unicode="z" 
d="M465.5 -67c-29.667 4 -62.168 9.66797 -97.501 17.001c-40 7.33301 -74.333 12.833 -103 16.5s-62.667 5.5 -102 5.5c-26 0 -56.667 -1 -92 -3l-60 60c4 35.333 6 65 6 89s-2 53 -6 87l3 8l122 103l25 20l54 45c-10.667 0.666992 -28.334 1 -53.001 1
c-26.667 0 -57 -1 -91 -3l-60 60c4 35.333 6 64.666 6 87.999c0 24 -2 53 -6 87l10 10c58 -7.33301 106.333 -12.666 145 -15.999s75.334 -5 110.001 -5c60 0 141 7 243 21l10 -11l40 -39l10 -11c-5.33301 -26 -8 -62.333 -8 -109c0 -52 3.33301 -92.333 10 -121
c-12.667 1.33301 -32.667 2.66602 -60 3.99902l-75 -61c-37.333 -29.333 -69.666 -56 -96.999 -80c46 4 102.667 10.333 170 19l10 -11l40 -39l10 -11c-5.33301 -30 -8 -66.333 -8 -109c0 -42 2.66699 -78.333 8 -109l-9 -11c-40 1.33301 -74.833 4 -104.5 8z
M502.999 94.001c0 39.333 1.99902 73.001 5.99902 101.001c-54.667 -6.66699 -99.334 -11.5 -134.001 -14.5s-68.667 -4.5 -102 -4.5c-21.333 0 -37.666 0.333008 -48.999 1l-7 15c24.667 26 49.167 49.667 73.5 71s55.833 47 94.5 77c28.667 22 55.334 43.667 80.001 65
c18.667 -1.33301 33.334 -2 44.001 -2c-4 29.333 -6 63 -6 101c0 38.667 2 72 6 100c-93.333 -12.667 -170.666 -19 -231.999 -19c-64.667 0 -147 6.66699 -247 20c3.33301 -24 5 -50 5 -78c0 -26.667 -1.66699 -53 -5 -79c37.333 1.33301 62.333 2 75 2
c55.333 0 113.666 -5 174.999 -15l5 -15c-14 -15.333 -31.167 -31.5 -51.5 -48.5s-33.166 -27.5 -38.499 -31.5c-4 -2.66699 -7.66699 -5.66699 -11 -9s-7 -6.33301 -11 -9l-144 -120c4 -32 6 -60 6 -84c0 -18.667 -1.66699 -45.334 -5 -80.001
c19.333 1.33301 45.666 2 78.999 2c41.333 0 76.666 -1.83301 105.999 -5.5s65 -9.16699 107 -16.5c37.333 -7.33301 69 -12.833 95 -16.5s56.667 -6.5 92 -8.5c-4 29.333 -6 63 -6 101z" />
    <glyph glyph-name="braceleft" unicode="{" horiz-adv-x="278" 
d="M116.5 -184.5c-43 47 -64.498 115.501 -64.498 205.501c0 10.667 0.666992 26.667 2 48c1.33301 14.667 2 37.667 2 69c0 26 -0.333008 45.667 -1 59c-0.666992 9.33301 -3.33398 15.5 -8.00098 18.5s-13.667 4.5 -27 4.5l-9 11c5.33301 24.667 8 47.667 8 69
s-2.66699 44.333 -8 69l9 11c13.333 0 22.166 1.66699 26.499 5s7.16602 9.66602 8.49902 18.999c1.33301 21.333 2 37 2 47c0 12.667 -0.666992 31 -2 55l-1 25c-0.666992 10 -1 24.667 -1 44c0 57.333 6.83301 103 20.5 137s35.334 58.667 65.001 74s69.5 23 119.5 23
l9 -11l41 -39l9 -11c-4.66699 -21.333 -7 -44.333 -7 -69c0 -24 2.33301 -46.667 7 -68l-9 -11c-19.333 0 -32.5 -0.5 -39.5 -1.5s-12 -4.5 -15 -10.5s-4.5 -16.333 -4.5 -31c0 -15.333 1 -38.666 3 -69.999l1 -21c1.33301 -26.667 2 -48.334 2 -65.001
c0 -12.667 -0.666992 -31.667 -2 -57c-2 -35.333 -11.333 -66.666 -28 -93.999c16.667 -27.333 26 -58.666 28 -93.999c1.33301 -25.333 2 -44.333 2 -57c0 -16.667 -0.666992 -38.334 -2 -65.001l-1 -21c0 -9.33301 -0.666992 -20 -2 -32l-1 -31h9l9 -11l41 -39l9 -11
c-4.66699 -21.333 -7 -44.333 -7 -69s2.33301 -47.334 7 -68.001l-9 -11c-84.667 2.66699 -148.5 27.5 -191.5 74.5zM242.002 -129.999c0 18 1.66797 38.667 5.00098 62c-27.333 0.666992 -45.166 5 -53.499 13s-12.5 24.333 -12.5 49l1 35
c1.33301 13.333 2 24.666 2 33.999l1 21c1.33301 26.667 2 48.334 2 65.001c0 11.333 -0.666992 29.666 -2 54.999c-2 34 -11.667 64.333 -29 91v10c17.333 26.667 27 57 29 91c1.33301 25.333 2 43.666 2 54.999c0 16.667 -0.666992 38.334 -2 65.001l-1 21
c0 9.33301 -0.666992 20.666 -2 33.999l-1 35c0 24.667 4.16699 41 12.5 49s26.166 12.333 53.499 13c-3.33301 23.333 -5 44 -5 62c0 18.667 1.66699 39 5 61c-43.333 -1.33301 -77.666 -9 -102.999 -23s-43.833 -36.5 -55.5 -67.5s-17.5 -72.833 -17.5 -125.5
c0 -19.333 0.333008 -34 1 -44l1 -23c1.33301 -25.333 2 -44.333 2 -57c0 -10 -0.666992 -26.333 -2 -49c-0.666992 -12.667 -4.33398 -22.167 -11.001 -28.5s-17 -10.166 -31 -11.499c3.33301 -16.667 5 -37.334 5 -62.001c0 -24 -1.66699 -44.667 -5 -62
c14.667 -1.33301 25.167 -5.16602 31.5 -11.499s9.83301 -16.166 10.5 -29.499c0.666992 -11.333 1 -28.333 1 -51c0 -18 -0.666992 -43.667 -2 -77c-0.666992 -10 -1 -24.667 -1 -44c0 -52.667 5.83301 -94.5 17.5 -125.5s30.167 -53.5 55.5 -67.5
s59.666 -21.667 102.999 -23c-3.33301 22 -5 42.333 -5 61z" />
    <glyph glyph-name="braceright" unicode="}" horiz-adv-x="278" 
d="M20 -209l-8.99512 10.998c5.33301 24.667 8 47.667 8 69c0 20.667 -2.66699 43.334 -8 68.001l9 11c19.333 0 32.5 0.5 39.5 1.5s12 4.5 15 10.5s4.5 16.333 4.5 31c0 16 -1 39.333 -3 70l-1 21c-1.33301 26.667 -2 48.334 -2 65.001c0 12.667 0.666992 31.667 2 57
c2 35.333 11.333 66.666 28 93.999c-16.667 27.333 -26 58.666 -28 93.999c-1.33301 25.333 -2 44.333 -2 57c0 16.667 0.666992 38.334 2 65.001l1 21c0 9.33301 0.666992 20 2 32l1 31h-9l-9 11l-41 39l-9 11c5.33301 24.667 8 47.667 8 69c0 22 -2.66699 44.667 -8 68
l9 11c83.333 2 146.666 -23.833 189.999 -77.5s65 -126.834 65 -219.501c0 -13.333 -0.333008 -23.666 -1 -30.999l-1 -25c-1.33301 -24 -2 -42.667 -2 -56c0 -20 0.666992 -35.333 2 -46c1.33301 -9.33301 4.16602 -15.666 8.49902 -18.999s13.166 -5 26.499 -5l9 -11
c-4.66699 -20.667 -7 -43.667 -7 -69c0 -24.667 2.33301 -47.667 7 -69l-9 -11c-13.333 0 -22.333 -1.5 -27 -4.5s-7.33398 -9.16699 -8.00098 -18.5c-0.666992 -11.333 -1 -28.333 -1 -51c0 -18 0.666992 -43.667 2 -77c0.666992 -10 1 -24.667 1 -44
c0 -57.333 -6.83301 -103 -20.5 -137s-35.334 -58.667 -65.001 -74s-69.5 -23 -119.5 -23l-9 11zM134.005 -168.002c25.333 14 43.834 36.501 55.501 67.501s17.5 72.833 17.5 125.5c0 19.333 -0.333008 34 -1 44c-1.33301 33.333 -2 59 -2 77
c0 22.667 0.333008 39.667 1 51c0.666992 13.333 4.16699 23.166 10.5 29.499s16.833 10.166 31.5 11.499c-3.33301 23.333 -5 44 -5 62c0 19.333 1.66699 40 5 62c-14 1.33301 -24.333 5.16602 -31 11.499s-10.334 15.833 -11.001 28.5c-1.33301 22.667 -2 39 -2 49
c0 12.667 0.666992 31.667 2 57l1 23c0.666992 10 1 24.667 1 44c0 52.667 -5.83301 94.5 -17.5 125.5s-30.167 53.5 -55.5 67.5s-59.666 21.667 -102.999 23c3.33301 -16.667 5 -37 5 -61s-1.66699 -44.667 -5 -62c27.333 -0.666992 45.166 -5 53.499 -13
s12.5 -24.333 12.5 -49l-1 -35c-1.33301 -13.333 -2 -24.666 -2 -33.999l-1 -21c-1.33301 -26.667 -2 -48.334 -2 -65.001c0 -11.333 0.666992 -29.666 2 -54.999c2 -34 11.667 -64.333 29 -91v-10c-17.333 -26.667 -27 -57 -29 -91c-1.33301 -25.333 -2 -43.666 -2 -54.999
c0 -16.667 0.666992 -38.334 2 -65.001l1 -21c0 -9.33301 0.666992 -20.666 2 -33.999l1 -35c0 -24.667 -4.16699 -41 -12.5 -49s-26.166 -12.333 -53.499 -13c3.33301 -17.333 5 -38 5 -62s-1.66699 -44.333 -5 -61c43.333 1.33301 77.666 9 102.999 23z" />
    <glyph glyph-name="uni00A0" unicode="&#xa0;" horiz-adv-x="200" 
 />
    <glyph glyph-name="sterling" unicode="&#xa3;" horiz-adv-x="479" 
d="M282 -67c-70 0 -135 -2.33203 -195 -6.99902l-10 11l-40 39l-10 11c5.33301 23.333 8 45 8 65c0 20.667 -2.66699 42.667 -8 66l4 10c35.333 22.667 60.333 42.5 75 59.5s22 36.167 22 57.5c0 7.33301 -0.333008 13 -1 17c-16.667 0 -35.334 -1 -56.001 -3l-60 60
c0.666992 15.333 1.5 27.166 2.5 35.499s1.5 14.833 1.5 19.5c0 5.33301 -0.5 12.833 -1.5 22.5s-2.16699 23.167 -3.5 40.5l60 -9c-5.33301 23.333 -8 45.333 -8 66c0 57.333 17.333 110.5 52 159.5s82.334 88 143.001 117s128 43.5 202 43.5l9 -11l41 -39l9 -11
c-4.66699 -22.667 -7 -49.667 -7 -81s2.33301 -58.333 7 -81l-11 -11c-10.667 2.66699 -22.667 4 -36 4c-33.333 0 -65.5 -8 -96.5 -24s-55.667 -36.667 -74 -62s-26.166 -51 -23.499 -77c13.333 2 39.666 6.66699 78.999 14l11 -10l39 -40l11 -10
c-3.33301 -32 -5 -57 -5 -75s1.66699 -43 5 -75l-10 -10c-27.333 2 -51.333 5 -72 9c1.33301 -14.667 2 -25.667 2 -33c0 -16 -1.66699 -33 -5 -51l136 -1l50 -50c-6.66699 -30 -10 -57 -10 -81c0 -22.667 2.66699 -46.667 8 -72l-10 -11c-81.333 5.33301 -156 8 -224 8z
M441 58.001c0 18.667 1.66895 39.668 5.00195 63.001l-208 1c20.667 37.333 31 77.333 31 120c0 15.333 -1.66699 33.666 -5 54.999c28.667 -6.66699 56.667 -11 84 -13c-2.66699 21.333 -4 43 -4 65c0 22.667 1.33301 44.667 4 66c-50.667 -10 -88.334 -16 -113.001 -18
l-16 38c-6.66699 13.333 -10 28 -10 44c0 28.667 10.167 56.334 30.5 83.001s46.833 48.334 79.5 65.001s66.667 25 102 25c6 0 15 -0.666992 27 -2c-3.33301 25.333 -5 49.666 -5 72.999c0 24 1.66699 48.333 5 73c-68.667 -1.33301 -131.167 -15.833 -187.5 -43.5
s-100.5 -64.334 -132.5 -110.001s-48 -95.5 -48 -149.5c0 -28.667 5 -57.667 15 -87l-65 9c2 -24.667 3 -38.667 3 -42c0 -2.66699 -1 -17.667 -3 -45c11.333 1.33301 27.333 2 48 2c20 0 34.667 -0.666992 44 -2l7 -6c11.333 -30.667 17 -56.334 17 -77.001
c0 -23.333 -7.66699 -44.666 -23 -63.999s-41 -41 -77 -65c4.66699 -24.667 7 -46 7 -64c0 -18.667 -2 -37.667 -6 -57c63.333 4 126 6 188 6c75.333 0 145.666 -2.33301 210.999 -7c-3.33301 24.667 -5 46 -5 64z" />
    <glyph glyph-name="ordfeminine" unicode="&#xaa;" horiz-adv-x="508" 
d="M255 -65c-43.333 0 -83.667 9.99805 -121 29.998s-67.166 47 -89.499 81s-33.5 71 -33.5 111c0 5.33301 0.666992 14 2 26c7.33301 54.667 27.666 97.334 60.999 128.001l-38 39l-12 9c5.33301 84.667 28.333 149.834 69 195.501s96.667 68.5 168 68.5
c56.667 0 105.5 -17.167 146.5 -51.5s72.833 -78.833 95.5 -133.5c9.33301 -22 15.5 -49.167 18.5 -81.5s4.83301 -74.833 5.5 -127.5c1.33301 -111.333 8 -209.333 20 -294l-10 -10c-28 4.66699 -61 7 -99 7c-37.333 0 -71 -2.33301 -101 -7l-20 17
c-19.333 -4.66699 -40 -7 -62 -7zM387.999 -0.00195312c29.333 0 59.0039 -1.66797 89.0039 -5.00098c-10.667 83.333 -16.667 178 -18 284c-2 60.667 -4.16699 104.667 -6.5 132s-7.5 51 -15.5 71c-33.333 82.667 -90 124 -170 124c-66.667 0 -118.834 -20 -156.501 -60
s-60.167 -98.333 -67.5 -175c31.333 8.66699 61 13 89 13c17.333 0 32.666 -1.33301 45.999 -4c3.33301 22 12 39 26 51s30 18 48 18c18.667 0 35.667 -6.33301 51 -19s25.666 -30.667 30.999 -54l-9 -11c-95.333 -2.66699 -166.333 -18.667 -213 -48
s-73.667 -74.666 -81 -135.999c-1.33301 -13.333 -2 -23 -2 -29c0 -49.333 16.167 -87 48.5 -113s73.166 -39 122.499 -39c30 0 58.333 4.33301 85 13l11 -18c33.333 3.33301 64 5 92 5zM211.503 216.497c25 15 53.499 22.5 85.499 22.5c11.333 0 22.333 -1 33 -3l-7 -61
c-4 -18 -14.833 -32.167 -32.5 -42.5s-36.5 -15.5 -56.5 -15.5c-17.333 0 -31.666 4 -42.999 12s-17 19.333 -17 34c0 20.667 12.5 38.5 37.5 53.5zM297.002 163.997c-20.667 -8 -35.333 -17 -44 -27c20 4.66699 34.667 13.667 44 27z" />
    <glyph glyph-name="guillemotleft" unicode="&#xab;" horiz-adv-x="679" 
d="M339 36c-32.667 0 -64.332 -2.66699 -94.999 -8l-50 50l-186 216l186 216c29.333 -6 61 -9 95 -9c39.333 0 77.333 4.33301 114 13l27 -55l44 51c29.333 -6 61 -9 95 -9c39.333 0 77.333 4.33301 114 13l50 -50l-188 -220l188 -220c-34 8 -72 12 -114 12
c-32.667 0 -64.334 -2.66699 -95.001 -8l-50 50l-176 205l-33 -39l188 -220c-34 8 -72 12 -114 12zM286.002 105c22 0 45.666 -1.66699 70.999 -5l-166 194l166 194c-25.333 -3.33301 -49 -5 -71 -5c-25.333 0 -53.666 2.33301 -84.999 7l-169 -196l169 -196
c30.667 4.66699 59 7 85 7zM566.001 105c22 0 45.666 -1.66699 70.999 -5l-166 194l166 194c-25.333 -3.33301 -49 -5 -71 -5c-25.333 0 -53.666 2.33301 -84.999 7l-169 -196l169 -196c30.667 4.66699 59 7 85 7z" />
    <glyph glyph-name="periodcentered" unicode="&#xb7;" horiz-adv-x="203" 
d="M82.5 189.5c-21.667 10.333 -39.499 26.167 -53.499 47.5s-20 48 -18 80c1.33301 25.333 11.166 47 29.499 65s40.166 27 65.499 27c23.333 0 45.5 -6.66699 66.5 -20s37.833 -31 50.5 -53s19 -45 19 -69c-0.666992 -26 -10.167 -48 -28.5 -66s-40.166 -27 -65.499 -27
c-22 0 -43.833 5.16699 -65.5 15.5zM151.501 265.501c15 15.667 22.5 34.166 22.5 55.499c0 20 -6.5 36.667 -19.5 50s-29.167 20 -48.5 20c-21.333 0 -39.5 -7.66699 -54.5 -23s-22.5 -33.666 -22.5 -54.999c0 -20.667 6.5 -37.667 19.5 -51s29.5 -20 49.5 -20
c20.667 0 38.5 7.83301 53.5 23.5z" />
    <glyph glyph-name="ordmasculine" unicode="&#xba;" horiz-adv-x="549" 
d="M144.5 -19c-45 37.333 -79.167 84.668 -102.5 142.001s-33.333 114.333 -30 171c4 62.667 18.667 119.167 44 169.5s58.5 89.666 99.5 117.999s86.167 42.5 135.5 42.5c54 0 103.5 -19.833 148.5 -59.5s80.5 -90.5 106.5 -152.5s39 -124.667 39 -188
c0 -38 -5.33301 -74 -16 -108s-26.667 -64 -48 -90c-29.333 -34.667 -63 -60.167 -101 -76.5s-78.667 -24.5 -122 -24.5c-57.333 0 -108.5 18.667 -153.5 56zM369.5 17.002c32.333 16.667 61.499 40.332 87.499 70.999c20.667 24.667 36.5 55 47.5 91s16.5 73.667 16.5 113
c0 52.667 -9 103.167 -27 151.5s-44.5 87.5 -79.5 117.5s-76.167 45 -123.5 45c-46.667 0 -89.167 -13.5 -127.5 -40.5s-69.333 -64.333 -93 -112s-37.167 -101.5 -40.5 -161.5l-1 -22c0 -52 10.333 -99.167 31 -141.5s49.334 -75.666 86.001 -99.999
s77.667 -36.5 123 -36.5c34.667 0 68.167 8.33301 100.5 25zM186.499 181.5c-21 27 -30.167 60.834 -27.5 101.501c3.33301 43.333 15.833 77.333 37.5 102s50.5 37 86.5 37c33.333 0 59.333 -13.333 78 -40s28 -58.334 28 -95.001c0 -39.333 -10.5 -73.5 -31.5 -102.5
s-50.167 -43.5 -87.5 -43.5c-34.667 0 -62.5 13.5 -83.5 40.5zM341.999 194.001c19.333 26 28.9971 57.001 28.9971 93.001c0 23.333 -4 44.333 -12 63c-7.33301 2.66699 -16 4 -26 4c-31.333 0 -56.166 -10.833 -74.499 -32.5s-28.833 -51.834 -31.5 -90.501
c-1.33301 -26.667 2.33398 -49 11.001 -67c4.66699 -2 12.334 -3.66699 23.001 -5c34.667 -2.66699 61.667 9 81 35z" />
    <glyph glyph-name="guillemotright" unicode="&#xbb;" horiz-adv-x="679" 
d="M184 294l-188 220c32.667 -8 70 -12 112 -12c32.667 0 65 2.66699 97 8l226 -255l33 39l-188 220c34 -8 72 -12 114 -12c32.667 0 64.334 2.66699 95.001 8l236 -266l-186 -216c-29.333 6 -61 9 -95 9c-39.333 0 -77.333 -4.33301 -114 -13l-27 55l-44 -51
c-28.667 6 -60.334 9 -95.001 9c-39.333 0 -77.333 -4.33301 -114 -13l-50 50zM198 490c-30.667 -4.66699 -58.999 -7 -84.999 -7c-22 0 -45.667 1.66699 -71 5l166 -194l-166 -194c25.333 3.33301 49 5 71 5c25.333 0 53.666 -2.33301 84.999 -7l169 196zM478.001 490
c-30 -4.66699 -58.332 -7 -84.999 -7c-22 0 -45.667 1.66699 -71 5l166 -194l-166 -194c25.333 3.33301 49 5 71 5c25.333 0 53.666 -2.33301 84.999 -7l169 196z" />
    <glyph glyph-name="multiply" unicode="&#xd7;" horiz-adv-x="535" 
d="M571 172c-22.667 -18.667 -46.168 -42.833 -70.501 -72.5s-43.5 -57.834 -57.5 -84.501l-14 -3c-7.33301 6.66699 -26.333 25.334 -57 56.001c-16.667 16 -36.667 36.333 -60 61l-28 -43l-14 -22.5l-19 -28.5c-6 -8.66699 -12 -18.667 -18 -30h-15
c-9.33301 12.667 -16.833 21.834 -22.5 27.501s-14.834 13.167 -27.501 22.5l-47 41l-105 90l-3 14c38.667 44 81.334 85.667 128.001 125l-116 104l-1 13c26 25.333 44.833 45 56.5 59s26.167 35.333 43.5 64l15 1l126 -129c34.667 35.333 69.334 78 104.001 128l14 1
c10.667 -11.333 30 -29.333 58 -54s48.333 -41.334 61 -50.001l50 -50l1 -13l-110 -111l77 -51l50 -50zM435.999 160.001c21.333 26.667 42.6631 49.3281 63.9961 67.9951c-62.667 42 -107 73 -133 93l-2 13l65 67l53 53c-24.667 16 -43.667 29.833 -57 41.5
s-29.666 28.5 -48.999 50.5c-35.333 -48.667 -71 -91.667 -107 -129h-12c-28 26.667 -61.667 61.334 -101 104.001l-24 24c-15.333 -24 -28.666 -42.667 -39.999 -56s-27.666 -30.666 -48.999 -51.999c51.333 -40 91 -74.667 119 -104v-13
c-48 -39.333 -91 -80.666 -129 -123.999c24.667 -15.333 49.834 -33.833 75.501 -55.5s47.167 -43.167 64.5 -64.5l12 19l16 26c29.333 44.667 48 72.334 56 83.001l14 1c34 -44 71 -84.667 111 -122c14 24.667 31.667 50.334 53 77.001z" />
    <glyph glyph-name="divide" unicode="&#xf7;" 
d="M247.5 -12c-21 12.667 -37.499 29.668 -49.499 51.001s-18 44.333 -18 69c0 16.667 3.83301 31.834 11.5 45.501s17.834 25.167 30.501 34.5c-26.667 1.33301 -49.334 2 -68.001 2c-24 0 -51.667 -1 -83 -3l-60 60c4 35.333 6 61.666 6 78.999
c0 18.667 -2 44.334 -6 77.001l10 10c118 -12 196.667 -18.667 236 -20c-27.333 10 -47 25.5 -59 46.5s-18 43.167 -18 66.5c0 27.333 9.16699 50.666 27.5 69.999s40.833 29 67.5 29c30 0 55.167 -7.33301 75.5 -22s35.5 -32.5 45.5 -53.5s15 -41.167 15 -60.5
c0 -28.667 -9.66699 -52.667 -29 -72c14.667 0.666992 32.667 2.5 54 5.5s37.333 5.16699 48 6.5c16 1.33301 27.667 2.66602 35 3.99902l10 -11l40 -39l10 -11c-5.33301 -30 -8 -63 -8 -99c0 -35.333 2.66699 -68.333 8 -99l-9 -11c-39.333 1.33301 -72 3.83301 -98 7.5
s-61.333 9.5 -106 17.5l-24 4c25.333 -16 43.166 -31.667 53.499 -47s15.5 -34 15.5 -56c0 -27.333 -9.16699 -50.833 -27.5 -70.5s-40.5 -29.5 -66.5 -29.5c-25.333 0 -48.5 6.33301 -69.5 19zM320.501 461.501c15 15.667 22.5 34.166 22.5 55.499
c0 20 -6.5 36.667 -19.5 50s-29.167 20 -48.5 20c-21.333 0 -39.5 -7.66699 -54.5 -23s-22.5 -33.666 -22.5 -54.999c0 -20.667 6.5 -37.667 19.5 -51s29.5 -20 49.5 -20c20.667 0 38.5 7.83301 53.5 23.5zM503.001 302c0 34 2.00195 64.333 6.00195 91
c-55.333 -7.33301 -98 -12.333 -128 -15s-59.667 -4 -89 -4c-30 0 -63.5 1.5 -100.5 4.5s-90.833 8.16699 -161.5 15.5c3.33301 -23.333 5 -46 5 -68c0 -21.333 -1.66699 -44.666 -5 -69.999c19.333 1.33301 45.333 2 78 2c41.333 0 77.166 -1.83301 107.499 -5.5
s65.166 -9.5 104.499 -17.5c34.667 -6.66699 65.667 -11.834 93 -15.501s59.333 -6.5 96 -8.5c-4 28 -6 58.333 -6 91zM320.503 60.5c15 15.667 22.5 34.166 22.5 55.499c0 20 -6.5 36.667 -19.5 50s-29.167 20 -48.5 20c-21.333 0 -39.5 -7.66699 -54.5 -23
s-22.5 -33.666 -22.5 -54.999c0 -20.667 6.5 -37.667 19.5 -51s29.5 -20 49.5 -20c20.667 0 38.5 7.83301 53.5 23.5z" />
    <glyph glyph-name="quoteleft" unicode="&#x2018;" horiz-adv-x="231" 
d="M109 810c29.333 -2 47.333 -3 54 -3c10.667 0 30.667 1.33301 60 4l50 -50l-55 -203c-27.333 2.66699 -53.333 4 -78 4s-53 -1.33301 -85 -4l-50 50zM95 630c24.667 0 44.333 -0.666992 59 -2l45 163c-21.333 -1.33301 -33 -2 -35 -2c-7.33301 0 -22.333 1 -45 3
l-84 -164c15.333 1.33301 35.333 2 60 2z" />
    <glyph glyph-name="quoteright" unicode="&#x2019;" horiz-adv-x="231" 
d="M63 815l21.998 -1c20.667 -2 39.334 -3 56.001 -3s36.334 1 59.001 3c11.333 0 20 0.333008 26 1l50 -50l-104 -202c-29.333 2 -47.333 3 -54 3c-10.667 0 -30.667 -1.33301 -60 -4l-50 50zM135.998 793c-8.66699 0 -28.333 0.666992 -59 2l-45 -163
c21.333 1.33301 33 2 35 2c7.33301 0 22.333 -1 45 -3l84 164c-30.667 -1.33301 -50.667 -2 -60 -2z" />
    <glyph glyph-name="quotedblleft" unicode="&#x201c;" horiz-adv-x="391" 
d="M109 810c29.333 -2 47.334 -3 54.001 -3c10.667 0 30.667 1.33301 60 4l20 -52l26 51c29.333 -2 47.333 -3 54 -3c10.667 0 30.667 1.33301 60 4l50 -50l-55 -203c-14 1.33301 -37.333 2 -70 2c-28 0 -50.333 -0.333008 -67 -1s-25.334 -1 -26.001 -1
c-26.667 2.66699 -52 4 -76 4s-52 -1.33301 -84 -4l-50 50zM95.001 630c24.667 0 44.333 -0.666992 59 -2l45 163c-21.333 -1.33301 -33 -2 -35 -2c-7.33301 0 -22.333 1 -45 3l-84 -164c15.333 1.33301 35.333 2 60 2zM255 630c24.667 0 44.333 -0.666992 59 -2l45 163
c-21.333 -1.33301 -33 -2 -35 -2c-7.33301 0 -22.333 1 -45 3l-84 -164c15.333 1.33301 35.333 2 60 2z" />
    <glyph glyph-name="quotedblright" unicode="&#x201d;" horiz-adv-x="391" 
d="M63 810c41.333 -2.66699 67 -4 77 -4c16.667 0 36 1 58 3c10.667 0 19 0.333008 25 1l-4 -19l7 19l20 -1c21.333 -2 40 -3 56 -3c17.333 0 37.333 1 60 3l24 1l50 -50l-104 -202c-29.333 2 -47.333 3 -54 3c-10.667 0 -30.667 -1.33301 -60 -4l-20 52l-26 -51
c-29.333 2 -47.333 3 -54 3c-10.667 0 -30.667 -1.33301 -60 -4l-50 50zM136 788c-8.66699 0 -28.333 0.666992 -59 2l-45 -163c21.333 1.33301 33 2 35 2c7.33301 0 22.333 -1 45 -3l84 164c-30.667 -1.33301 -50.667 -2 -60 -2zM296.001 788
c-8.66699 0 -28.333 0.666992 -59 2l-45 -163c21.333 1.33301 33 2 35 2c7.33301 0 22.333 -1 45 -3l84 164c-30.667 -1.33301 -50.667 -2 -60 -2z" />
    <glyph glyph-name="bullet" unicode="&#x2022;" horiz-adv-x="237" 
d="M94.5 178c-23.667 11.333 -43.499 28.834 -59.499 52.501s-24 52.5 -24 86.5c0 31.333 11 58.166 33 80.499s48.667 33.5 80 33.5c26.667 0 51.667 -6.5 75 -19.5s42 -31.667 56 -56s21 -52.166 21 -83.499c-0.666992 -30.667 -12 -56.834 -34 -78.501
s-48 -32.5 -78 -32.5c-22.667 0 -45.834 5.66699 -69.501 17zM180.001 257.501c18.667 19 28 41.832 28 68.499c0 24.667 -8 45.334 -24 62.001s-36 25 -60 25c-26 0 -48.333 -9.33301 -67 -28s-28 -41 -28 -67c0 -25.333 8 -46.5 24 -63.5s36.333 -25.5 61 -25.5
c25.333 0 47.333 9.5 66 28.5z" />
    <glyph glyph-name="ellipsis" unicode="&#x2026;" horiz-adv-x="203" 
d="M178.5 141c20.333 -12.667 36.167 -29.334 47.5 -50.001s17 -42 17 -64c0 -28 -9 -52 -27 -72c-20 -20.667 -44.667 -31 -74 -31c-21.333 0 -42.166 5.83301 -62.499 17.5s-37 27.334 -50 47.001s-19.5 41.5 -19.5 65.5c0 30 9.5 55.167 28.5 75.5s42.833 30.5 71.5 30.5
c25.333 0 48.166 -6.33301 68.499 -19zM154.501 122c-13 13.333 -29.167 19.999 -48.5 19.999c-21.333 0 -39.5 -7.66699 -54.5 -23s-22.5 -33.666 -22.5 -54.999c0 -20.667 6.5 -37.667 19.5 -51s29.5 -20 49.5 -20c20.667 0 38.5 7.83301 53.5 23.5s22.5 34.167 22.5 55.5
c0 20 -6.5 36.667 -19.5 50z" />
    <glyph glyph-name="guilsinglleft" unicode="&#x2039;" horiz-adv-x="399" 
d="M339 36c-32.667 0 -64.333 -2.66699 -95 -8l-236 266l186 216c29.333 -6 61 -9 95 -9c39.333 0 77.333 4.33301 114 13l50 -50l-188 -220l188 -220c-34 8 -72 12 -114 12zM286.001 105c22 0 45.666 -1.66699 70.999 -5l-166 194l166 194c-25.333 -3.33301 -49 -5 -71 -5
c-25.333 0 -53.666 2.33301 -84.999 7l-169 -196l169 -196c30.667 4.66699 59 7 85 7z" />
    <glyph glyph-name="guilsinglright" unicode="&#x203a;" horiz-adv-x="399" 
d="M184 294l-188 220c34 -8 72 -12 114 -12c32.667 0 64.334 2.66699 95.001 8l236 -266l-186 -216c-28.667 6 -60.334 9 -95.001 9c-39.333 0 -77.333 -4.33301 -114 -13l-50 50zM198 490c-30.667 -4.66699 -58.999 -7 -84.999 -7c-22 0 -45.667 1.66699 -71 5l166 -194
l-166 -194c25.333 3.33301 49 5 71 5c25.333 0 53.666 -2.33301 84.999 -7l169 196z" />
    <glyph glyph-name="Euro" unicode="&#x20ac;" horiz-adv-x="633" 
d="M563 -41c-42.667 -20.667 -86.665 -30.998 -131.998 -30.998c-46.667 0 -92 10.5 -136 31.5s-83.5 51.167 -118.5 90.5s-62.167 85.666 -81.5 138.999l-24 -2l-60 60c0.666992 15.333 1.5 27.166 2.5 35.499s1.5 14.833 1.5 19.5c0 5.33301 -0.5 12.833 -1.5 22.5
s-2.16699 23.167 -3.5 40.5l61 -10v12l-50 40l-10 10c2.66699 31.333 4 49.333 4 54c0 5.33301 -1.33301 22.666 -4 51.999l10 10c15.333 -2.66699 41.333 -6.33398 78 -11.001c18.667 58.667 45.167 109.834 79.5 153.501s73 77.167 116 100.5s86.833 35 131.5 35
c34 0 66.667 -6.66699 98 -20s60.666 -33.666 87.999 -60.999l50 -50l-2 -14c-10 -5.33301 -22.5 -18.666 -37.5 -39.999s-28.167 -43.666 -39.5 -66.999s-17 -41 -17 -53l-15 -7c-22.667 20 -49.334 30 -80.001 30c-19.333 0 -38.5 -4.66699 -57.5 -14
s-35.833 -22.666 -50.5 -39.999l43 8l11 -10c-3.33301 -32 -5 -57 -5 -75s1.66699 -43 5 -75l-9 -10c-20 1.33301 -35 2.66602 -45 3.99902v-12l43 8l11 -10c-3.33301 -24 -5 -49.667 -5 -77c0 -21.333 0.666992 -38 2 -50c25.333 9.33301 48.333 26.666 69 51.999l15 -2
c9.33301 -18.667 34.5 -45.834 75.5 -81.501s74.833 -61.5 101.5 -77.5l2 -14c-33.333 -42 -71.333 -73.333 -114 -94zM531.002 150.002c-16.667 15.333 -31.001 34 -43.001 56c-16 -18 -33.5 -31.5 -52.5 -40.5s-38.167 -13.5 -57.5 -13.5c-22.667 0 -44 6.16699 -64 18.5
s-37 30.166 -51 53.499c4.66699 -0.666992 15.5 -2.66699 32.5 -6s34.5 -5.66602 52.5 -6.99902c-2.66699 22 -4 44 -4 66c0 22.667 1.33301 44.667 4 66c-52 -10 -89.667 -15.333 -113 -16v25l3 38l11 8c32.667 -8.66699 65.667 -14 99 -16c-2.66699 21.333 -4 43 -4 65
c0 22.667 1.33301 44.667 4 66l-56 -10l-8 14c17.333 26 38.166 45.833 62.499 59.5s49.5 20.5 75.5 20.5c28 0 54 -8 78 -24c5.33301 22.667 17.833 50.167 37.5 82.5s37.834 55.5 54.501 69.5c-49.333 45.333 -104.666 68 -165.999 68c-42.667 0 -84.5 -11.333 -125.5 -34
s-77.833 -55.5 -110.5 -98.5s-58 -93.5 -76 -151.5l-10 -6l-74 10c2 -24.667 3 -38.667 3 -42c0 -2.66699 -1 -17.667 -3 -45c15.333 1.33301 37 2 65 2l-3 -28c-1.33301 -12.667 -2.33301 -24 -3 -34c0 -5.33301 -0.333008 -9 -1 -11v-10l-10 -9l-48 7
c2 -24.667 3 -38.667 3 -42c0 -2.66699 -1 -17.667 -3 -45c28 1.33301 47.333 2 58 2l9 -7c11.333 -54 31 -100.833 59 -140.5s61.5 -69.834 100.5 -90.501s79.833 -31 122.5 -31c40 0 79 9.33301 117 28s72.667 46.334 104 83.001c-29.333 18 -52.333 34.667 -69 50z" />
    <glyph glyph-name="minus" unicode="&#x2212;" 
d="M472 140.5c-26 3.66699 -61.333 9.5 -106 17.5c-41.333 7.33301 -76.333 12.833 -105 16.5s-63.334 5.5 -104.001 5.5c-25.333 0 -54 -1 -86 -3l-60 60c4 35.333 6 61.666 6 78.999c0 18.667 -2 44.334 -6 77.001l10 10c74.667 -7.33301 130.667 -12.5 168 -15.5
s71.333 -4.5 102 -4.5s61.834 1.5 93.501 4.5s76.5 8.16699 134.5 15.5l10 -11l40 -39l10 -11c-5.33301 -30 -8 -63 -8 -99c0 -35.333 2.66699 -68.333 8 -99l-9 -11c-39.333 1.33301 -72 3.83301 -98 7.5zM503 292c0 34 2.00195 64.333 6.00195 91
c-55.333 -7.33301 -98 -12.333 -128 -15s-59.667 -4 -89 -4c-30 0 -63.5 1.5 -100.5 4.5s-90.833 8.16699 -161.5 15.5c3.33301 -23.333 5 -46 5 -68c0 -21.333 -1.66699 -44.666 -5 -69.999c19.333 1.33301 45.333 2 78 2c41.333 0 77.166 -1.83301 107.499 -5.5
s65.166 -9.5 104.499 -17.5c34.667 -6.66699 65.667 -11.834 93 -15.501s59.333 -6.5 96 -8.5c-4 28 -6 58.333 -6 91z" />
    <glyph glyph-name="lozenge" unicode="&#x25ca;" horiz-adv-x="576" 
d="M10 325l205 485c30.667 -6.66699 55.667 -10 75 -10c20.667 0 45.667 3.33301 75 10l50 -50l201 -485l-201 -480c-29.333 6.66699 -54.333 10 -75 10c-19.333 0 -44.333 -3.33301 -75 -10l-50 50zM290 -127c16.667 0 38.334 -2.66699 65.001 -8l191 460l-191 465
c-26.667 -5.33301 -48.334 -8 -65.001 -8s-38.334 2.66699 -65.001 8l-195 -465l195 -460c26.667 5.33301 48.334 8 65.001 8zM163 325l127 322l126 -322l-126 -318zM396 325l-71 183l-92 -233l72 -182z" />
    </font>
</defs>
</svg>
